<svg id="Layer_1" data-name="Layer 1" xmlns="http://www.w3.org/2000/svg" viewBox="0 0 97.8 97.84"><title>login</title><path d="M90.75,1.08H41.83a8.15,8.15,0,0,0-8.16,8.14h0V23.5a2,2,0,0,0,2,2h4.08a2,2,0,0,0,2-2V9.23h49V90.77H41.83V76.5a2,2,0,0,0-2-2H35.71a2,2,0,0,0-2,2V90.77a8.15,8.15,0,0,0,8.15,8.15H90.75a8.15,8.15,0,0,0,8.15-8.15h0V9.23a8.15,8.15,0,0,0-8.15-8.15Z" transform="translate(-1.1 -1.08)" fill="#d79746"/><path d="M46.58,66.83a2.05,2.05,0,0,0-.68,1.52v4.07a2,2,0,0,0,1.22,1.87,2.11,2.11,0,0,0,.82.17,2,2,0,0,0,1.38-.53L73.78,51.5A2,2,0,0,0,74,48.68c-.06-.07-.12-.12-.18-.18L49.32,26.07a2,2,0,0,0-2.83,0,2,2,0,0,0-.59,1.53v4.07a2.05,2.05,0,0,0,.68,1.52L60.75,45.92H3.1a2,2,0,0,0-2,2V52a2,2,0,0,0,2,2H60.75Z" transform="translate(-1.1 -1.08)" fill="#d79746"/></svg>