<svg id="Layer_1" data-name="Layer 1" xmlns="http://www.w3.org/2000/svg" viewBox="0 0 97.01 96.66"><title>logout</title><path d="M49.83,90.27H13.57a4,4,0,0,1-4-4V13.73a4,4,0,0,1,4-4H49.83a4,4,0,1,0,0-8.06H13.57A12.1,12.1,0,0,0,1.49,13.73V86.25A12.09,12.09,0,0,0,13.57,98.33H49.83a4,4,0,0,0,0-8.06Z" transform="translate(-1.49 -1.67)" fill="#d79746"/><path d="M97.29,47.12,72.8,23a4,4,0,1,0-5.66,5.74L84.65,46H37.74a4,4,0,0,0,0,8.06H84.65L67.14,71.29A4,4,0,0,0,72.8,77L97.29,52.86a4,4,0,0,0,.09-5.66Z" transform="translate(-1.49 -1.67)" fill="#d79746"/></svg>