<svg width="71" height="71" viewBox="0 0 71 71" fill="none" xmlns="http://www.w3.org/2000/svg">
<circle cx="35.5" cy="35.5" r="35.5" fill="#FFF9F0"/>
<circle cx="35.5001" cy="35.5" r="31.6622" fill="#FFF5E6"/>
<path d="M33.9853 40.6755C35.0203 41.085 35.9653 41.6295 36.8158 42.3068C37.6663 42.9818 38.393 43.7692 38.9983 44.6602C40.2327 46.4581 40.8976 48.5859 40.9063 50.7667V51.75H38.9375V50.7645C38.9418 49.6008 38.7141 48.448 38.2679 47.3733C37.8217 46.2986 37.1659 45.3235 36.3388 44.505C35.5269 43.7046 34.5722 43.0636 33.524 42.615C32.4347 42.1483 31.2621 41.9072 30.077 41.9062C28.9134 41.902 27.7605 42.1297 26.6858 42.5759C25.6111 43.022 24.636 43.6779 23.8175 44.505C23.0174 45.3171 22.3764 46.2718 21.9275 47.3198C21.464 48.3863 21.23 49.536 21.2188 50.7645V51.75H19.25V50.7645C19.2443 48.5821 19.9104 46.4509 21.158 44.6602C22.4007 42.8674 24.1455 41.4819 26.1733 40.6778C25.7126 40.3612 25.2932 39.9886 24.9245 39.5685C24.5603 39.1549 24.2454 38.7004 23.9863 38.214C23.7282 37.7281 23.5317 37.2118 23.4013 36.6772C23.2683 36.1327 23.1966 35.575 23.1875 35.0145C23.1875 34.0627 23.3675 33.1695 23.7275 32.3393C24.4315 30.6943 25.7415 29.3834 27.386 28.6785C28.2344 28.3173 29.1466 28.1299 30.0687 28.1272C30.9908 28.1245 31.904 28.3066 32.7545 28.6627C34.3999 29.3672 35.7108 30.6782 36.4153 32.3235C36.9979 33.6935 37.1218 35.2153 36.7685 36.6615C36.6335 37.1947 36.4355 37.7077 36.17 38.2005C35.9062 38.6882 35.5917 39.1467 35.2318 39.5685C34.8718 39.9893 34.4555 40.356 33.9853 40.6755V40.6755ZM30.077 39.9375C30.7543 39.9375 31.391 39.8092 31.985 39.555C33.1628 39.0546 34.1001 38.1164 34.5995 36.9382C34.8673 36.333 35 35.6918 35 35.0168C35.0029 34.3725 34.8763 33.7341 34.6278 33.1397C34.3793 32.5452 34.0139 32.0068 33.5533 31.5563C33.0977 31.112 32.5667 30.7524 31.985 30.4942C31.3849 30.2262 30.7343 30.0896 30.077 30.0938C29.402 30.0938 28.7653 30.222 28.1713 30.4763C26.9871 30.9813 26.0439 31.9245 25.5388 33.1088C25.2845 33.7028 25.1563 34.3395 25.1563 35.0168C25.1563 35.6918 25.2845 36.3285 25.5388 36.9225C25.7975 37.5165 26.1463 38.0408 26.5873 38.4908C27.0438 38.9521 27.5878 39.3177 28.1875 39.5661C28.7871 39.8145 29.4303 39.9408 30.0793 39.9375H30.077ZM50.75 20.25V36H46.8125L40.9063 41.9062V36H38.9375V34.0312H42.875V37.1542L45.998 34.0312H48.7813V22.2188H29.0938V25.7558C28.7638 25.7974 28.4351 25.8492 28.1083 25.911C27.7731 25.9746 27.4442 26.0672 27.125 26.1877V20.25H50.75Z" fill="#B16D03"/>
</svg>
