<svg width="71" height="71" viewBox="0 0 71 71" fill="none" xmlns="http://www.w3.org/2000/svg">
<circle cx="35.5" cy="35.5" r="35.5" fill="#FFF9F0"/>
<circle cx="35.5001" cy="35.5" r="31.6622" fill="#FFF5E6"/>
<path d="M21.2245 36.601H33.1571C33.5237 36.601 33.8201 36.3046 33.8201 35.938V33.2863C33.8201 32.9197 33.5237 32.6234 33.1571 32.6234H21.2245C20.8579 32.6234 20.5615 32.9197 20.5615 33.2863V35.938C20.5615 36.3046 20.8579 36.601 21.2245 36.601ZM21.8874 33.9493H32.4942V35.2751H21.8874V33.9493Z" fill="#B16D03"/>
<path d="M31.8316 37.9268C30.7351 37.9268 29.8428 38.8191 29.8428 39.9156C29.8428 41.0121 30.7351 41.9044 31.8316 41.9044C32.928 41.9044 33.8203 41.0121 33.8203 39.9156C33.8203 38.8191 32.928 37.9268 31.8316 37.9268ZM31.8316 40.5786C31.4656 40.5786 31.1686 40.2816 31.1686 39.9156C31.1686 39.5497 31.4656 39.2527 31.8316 39.2527C32.1975 39.2527 32.4945 39.5497 32.4945 39.9156C32.4945 40.2816 32.1975 40.5786 31.8316 40.5786Z" fill="#B16D03"/>
<path d="M27.1909 37.9268C26.0944 37.9268 25.2021 38.8191 25.2021 39.9156C25.2021 41.0121 26.0944 41.9044 27.1909 41.9044C28.2874 41.9044 29.1797 41.0121 29.1797 39.9156C29.1797 38.8191 28.2874 37.9268 27.1909 37.9268ZM27.1909 40.5786C26.825 40.5786 26.528 40.2816 26.528 39.9156C26.528 39.5497 26.825 39.2527 27.1909 39.2527C27.5569 39.2527 27.8539 39.5497 27.8539 39.9156C27.8539 40.2816 27.5569 40.5786 27.1909 40.5786Z" fill="#B16D03"/>
<path d="M22.5503 41.9044C23.6468 41.9044 24.5391 41.0121 24.5391 39.9156C24.5391 38.8191 23.6468 37.9268 22.5503 37.9268C21.4538 37.9268 20.5615 38.8191 20.5615 39.9156C20.5615 41.0121 21.4538 41.9044 22.5503 41.9044ZM22.5503 39.2527C22.9162 39.2527 23.2132 39.5497 23.2132 39.9156C23.2132 40.2816 22.9162 40.5786 22.5503 40.5786C22.1844 40.5786 21.8874 40.2816 21.8874 39.9156C21.8874 39.5497 22.1844 39.2527 22.5503 39.2527Z" fill="#B16D03"/>
<path d="M31.8316 42.5673C30.7351 42.5673 29.8428 43.4596 29.8428 44.5561C29.8428 45.6526 30.7351 46.5449 31.8316 46.5449C32.928 46.5449 33.8203 45.6526 33.8203 44.5561C33.8203 43.4596 32.928 42.5673 31.8316 42.5673ZM31.8316 45.219C31.4656 45.219 31.1686 44.9221 31.1686 44.5561C31.1686 44.1902 31.4656 43.8932 31.8316 43.8932C32.1975 43.8932 32.4945 44.1902 32.4945 44.5561C32.4945 44.9221 32.1975 45.219 31.8316 45.219Z" fill="#B16D03"/>
<path d="M27.1909 42.5673C26.0944 42.5673 25.2021 43.4596 25.2021 44.5561C25.2021 45.6526 26.0944 46.5449 27.1909 46.5449C28.2874 46.5449 29.1797 45.6526 29.1797 44.5561C29.1797 43.4596 28.2874 42.5673 27.1909 42.5673ZM27.1909 45.219C26.825 45.219 26.528 44.9221 26.528 44.5561C26.528 44.1902 26.825 43.8932 27.1909 43.8932C27.5569 43.8932 27.8539 44.1902 27.8539 44.5561C27.8539 44.9221 27.5569 45.219 27.1909 45.219Z" fill="#B16D03"/>
<path d="M22.5503 46.5449C23.6468 46.5449 24.5391 45.6526 24.5391 44.5561C24.5391 43.4596 23.6468 42.5673 22.5503 42.5673C21.4538 42.5673 20.5615 43.4596 20.5615 44.5561C20.5615 45.6526 21.4538 46.5449 22.5503 46.5449ZM22.5503 43.8932C22.9162 43.8932 23.2132 44.1902 23.2132 44.5561C23.2132 44.9221 22.9162 45.219 22.5503 45.219C22.1844 45.219 21.8874 44.9221 21.8874 44.5561C21.8874 44.1902 22.1844 43.8932 22.5503 43.8932Z" fill="#B16D03"/>
<path d="M31.8316 47.2078C30.7351 47.2078 29.8428 48.1001 29.8428 49.1966C29.8428 50.2931 30.7351 51.1854 31.8316 51.1854C32.928 51.1854 33.8203 50.2931 33.8203 49.1966C33.8203 48.1001 32.928 47.2078 31.8316 47.2078ZM31.8316 49.8595C31.4656 49.8595 31.1686 49.5626 31.1686 49.1966C31.1686 48.8307 31.4656 48.5337 31.8316 48.5337C32.1975 48.5337 32.4945 48.8307 32.4945 49.1966C32.4945 49.5626 32.1975 49.8595 31.8316 49.8595Z" fill="#B16D03"/>
<path d="M27.1909 47.2078C26.0944 47.2078 25.2021 48.1001 25.2021 49.1966C25.2021 50.2931 26.0944 51.1854 27.1909 51.1854C28.2874 51.1854 29.1797 50.2931 29.1797 49.1966C29.1797 48.1001 28.2874 47.2078 27.1909 47.2078ZM27.1909 49.8595C26.825 49.8595 26.528 49.5626 26.528 49.1966C26.528 48.8307 26.825 48.5337 27.1909 48.5337C27.5569 48.5337 27.8539 48.8307 27.8539 49.1966C27.8539 49.5626 27.5569 49.8595 27.1909 49.8595Z" fill="#B16D03"/>
<path d="M22.5503 51.1854C23.6468 51.1854 24.5391 50.2931 24.5391 49.1966C24.5391 48.1001 23.6468 47.2078 22.5503 47.2078C21.4538 47.2078 20.5615 48.1001 20.5615 49.1966C20.5615 50.2931 21.4538 51.1854 22.5503 51.1854ZM22.5503 48.5337C22.9162 48.5337 23.2132 48.8307 23.2132 49.1966C23.2132 49.5626 22.9162 49.8595 22.5503 49.8595C22.1844 49.8595 21.8874 49.5626 21.8874 49.1966C21.8874 48.8307 22.1844 48.5337 22.5503 48.5337Z" fill="#B16D03"/>
<path d="M42.4289 24.0186H42.3792C42.1711 22.3885 41.2039 20.9347 39.7772 20.104V19.825C39.7772 19.7911 39.7633 19.7613 39.758 19.7288C39.7507 19.6804 39.7467 19.632 39.7295 19.5863C39.7136 19.5445 39.6871 19.5107 39.6625 19.4729C39.6407 19.4385 39.6228 19.4033 39.5943 19.3735C39.5578 19.3344 39.5134 19.3079 39.469 19.2787C39.4444 19.2628 39.4265 19.2389 39.3994 19.2263C39.3927 19.223 39.3854 19.221 39.3795 19.2177C39.3742 19.2157 39.3695 19.2137 39.3642 19.2117C37.9588 18.5535 36.3002 18.5528 34.8862 19.2098C34.8828 19.2111 34.8795 19.2117 34.8762 19.2137C34.8689 19.217 34.8623 19.219 34.855 19.2223C34.8245 19.2363 34.8046 19.2628 34.7774 19.2807C34.7357 19.3085 34.6932 19.3331 34.6588 19.3689C34.6303 19.4 34.6124 19.4365 34.5898 19.4709C34.566 19.5081 34.5394 19.5412 34.5229 19.583C34.5056 19.6281 34.5023 19.6765 34.4944 19.7248C34.4891 19.758 34.4751 19.7878 34.4751 19.8216V20.1014C33.0459 20.932 32.0767 22.3865 31.8678 24.018H31.8221C31.4555 24.018 31.1592 24.3143 31.1592 24.6809V26.6697C31.1592 27.0363 31.4555 27.3326 31.8221 27.3326H42.4289C42.7955 27.3326 43.0919 27.0363 43.0919 26.6697V24.6809C43.0919 24.315 42.7955 24.0186 42.4289 24.0186V24.0186ZM34.4751 21.7169V22.0285C34.4751 22.3951 34.7715 22.6914 35.1381 22.6914C35.5047 22.6914 35.801 22.3951 35.801 22.0285V20.2678C36.6568 19.9668 37.5995 19.9681 38.4514 20.2691V22.0285C38.4514 22.3951 38.7477 22.6914 39.1143 22.6914C39.4809 22.6914 39.7772 22.3951 39.7772 22.0285V21.7209C40.4408 22.3195 40.887 23.1316 41.0388 24.0186H33.2083C33.3614 23.1296 33.8089 22.3156 34.4751 21.7169ZM41.766 26.0074H32.485V25.3445H41.766V26.0074Z" fill="#B16D03"/>
<path d="M46.412 32.6327H48.4007C48.7673 32.6327 49.0637 32.3364 49.0637 31.9698C49.0637 31.6032 48.7673 31.3068 48.4007 31.3068H46.412C46.0454 31.3068 45.749 31.6032 45.749 31.9698C45.749 32.3364 46.0454 32.6327 46.412 32.6327Z" fill="#B16D03"/>
<path d="M48.4022 34.6215H45.7498C45.3832 34.6215 45.0869 34.9178 45.0869 35.2844C45.0869 35.651 45.3832 35.9473 45.7498 35.9473H48.4022C48.7688 35.9473 49.0651 35.651 49.0651 35.2844C49.0651 34.9178 48.7688 34.6215 48.4022 34.6215Z" fill="#B16D03"/>
<path d="M48.4007 37.9361H46.412C46.0454 37.9361 45.749 38.2325 45.749 38.5991C45.749 38.9657 46.0454 39.262 46.412 39.262H48.4007C48.7673 39.262 49.0637 38.9657 49.0637 38.5991C49.0637 38.2325 48.7673 37.9361 48.4007 37.9361Z" fill="#B16D03"/>
<path d="M48.4012 41.2508H47.076C46.7094 41.2508 46.4131 41.5471 46.4131 41.9137C46.4131 42.2803 46.7094 42.5766 47.076 42.5766H48.4012C48.7678 42.5766 49.0641 42.2803 49.0641 41.9137C49.0641 41.5471 48.7678 41.2508 48.4012 41.2508Z" fill="#B16D03"/>
<path d="M48.4007 44.5654H46.412C46.0454 44.5654 45.749 44.8617 45.749 45.2283C45.749 45.5949 46.0454 45.8913 46.412 45.8913H48.4007C48.7673 45.8913 49.0637 45.5949 49.0637 45.2283C49.0637 44.8617 48.7673 44.5654 48.4007 44.5654Z" fill="#B16D03"/>
<path d="M48.4022 47.88H45.7498C45.3832 47.88 45.0869 48.1764 45.0869 48.543C45.0869 48.9096 45.3832 49.2059 45.7498 49.2059H48.4022C48.7688 49.2059 49.0651 48.9096 49.0651 48.543C49.0651 48.1764 48.7688 47.88 48.4022 47.88Z" fill="#B16D03"/>
<path d="M53.7029 19.3715C53.7023 19.2873 53.6857 19.2038 53.6532 19.1249C53.6194 19.0434 53.571 18.9698 53.5094 18.9088L48.8709 14.267C48.8099 14.2053 48.7363 14.1569 48.6547 14.1231C48.5739 14.0893 48.4877 14.0721 48.4015 14.0721H27.1911C26.8245 14.0721 26.5282 14.3684 26.5282 14.735V29.9717H19.8989C18.8025 29.9717 17.9102 30.864 17.9102 31.9605V34.6122V51.8483V54.5C17.9102 55.5965 18.8025 56.4888 19.8989 56.4888H34.4833C35.5798 56.4888 36.4721 55.5965 36.4721 54.5V53.8345H53.0413C53.4079 53.8345 53.7043 53.5381 53.7043 53.1715V19.3795C53.7043 19.3795 53.7043 19.3795 53.7043 19.3788V19.3781C53.7043 19.3755 53.7029 19.3735 53.7029 19.3715V19.3715ZM49.0644 16.336L51.4417 18.7152H49.0644V16.336ZM19.236 31.9605C19.236 31.5946 19.533 31.2976 19.8989 31.2976H34.4833C34.8493 31.2976 35.1463 31.5946 35.1463 31.9605V34.6122V51.8483C35.1463 52.2143 34.8493 52.5112 34.4833 52.5112H19.8989C19.533 52.5112 19.236 52.2143 19.236 51.8483V34.6122V31.9605ZM34.4833 55.163H19.8989C19.533 55.163 19.236 54.866 19.236 54.5V53.7145C19.4442 53.7887 19.6649 53.8371 19.8989 53.8371H34.4833C34.7174 53.8371 34.9381 53.7894 35.1463 53.7145V54.5C35.1463 54.866 34.8493 55.163 34.4833 55.163ZM36.4721 51.8483V49.2059H42.4332C42.7998 49.2059 43.0961 48.9096 43.0961 48.543C43.0961 48.1764 42.7998 47.88 42.4332 47.88H36.4721V45.8913H42.4332C42.7998 45.8913 43.0961 45.5949 43.0961 45.2283C43.0961 44.8617 42.7998 44.5654 42.4332 44.5654H36.4721V42.5766H42.4332C42.7998 42.5766 43.0961 42.2803 43.0961 41.9137C43.0961 41.5471 42.7998 41.2508 42.4332 41.2508H36.4721V39.262H42.4332C42.7998 39.262 43.0961 38.9657 43.0961 38.5991C43.0961 38.2325 42.7998 37.9361 42.4332 37.9361H36.4721V35.9473H42.4332C42.7998 35.9473 43.0961 35.651 43.0961 35.2844C43.0961 34.9178 42.7998 34.6215 42.4332 34.6215H36.4721V34.6122V32.6327H42.4332C42.7998 32.6327 43.0961 32.3364 43.0961 31.9698C43.0961 31.6032 42.7998 31.3069 42.4332 31.3069H36.3528C36.0803 30.5319 35.3491 29.9717 34.4833 29.9717H27.8541V15.3979H47.7386V19.3781C47.7386 19.7447 48.0349 20.0411 48.4015 20.0411H52.3784V52.5093H36.4721V51.8483Z" fill="#B16D03"/>
</svg>
