<svg width="48" height="48" viewBox="0 0 48 48" fill="none" xmlns="http://www.w3.org/2000/svg">
<path d="M47.2321 25.9281L45.7688 25.1103H46.2415C47.07 25.1103 47.7415 24.439 47.7415 23.6109C47.7415 23.6012 47.7413 13.9709 47.7413 13.9817C47.7401 13.4505 47.4559 12.9469 46.9756 12.6775L24.7341 0.20193C24.2556 -0.0664582 24.7947 0.0101036 14.3701 0.0101036C13.5441 0.0101036 12.871 0.679012 12.8702 1.50817C12.8701 1.65801 12.8701 9.49384 12.8701 9.63806H8.06432C7.23632 9.63806 6.56432 10.3095 6.56432 11.1374V19.2661H1.50004C0.669416 19.2661 0.000791666 19.9398 4.16666e-05 20.7645C-5.20833e-05 20.8475 4.16666e-05 30.3347 4.16666e-05 30.3913C4.16666e-05 30.9343 0.29376 31.4349 0.768041 31.7L29.5738 47.7993C30.0508 48.0659 29.4976 47.99 39.9357 47.99C40.7642 47.99 41.4357 47.3187 41.4357 46.4906V38.3621H46.5C47.3285 38.3621 48 37.6907 48 36.8627C48 34.9517 48 30.0661 48 27.2368C48 26.6977 47.7093 26.1948 47.2321 25.9281V25.9281ZM23.608 3.00885L40.5034 12.4857H37.0039L20.1085 3.00885H23.608ZM44.7415 15.4844V22.1115H40.4034L38.1117 20.8308V15.4844H44.7415ZM15.8701 4.07013L35.1117 14.863V19.1541C16.848 8.94675 18.2526 9.63806 17.6942 9.63806H15.8701V4.07013ZM17.3034 12.6368L40.7437 25.7374H37.261L13.8207 12.6368H17.3034ZM30.6969 35.3655C29.7379 34.8295 8.08925 22.7303 7.25657 22.2649H10.7392L34.1795 35.3655H30.6969ZM9.56432 13.6937C10.9538 14.4703 34.241 27.4852 35.3702 28.1164V32.5953L11.862 19.4568C11.4298 19.2152 11.2228 19.2661 9.56432 19.2661V13.6937ZM3.00004 29.5118V23.3216L28.8059 37.7443V43.9346L3.00004 29.5118ZM38.4358 44.9914H31.8059V38.3642H38.4358V44.9914ZM45 35.3634H40.323L38.3702 34.2719V28.7362H45.0001V35.3634H45Z" fill="white"/>
</svg>
