<svg id="Layer_1" data-name="Layer 1" xmlns="http://www.w3.org/2000/svg" viewBox="0 0 98.39 98.44"><title>home</title><path d="M96.55,43.6h0L56.39,3.44a9.05,9.05,0,0,0-12.8,0l0,0L3.44,43.57h0A9.06,9.06,0,0,0,9.44,59h1.88v29.6a10.63,10.63,0,0,0,10.6,10.61h15.7a2.89,2.89,0,0,0,2.89-2.89V73.17a4.84,4.84,0,0,1,4.84-4.84h9.26a4.84,4.84,0,0,1,4.84,4.84V96.33a2.89,2.89,0,0,0,2.89,2.89H78.05a10.63,10.63,0,0,0,10.6-10.61V59.06h1.49A9.06,9.06,0,0,0,96.55,43.6Zm-4.08,8.73a3.3,3.3,0,0,1-2.33,1H85.77a2.9,2.9,0,0,0-2.89,2.88v32.4a4.84,4.84,0,0,1-4.83,4.84H65.22V73.17A10.62,10.62,0,0,0,54.61,62.56H45.35A10.62,10.62,0,0,0,34.74,73.17V93.45H21.91a4.84,4.84,0,0,1-4.83-4.84V56.18a2.9,2.9,0,0,0-2.89-2.88H9.76A3.29,3.29,0,0,1,6.53,50a3.33,3.33,0,0,1,1-2.27h0L47.65,7.51a3.31,3.31,0,0,1,4.66,0L92.45,47.66h0a3.29,3.29,0,0,1,0,4.67Z" transform="translate(-0.8 -0.78)" fill="#d79746"/></svg>