<svg width="71" height="71" viewBox="0 0 71 71" fill="none" xmlns="http://www.w3.org/2000/svg">
<circle cx="35.5" cy="35.5" r="35.5" fill="#FFF9F0"/>
<circle cx="35.5001" cy="35.5" r="31.6622" fill="#FFF5E6"/>
<path d="M24.3211 18C23.1751 18 22.076 18.4553 21.2656 19.2656C20.4553 20.076 20 21.1751 20 22.3211V27.1224C20 27.6898 20.1118 28.2517 20.3289 28.776C20.5461 29.3003 20.8644 29.7766 21.2656 30.1779C22.076 30.9882 23.1751 31.4435 24.3211 31.4435H42.5659C43.1333 31.4435 43.6952 31.3317 44.2195 31.1146C44.7438 30.8974 45.2201 30.5791 45.6214 30.1779C46.0226 29.7766 46.3409 29.3003 46.5581 28.776C46.7752 28.2517 46.887 27.6898 46.887 27.1224V22.3211C46.887 21.1751 46.4317 20.076 45.6214 19.2656C44.811 18.4553 43.7119 18 42.5659 18H24.3211ZM22.8807 22.3211C22.8807 21.9391 23.0325 21.5727 23.3026 21.3026C23.5727 21.0325 23.9391 20.8807 24.3211 20.8807H42.5659C42.9479 20.8807 43.3142 21.0325 43.5844 21.3026C43.8545 21.5727 44.0062 21.9391 44.0062 22.3211V27.1224C44.0062 27.5044 43.8545 27.8707 43.5844 28.1409C43.3142 28.411 42.9479 28.5627 42.5659 28.5627H24.3211C23.9391 28.5627 23.5727 28.411 23.3026 28.1409C23.0325 27.8707 22.8807 27.5044 22.8807 27.1224V22.3211Z" fill="#B16D03" stroke="#FFF5E5"/>
<path d="M29.027 42.9665C28.2837 42.9665 27.6826 43.6118 27.6826 44.4069C27.6826 45.202 28.2837 45.8472 29.027 45.8472H37.8613C38.6045 45.8472 39.2056 45.202 39.2056 44.4069C39.2056 43.6118 38.6045 42.9665 37.8613 42.9665H29.027Z" fill="#B16D03" stroke="#FFF5E5"/>
<path d="M45.644 43.8211L45.5038 43.9824C45.2599 44.2264 44.9366 44.3747 44.5926 44.4004C44.2486 44.4262 43.9069 44.3276 43.6294 44.1226L43.4681 43.9824L39.6271 40.1414C39.3831 39.8976 39.2348 39.5742 39.2091 39.2303C39.1834 38.8863 39.2819 38.5445 39.4869 38.267L39.6271 38.1057L43.4681 34.2647C43.7254 34.0094 44.0696 33.8605 44.4319 33.8477C44.7942 33.8349 45.148 33.9593 45.4227 34.1959C45.6973 34.4325 45.8727 34.764 45.9137 35.1242C45.9547 35.4844 45.8584 35.8468 45.644 36.1391L45.5038 36.3004L44.123 37.6851H47.0037C47.5977 37.6849 48.1705 37.4645 48.6114 37.0665C49.0524 36.6685 49.3301 36.1212 49.3909 35.5303L49.4043 35.2845V30.9634C49.4045 30.5984 49.5431 30.2471 49.7922 29.9805C50.0414 29.7138 50.3824 29.5517 50.7465 29.5268C51.1106 29.5019 51.4706 29.6162 51.7537 29.8465C52.0368 30.0768 52.2219 30.4059 52.2716 30.7675L52.2851 30.9634V35.2845C52.2851 36.6297 51.7718 37.9242 50.85 38.9039C49.9281 39.8836 48.6672 40.4746 47.3244 40.5563L47.0037 40.5659H44.1249L45.5038 41.9467C45.7477 42.1906 45.8961 42.5139 45.9218 42.8579C45.9475 43.2019 45.8489 43.5437 45.644 43.8211Z" fill="#B16D03" stroke="#FFF5E5"/>
<path d="M46.887 49.2081V45.3172L46.862 45.3402C46.0842 46.12 45.0183 46.4349 44.0062 46.2909V49.2081C44.0062 49.5901 43.8545 49.9565 43.5844 50.2266C43.3142 50.4967 42.9479 50.6485 42.5659 50.6485H24.3211C23.9391 50.6485 23.5727 50.4967 23.3026 50.2266C23.0325 49.9565 22.8807 49.5901 22.8807 49.2081V39.6056C22.8807 39.2236 23.0325 38.8572 23.3026 38.5871C23.5727 38.317 23.9391 38.1652 24.3211 38.1652H37.4228C37.5342 37.7965 37.707 37.4431 37.9451 37.1224L37.9874 37.0648L38.2179 36.7959L39.7312 35.2845H24.3211C23.1751 35.2845 22.076 35.7398 21.2656 36.5501C20.4553 37.3605 20 38.4596 20 39.6056V49.2081C20 50.3542 20.4553 51.4533 21.2656 52.2636C22.076 53.074 23.1751 53.5292 24.3211 53.5292H42.5659C43.7119 53.5292 44.811 53.074 45.6214 52.2636C46.4317 51.4533 46.887 50.3542 46.887 49.2081Z" fill="#B16D03" stroke="#FFF5E5"/>
</svg>
