<svg width="100" height="100" viewBox="0 0 100 100" fill="none" xmlns="http://www.w3.org/2000/svg">
<rect width="100" height="100" fill="white"/>
<circle cx="50" cy="50" r="46" fill="#FFF9F0"/>
<circle cx="49.9997" cy="50" r="41.027" fill="#FFF5E6"/>
<path d="M71.2961 51.7674L69.9548 51.0178H70.3881C71.1475 51.0178 71.7631 50.4024 71.7631 49.6433C71.7631 49.6344 71.7628 40.8066 71.7628 40.8165C71.7618 40.3296 71.5012 39.868 71.061 39.621L50.6729 28.1851C50.2343 27.9391 50.7285 28.0093 41.1726 28.0093C40.4154 28.0093 39.7984 28.6224 39.7977 29.3825C39.7976 29.5198 39.7976 36.7027 39.7976 36.8349H35.3923C34.6333 36.8349 34.0173 37.4504 34.0173 38.2093V45.6606H29.375C28.6136 45.6606 28.0007 46.2781 28 47.0341C28 47.1102 28 55.8068 28 55.8587C28 56.3565 28.2693 56.8154 28.704 57.0583L55.1093 71.816C55.5466 72.0604 55.0395 71.9908 64.6077 71.9908C65.3672 71.9908 65.9827 71.3754 65.9827 70.6164V63.1652H70.625C71.3844 63.1652 72 62.5498 72 61.7908C72 60.0391 72 55.5606 72 52.9671C72 52.4729 71.7335 52.0119 71.2961 51.7674V51.7674ZM49.6406 30.7581L65.1281 39.4452H61.9202L46.4328 30.7581H49.6406ZM69.0131 42.194V48.2689H65.0364L62.9357 47.0949V42.194H69.0131ZM42.5476 31.731L60.1858 41.6244V45.5579C43.444 36.2012 44.7315 36.8349 44.2197 36.8349H42.5476V31.731ZM43.8614 39.5837L65.3484 51.5926H62.156L40.6689 39.5837H43.8614ZM56.1388 60.4183C55.2597 59.9271 35.4151 48.8361 34.6519 48.4095H37.8443L59.3312 60.4183H56.1388ZM36.7673 40.5525C38.041 41.2644 59.3876 53.1948 60.4227 53.7733V57.879L38.8735 45.8354C38.4774 45.614 38.2875 45.6606 36.7673 45.6606V40.5525ZM30.75 55.0525V49.3782L54.4054 62.599V68.2734L30.75 55.0525ZM63.2328 69.2421H57.1554V63.1672H63.2328V69.2421ZM69.25 60.4164H64.9628L63.1727 59.416V54.3415H69.2501V60.4164H69.25Z" fill="#B16D03"/>
</svg>
