<?xml version="1.0" encoding="utf-8"?>
<svg width="200" height="200" viewBox="0 0 200 200" fill="none" xmlns="http://www.w3.org/2000/svg">
  <g>
    <g transform="translate(40 40)">
      <path d="M115.01 40.1915C114.896 40.1385 114.781 40.0987 114.68 40.0192C114.094 39.5818 113.534 39.1047 112.924 38.7203C111.702 37.9515 110.379 37.3949 108.941 37.2756C107.821 37.1828 106.701 37.143 105.581 37.143C104.678 37.143 103.749 37.1563 102.858 37.3153C101.484 37.5672 100.148 37.9913 98.8878 38.6408C97.3481 39.436 95.8719 40.324 94.5485 41.5037C93.6196 42.3387 92.6271 43.0942 91.7363 43.969C90.5147 45.1618 89.344 46.421 88.1606 47.6536C87.7661 48.0645 87.3716 48.4621 87.028 48.8995C85.8573 50.4105 84.7248 51.948 83.5796 53.4722C82.1416 55.3808 80.7419 57.3292 79.2657 59.1981C78.4005 60.2982 77.4079 61.3055 76.4535 62.3526C76.339 62.4851 76.1608 62.5646 75.9318 62.7237C75.8936 62.3923 75.8554 62.1803 75.8554 61.9682C75.8554 61.6368 75.9063 61.3055 75.9063 60.9741C75.9063 57.1702 75.9063 53.3795 75.9063 49.5755C75.9063 48.8333 75.9191 48.0778 75.8936 47.3355C75.83 45.639 75.7282 43.9424 75.6646 42.2459C75.6391 41.4109 75.69 40.5626 75.6391 39.7276C75.601 38.9854 75.5119 38.2299 75.3973 37.5009C75.3083 36.9442 74.9901 36.5068 74.4939 36.2948C74.0612 36.1224 73.6031 36.0032 73.145 35.9634C72.0507 35.8574 71.0708 36.2682 70.1292 36.8117C69.7856 37.0105 69.6583 37.2756 69.6711 37.6732C69.722 39.1974 69.4929 40.6952 69.2002 42.1929C68.9203 43.5978 68.4367 44.9365 67.8768 46.2354C67.2151 47.7597 66.5407 49.2839 65.8663 50.8081C65.0137 52.7565 64.1738 54.7049 63.2958 56.6267C62.8886 57.528 62.3796 58.363 61.7179 59.092C61.3616 59.4897 60.8653 59.4897 60.6872 59.039C60.5472 58.6944 60.4072 58.3233 60.3945 57.9654C60.3309 56.693 60.2927 55.4074 60.2927 54.1349C60.2927 53.2072 60.3436 52.2794 60.3818 51.3648C60.4072 50.6888 60.4581 49.9996 60.509 49.3237C60.6872 46.7656 60.7254 44.2075 60.5217 41.6495C60.4199 40.3506 60.14 39.0914 59.5037 37.9383C59.1347 37.2491 58.6257 36.6924 57.9767 36.2815C56.8442 35.579 55.5971 35.579 54.3501 35.8309C54.1719 35.8706 53.9683 35.9634 53.8411 36.0827C53.3575 36.5466 52.8358 36.984 52.4541 37.5141C50.9525 39.5818 50.2272 42.0471 49.3364 44.4196C49.0183 45.2679 48.7256 46.1161 48.4075 46.9512C48.3311 47.1367 48.2548 47.3488 47.9876 47.4151C47.9748 47.2693 47.9494 47.1632 47.9494 47.0439C47.9494 44.6979 47.9367 42.3652 47.9494 40.0192C47.9494 39.8204 48.0257 39.5818 48.1403 39.4228C48.9674 38.2961 49.8072 37.196 50.6344 36.0827C51.6524 34.7308 52.7213 33.4186 53.6629 32.0136C54.4773 30.8075 55.1518 29.4953 55.9026 28.2362C57.0351 26.3408 58.1294 24.4322 58.9438 22.3646C59.5292 20.8801 60.14 19.3956 60.5981 17.8714C61.1071 16.2013 61.5398 14.5048 61.8452 12.7552C62.0233 11.7744 62.0615 10.7936 62.1506 9.8128C62.2651 8.63317 62.176 7.44029 62.176 6.24741C62.176 5.16057 61.9724 4.11348 61.5525 3.10616C60.7763 1.2108 59.0965 -0.0881103 57.1623 0.00466883C56.8697 0.0179229 56.5643 0.00466883 56.2716 0.00466883C54.9736 0.0311774 53.7775 0.455313 52.6577 1.10477C51.1434 1.9928 50.0108 3.27846 49.0183 4.73643C47.8221 6.5125 46.9314 8.44761 46.2061 10.4888C45.6716 11.9732 45.1499 13.4577 44.7808 14.9952C44.6154 15.7242 44.4754 16.4532 44.31 17.1689C44.1573 17.8979 43.9537 18.6136 43.8519 19.3558C43.7119 20.3101 43.6483 21.2777 43.5592 22.2453C43.3938 24.1804 43.2284 26.1022 43.0757 28.0374C43.0248 28.7133 42.9739 29.4025 42.923 30.0785C42.8339 31.2581 42.7448 32.451 42.643 33.6306C42.643 33.6572 42.643 33.6704 42.6303 33.6969C42.3504 34.4789 42.414 35.3139 42.414 36.1224C42.414 37.2491 42.4013 38.3757 42.414 39.5023C42.4394 41.0398 41.8923 42.3254 40.887 43.4255C39.6908 44.7509 38.342 45.8908 36.9804 47.0174C34.9953 48.6344 32.9084 50.0924 30.7069 51.4046C28.989 52.4251 27.2457 53.3529 25.4133 54.1349C23.5936 54.9169 21.723 55.5134 19.7634 55.8315C19.1144 55.9375 18.4654 56.0568 17.8164 56.0701C16.0604 56.1098 14.2916 56.0966 12.5355 56.0833C11.683 56.0833 10.8558 55.8315 10.0796 55.4736C8.33626 54.6784 7.01285 53.3795 5.95667 51.7624C5.04047 50.3575 4.48056 48.7935 4.26424 47.1102C4.17516 46.3945 4.16244 45.639 4.27696 44.9365C4.53146 43.3327 5.25679 41.941 6.3766 40.8012C7.0892 40.0722 7.83998 39.383 8.52713 38.654C8.79436 38.3757 8.98524 38.031 9.16339 37.6732C9.35426 37.3021 9.25246 37.1033 8.84526 37.1298C8.28536 37.1563 7.7 37.2358 7.15283 37.3683C6.1221 37.6334 5.29497 38.2829 4.49329 38.9854C3.19531 40.218 2.13913 41.6495 1.35018 43.3062C1.35018 43.3062 1.35018 43.3062 1.35018 43.3062C1.35018 43.3062 -1.95834 48.3296 1.78283 53.8831C2.27911 54.7844 2.90264 55.6062 3.62796 56.3484C4.54417 57.2895 5.61307 58.0582 6.77106 58.6811C8.70527 59.715 10.7667 60.2186 12.9173 60.3379C14.1898 60.4042 15.4495 60.2717 16.7221 60.1259C17.9182 59.9801 19.1144 59.768 20.2723 59.4632C21.1631 59.2246 22.0411 58.9065 22.9319 58.6546C24.7516 58.1245 26.4695 57.3027 28.0983 56.3484C30.0579 55.2085 31.9285 53.9229 33.8245 52.6637C35.5679 51.5106 37.1076 50.1057 38.6346 48.6609C39.5635 47.7862 40.5179 46.9512 41.4723 46.1161C41.6886 45.9306 41.9558 45.8113 42.3122 45.586C42.3249 45.9703 42.3376 46.2354 42.3376 46.4873C42.3885 50.0659 42.4267 53.6313 42.4776 57.2099C42.4776 57.4087 42.503 57.6075 42.5285 57.8064C42.5921 58.4028 42.7194 58.9992 42.6812 59.5824C42.643 60.3379 43.012 60.7223 43.5847 61.0006C44.0428 61.226 46.2442 61.1994 46.715 60.9874C47.4913 60.6295 47.7585 59.9138 47.9239 59.145C48.0766 58.4426 48.1148 57.7136 48.2166 56.9979C48.2293 56.8918 48.2675 56.7858 48.2929 56.6798C48.5093 55.8978 48.751 55.1158 48.9165 54.3205C49.171 53.1409 49.3491 51.948 49.6291 50.7684C49.8963 49.6683 50.2526 48.5814 50.558 47.4813C51.1688 45.2811 51.9196 43.1207 52.8867 41.053C53.243 40.2975 53.6629 39.5818 54.2228 38.9854C54.3501 38.8528 54.4773 38.6673 54.7318 38.7998C54.8336 39.1842 54.9609 39.5818 55.0245 39.9927C55.0754 40.3108 55.0627 40.6554 55.0627 40.9867C55.0627 42.2061 55.0627 43.4123 55.0499 44.6317C55.0499 45.0028 55.0372 45.3872 55.0118 45.7583C54.9481 46.6331 54.8209 47.5211 54.8209 48.3959C54.8463 50.6888 54.7191 52.9686 55.0118 55.2748C55.2026 56.799 55.4444 58.2703 56.0425 59.662C56.3479 60.3777 56.7678 61.0139 57.4168 61.438C58.5239 62.1803 59.7582 62.167 60.9798 61.9417C62.2778 61.7031 63.1176 60.7355 63.8302 59.662C65.1664 57.6606 66.0571 55.4206 66.9479 53.1806C67.5332 51.6962 68.1059 50.2117 68.7294 48.7405C68.933 48.2633 69.1366 47.7464 69.6965 47.2958C69.6965 47.7199 69.6965 47.9982 69.6965 48.2766C69.6965 48.714 69.6965 49.1646 69.7219 49.602C69.7856 50.6756 69.9128 51.7492 69.9255 52.836C69.9383 54.97 70.0146 57.1039 69.9764 59.2511C69.9383 61.5971 69.9637 63.9298 69.951 66.2758C69.951 66.5409 69.8874 66.8457 69.7601 67.0843C69.5947 67.3892 69.3402 67.641 69.1111 67.8928C68.0804 69.0592 67.0242 70.2123 66.0062 71.3919C64.721 72.8632 63.5121 74.3874 62.405 76.0177C60.6871 78.5492 59.1856 81.2001 58.2567 84.1558C57.7349 85.8391 57.4041 87.5621 57.3532 89.3382C57.3277 90.0937 57.3405 90.8359 57.3532 91.5914C57.3532 93.4867 58.1294 94.9977 59.4655 96.2171C60.0127 96.7208 60.6362 97.1052 61.387 97.1582C62.4559 97.2377 63.4994 97.1051 64.5301 96.7738C66.4516 96.1641 68.0804 95.0773 69.4038 93.4602C70.3327 92.3336 71.0835 91.0877 71.7325 89.7756C72.4451 88.3043 73.005 86.7536 73.4504 85.1763C73.8194 83.8907 74.1121 82.5785 74.3921 81.2663C74.5956 80.2988 74.7229 79.318 74.8883 78.3504C74.9265 78.1383 74.9138 77.913 74.9265 77.6877C74.952 77.4226 74.9901 77.1575 75.0156 76.9057C75.0665 76.4286 75.1301 75.9514 75.181 75.461C75.2065 75.1959 75.1555 74.9176 75.2192 74.6657C75.5373 73.2078 75.4101 71.7233 75.5373 70.2521C75.6518 69.0062 75.6137 67.7338 75.6773 66.4879C75.69 66.2228 75.7918 65.9179 75.9572 65.7059C76.3135 65.2155 76.6953 64.7383 77.1279 64.3142C80.1819 61.3187 82.9306 58.0052 85.7555 54.7711C86.4936 53.9229 87.1553 53.0083 87.8552 52.1203C88.5932 51.1792 89.2676 50.1852 90.0566 49.2971C92.5253 46.5137 95.1975 43.9689 98.417 42.1398C99.4859 41.5302 100.593 41.0265 101.764 40.7349C103.405 40.324 105.085 40.377 106.752 40.5493C108.852 40.7614 110.633 41.7157 112.198 43.1472C112.198 43.1472 115.01 40.1915 115.01 40.1915ZM48.2673 32.1597C48.2928 31.3246 48.3946 30.4896 48.4582 29.6546C48.5346 28.687 48.6109 27.7195 48.6873 26.7652C48.7763 25.7313 48.8527 24.6975 48.9672 23.6769C49.1326 22.2853 49.3235 20.8803 49.5144 19.4886C49.6289 18.6668 49.7434 17.8318 49.8834 17.0233C50.0616 16.069 50.2524 15.128 50.4688 14.1869C50.8123 12.7555 51.1177 11.3108 51.5377 9.9058C52.1739 7.85139 52.912 5.8235 54.1463 4.06069C54.7062 3.26543 55.3552 2.57621 56.2459 2.20509C57.3148 1.75445 58.7146 1.99303 59.389 3.14614C59.9362 4.08719 60.2671 5.09451 60.2925 6.19462C60.318 7.28146 60.3434 8.35506 60.2798 9.4419C60.2162 10.7143 60.0126 11.9735 59.7326 13.2194C58.9946 16.5197 57.862 19.6609 56.475 22.7094C55.3425 25.2012 54.0572 27.6134 52.6447 29.9329C51.9321 31.0993 51.2068 32.2657 50.4433 33.4056C50.0361 34.0152 49.5398 34.5587 49.0563 35.1153C48.8781 35.3274 48.6236 35.46 48.3691 35.672C48.2928 35.513 48.2419 35.46 48.2419 35.4069C48.2419 34.3201 48.2292 33.2332 48.2673 32.1597C48.2673 32.1597 48.2673 32.1597 48.2673 32.1597ZM69.7349 75.567C69.6968 75.8321 69.7095 76.0971 69.7095 76.3622C69.7095 77.0249 69.7095 77.6877 69.5059 78.3239C69.455 78.5094 69.455 78.7215 69.455 78.9203C69.4423 79.4505 69.4804 79.9806 69.2514 80.4843C69.175 80.6566 69.2259 80.8819 69.2005 81.0675C69.1496 81.4519 69.086 81.8495 69.0223 82.2339C68.9205 82.817 68.8187 83.4002 68.7297 83.9834C68.4497 85.7462 67.9534 87.4428 67.3426 89.1128C66.8209 90.5443 66.2228 91.9227 65.4084 93.1951C65.0139 93.8048 64.5813 94.3615 63.9832 94.7856C63.5887 95.0639 63.1688 95.2495 62.6725 95.223C62.3799 95.2097 62.0744 95.1965 61.7818 95.223C60.8656 95.329 60.3566 94.7856 60.0003 94.0301C59.2622 92.4529 59.1604 90.7696 59.3386 89.0465C59.4276 88.238 59.5549 87.4295 59.6821 86.6343C59.7458 86.2234 59.8476 85.8125 59.9621 85.4149C60.6238 83.1484 61.4636 80.9747 62.7107 78.9866C63.3851 77.913 64.0977 76.8659 64.8485 75.8586C65.752 74.6392 66.6936 73.4463 67.6735 72.2932C68.1443 71.7365 68.7297 71.2859 69.2768 70.7955C69.4295 70.6629 69.6331 70.6231 69.9131 70.4773C69.9385 70.8087 69.9767 70.981 69.9767 71.1533C69.964 72.6245 69.9767 74.0957 69.7349 75.567C69.7349 75.567 69.7349 75.567 69.7349 75.567Z" fill="#BD9848" transform="translate(0 1.476)" />
      <path d="M0.0381737 9.82138C0.0381737 9.79487 0.0381737 9.76836 0.0508995 9.75511C0.814404 9.01288 0.903481 8.03206 0.916203 7.03799C0.928928 5.20891 0.903477 3.37983 0.928928 1.53749C0.941654 0.861526 0.763504 0.344604 0 0C0.903481 0 1.65426 0 2.44321 0C2.26506 0.278336 2.04874 0.503662 1.98511 0.755493C1.90876 1.04709 1.94694 1.36518 1.94694 1.67004C1.94694 3.30031 1.93421 4.93057 1.94694 6.5741C1.94694 7.76698 1.64154 8.78756 0.661705 9.51654C0.559906 9.58281 0.496281 9.71535 0.41993 9.82139C0.292675 9.82138 0.165424 9.82138 0.0381737 9.82138C0.0381737 9.82138 0.0381737 9.82138 0.0381737 9.82138Z" fill="#BD9848" fill-rule="evenodd" transform="translate(43.457 110.179)" />
      <path d="M3.62666 0.0422821C4.50469 0.0422821 5.26819 0.0422821 6.04442 0.0422821C6.01896 0.121811 6.01896 0.174828 5.99352 0.18808C5.47179 0.545944 5.44633 0.559196 5.62448 1.1954C5.8917 2.1497 6.19711 3.0775 6.48978 4.01855C6.68066 4.64149 6.88426 5.26444 7.21511 5.9139C7.39327 5.41024 7.59687 4.91983 7.76229 4.41618C8.11859 3.31607 8.46217 2.20271 8.81847 1.08936C9.00935 0.506172 9.00935 0.466415 8.44944 0.0422745C8.98389 0.0422745 9.4929 0.0422745 10.1037 0.0422745C9.36565 0.731499 9.21294 1.60628 8.92027 2.41479C8.33492 4.04506 7.78773 5.68858 7.21511 7.31886C7.13876 7.51766 7.03695 7.70322 6.89698 8.02132C6.75701 7.76949 6.64248 7.6237 6.57886 7.46465C6.24801 6.47058 5.9426 5.46326 5.62447 4.45593C5.4845 4.04506 5.31907 3.64743 5.11547 3.13051C4.61919 3.96552 4.45377 4.8138 4.16109 5.59579C3.88114 6.36454 3.58847 7.14654 3.29579 7.9418C2.87587 7.76949 2.88859 7.37186 2.78679 7.09352C2.43049 6.1127 2.13781 5.10538 1.80696 4.11132C1.527 3.26305 1.20888 2.41478 0.928928 1.56651C0.750778 0.996574 0.58535 0.426643 0 0.0952911C0.407204 -0.0240021 0.801678 0.00251007 1.18343 0.00251007C1.56518 0.00251007 1.94693 0.00251007 2.39231 0.00251007C2.18871 0.227829 2.03601 0.400131 1.84513 0.612198C2.37959 2.30874 2.92676 4.01854 3.46122 5.72832C3.51212 5.74158 3.56301 5.74158 3.61392 5.75484C3.72845 5.48975 3.84297 5.23792 3.94477 4.95959C4.21199 4.17758 4.45377 3.36908 4.74644 2.58707C4.83552 2.33524 4.84824 2.12318 4.75916 1.88461C4.64464 1.57976 4.55557 1.2484 4.41559 0.956802C4.30106 0.731483 4.12291 0.545929 3.97021 0.347115C3.88116 0.280861 3.79208 0.20134 3.62666 0.0422821C3.62666 0.0422821 3.62666 0.0422821 3.62666 0.0422821Z" fill="#BD9848" fill-rule="evenodd" transform="translate(54.516 110.189)" />
      <path d="M1.84514 3.51237C2.03601 3.53888 2.15054 3.57864 2.27779 3.57864C3.20672 3.57864 4.14837 3.59189 5.0773 3.57864C5.56086 3.57864 5.62448 3.51237 5.63721 2.99545C5.64993 2.39901 5.62448 1.80257 5.64993 1.20613C5.67538 0.689217 5.52268 0.304848 4.91188 0.0397644C5.78991 0.0397644 6.52796 0.0397644 7.38054 0.0397644C6.82064 0.291595 6.76974 0.702469 6.76974 1.17962C6.78246 3.00871 6.78246 4.85104 6.76974 6.68012C6.76974 7.14402 6.75701 7.58141 7.43144 7.63443C6.87154 7.85976 5.44633 7.87301 4.8737 7.64768C5.63721 7.54165 5.66265 7.03799 5.63721 6.48131C5.61176 5.92463 5.63721 5.38121 5.63721 4.82453C5.63721 4.61247 5.61176 4.4004 5.59903 4.13531C4.35197 4.13531 3.15582 4.13531 1.90876 4.13531C1.88331 4.32088 1.84513 4.47992 1.84513 4.65223C1.83241 5.31494 1.83241 5.97765 1.84513 6.64037C1.84513 7.4091 1.84513 7.4091 2.50684 7.66094C2.12509 7.8465 0.827129 7.88626 0.0636253 7.74046C0.0763512 7.7007 0.0890751 7.63443 0.114525 7.63443C0.699879 7.4091 0.712603 7.4091 0.712603 6.75966C0.712603 4.94382 0.699877 3.14125 0.725328 1.32542C0.738054 0.782005 0.648977 0.318108 0 0C0.916204 0 1.69243 0 2.58319 0C2.37959 0.14579 2.26506 0.212067 2.17599 0.304848C2.06146 0.424133 1.89604 0.569931 1.89604 0.715721C1.83241 1.64352 1.84514 2.55807 1.84514 3.51237C1.84514 3.51237 1.84514 3.51237 1.84514 3.51237Z" fill="#BD9848" fill-rule="evenodd" transform="translate(12.281 110.191)" />
      <path d="M0 7.64034C0.725334 7.34875 0.738052 7.34875 0.738052 6.60651C0.738052 4.81718 0.725334 3.02786 0.750771 1.25179C0.750771 0.734871 0.725319 0.284233 0.101799 0.00588989C1.23434 0.00588989 2.23961 -0.00736237 3.2449 0.00588989C3.57574 0.00588989 3.91932 0.0456467 4.25018 0.138435C5.07731 0.390266 5.53541 1.22528 5.57359 1.88799C5.62449 2.78928 5.09003 3.67731 4.2629 4.02193C4.16111 4.06168 4.07203 4.0882 3.97023 4.11471C4.07203 4.73766 5.86626 7.0704 6.64249 7.61383C5.80264 8.01146 5.03914 7.79939 4.53014 7.0439C4.02113 6.31491 3.51213 5.58593 2.99041 4.8702C2.88861 4.7244 2.72318 4.59187 2.55775 4.52559C2.1251 4.35329 1.90878 4.49908 1.89605 4.97624C1.88332 5.53292 1.8706 6.07634 1.89605 6.63302C1.9215 7.07041 1.94695 7.53431 2.59592 7.57407C2.15054 7.78613 0.750786 7.81264 0 7.64034C0 7.64034 0 7.64034 0 7.64034ZM1.88378 2.16635C1.88378 2.63025 1.87106 3.09415 1.88378 3.55804C1.8965 3.98219 2.06194 4.19425 2.4055 4.15449C2.77454 4.11473 3.16901 4.04845 3.49986 3.86289C4.32699 3.41225 4.60694 2.44469 4.25064 1.46388C3.97069 0.668625 3.06721 0.178215 2.24008 0.32402C1.97285 0.377037 1.88378 0.536079 1.88378 0.787918C1.88378 1.23856 1.88378 1.70245 1.88378 2.16635C1.88378 2.16635 1.88378 2.16635 1.88378 2.16635Z" fill="#BD9848" transform="translate(94.434 110.266)" />
      <path d="M3.85569 4.37389C4.09747 5.0101 5.739 7.07776 6.57885 7.79349C6.05713 7.92603 5.54812 7.92603 5.06457 7.82C4.84824 7.76698 4.67009 7.50189 4.5174 7.30308C4.00839 6.60061 3.51212 5.88487 3.02856 5.16915C2.83769 4.89082 2.62136 4.65223 2.29051 4.58596C1.99784 4.53294 1.81968 4.65223 1.80696 4.94382C1.78151 5.69932 1.79424 6.44155 1.80696 7.19704C1.81968 7.48864 1.84513 7.48864 2.41776 7.72722C2.03601 7.91278 0.623528 7.93928 0 7.78024C0.636253 7.39586 0.636253 7.39586 0.636253 6.52108C0.636253 4.83779 0.623528 3.16776 0.636253 1.48447C0.636253 0.941055 0.661705 0.424133 0.0636253 0.119293C0.089077 0.0795288 0.114525 0.039772 0.139977 0C1.38703 0.0530167 2.63409 0.0662689 3.86842 0.185562C4.54284 0.251831 5.09002 0.662712 5.3318 1.39169C5.57357 2.10743 5.47178 2.8099 5.00095 3.37983C4.69555 3.75095 4.27562 4.01603 3.85569 4.37389C3.85569 4.37389 3.85569 4.37389 3.85569 4.37389ZM1.79453 0.517036C1.79453 1.47134 1.79453 2.37263 1.79453 3.27392C1.79453 4.36076 1.80726 4.3475 2.82526 4.16195C3.41061 4.05592 3.89417 3.79083 4.09777 3.20764C4.22502 2.84978 4.18684 2.4389 4.21229 2.04128C4.23774 1.5111 3.98324 1.12673 3.60149 0.795372C3.07976 0.357994 2.49441 0.344734 1.79453 0.517036C1.79453 0.517036 1.79453 0.517036 1.79453 0.517036Z" fill="#BD9848" transform="translate(28.734 110.152)" />
      <path d="M0.127235 0C1.73059 0 3.33395 0 4.92458 0C5.10274 0.463898 5.11546 0.622948 5.01366 1.49773C4.92458 1.39169 4.83551 1.33868 4.81007 1.25915C4.63191 0.728981 4.21198 0.49041 3.74116 0.437386C3.11762 0.371117 2.48137 0.424133 1.79422 0.424133C1.7306 1.45796 1.75605 2.45203 1.7815 3.52563C2.35413 3.52563 2.86313 3.53888 3.35941 3.51237C3.65208 3.49913 3.86842 3.31357 3.99567 3.02197C4.05929 2.86292 4.12292 2.71712 4.19926 2.51831C4.36469 2.88943 4.39014 4.14858 4.26289 4.89082C4.21198 4.85106 4.13564 4.82455 4.12292 4.77153C4.03384 4.12207 3.60119 3.96303 3.07946 3.93652C2.68498 3.92326 2.27778 3.93652 1.85786 3.93652C1.81968 4.13533 1.76878 4.28112 1.76878 4.42693C1.75606 5.19566 1.75606 5.97767 1.76878 6.74641C1.7815 7.27658 1.85786 7.36936 2.36686 7.38261C2.88858 7.38261 3.42303 7.34285 3.94477 7.31635C4.60648 7.27658 5.0264 6.87895 5.30635 6.28252C5.3318 6.22949 5.3827 6.17648 5.42088 6.12346C5.56085 6.3753 5.56085 6.3753 5.24273 7.74048C3.51212 7.74048 1.75606 7.74048 0 7.74048C0.0127182 7.68746 0.0127182 7.62119 0.0381699 7.60793C0.62352 7.3561 0.636253 7.3561 0.636253 6.7199C0.636253 4.90407 0.636253 3.1015 0.636253 1.28567C0.610786 0.79525 0.623505 0.3181 0.127235 0C0.127235 0 0.127235 0 0.127235 0Z" fill="#BD9848" fill-rule="evenodd" transform="translate(87.295 110.218)" />
      <path d="M4.49195 2.53154C4.49195 3.43282 4.49195 4.18832 4.49195 4.97032C4.40287 4.93056 4.35197 4.9173 4.33925 4.8908C4.08475 4.14857 3.94477 4.04253 3.20672 4.01602C2.92677 4.01602 2.65954 4.01602 2.37959 4.01602C2.09964 4.00277 1.89604 4.13531 1.90876 4.4269C1.90876 5.28842 1.93421 6.1367 1.97239 6.99822C1.98511 7.27656 2.13781 7.46212 2.41776 7.44887C3.05402 7.43562 3.69027 7.43562 4.3138 7.36935C4.88643 7.31633 5.29363 6.99823 5.47178 6.38853C5.49723 6.30901 5.56086 6.25599 5.68811 6.07043C5.72628 6.309 5.77718 6.44154 5.76446 6.56084C5.58631 7.8465 5.58631 7.8465 4.3647 7.8465C3.18127 7.8465 1.99784 7.8465 0.801682 7.8465C0.59808 7.8465 0.394478 7.83324 0.139977 7.70071C0.190876 7.67419 0.254501 7.64768 0.305401 7.62118C0.814404 7.43562 0.839855 7.43562 0.839855 6.8922C0.852581 5.73908 0.852581 4.59922 0.852581 3.4461C0.852581 2.78339 0.827129 2.12067 0.852581 1.45796C0.878033 0.821762 0.801682 0.278336 0 0C1.67971 0 3.19399 0 4.70827 0C5.20455 0 5.24273 0.0530167 5.29363 0.556679C5.31908 0.874786 5.34453 1.19288 5.38271 1.65678C5.20456 1.47121 5.0773 1.40495 5.03913 1.29891C4.81008 0.662712 4.2629 0.503662 3.72845 0.424133C3.2958 0.357864 2.83769 0.384377 2.39231 0.410889C2.01056 0.424133 1.89604 0.530174 1.88331 0.941055C1.85786 1.64352 1.85786 2.35926 1.88331 3.06173C1.89604 3.47261 1.99784 3.56539 2.39231 3.57865C2.67227 3.5919 2.93949 3.5654 3.21944 3.57865C3.77935 3.60516 4.17382 3.40635 4.30107 2.79665C4.30107 2.77011 4.35197 2.73035 4.49195 2.53154C4.49195 2.53154 4.49195 2.53154 4.49195 2.53154Z" fill="#BD9848" fill-rule="evenodd" transform="translate(47.759 110.152)" />
      <path d="M5.42088 6.2825C5.61176 6.93196 5.59903 7.02473 5.15366 7.81998C3.46122 7.8465 1.75606 7.8465 0 7.74046C0.725334 7.58141 0.699883 7.03799 0.699883 6.50782C0.699883 4.75826 0.687157 3.02197 0.699883 1.2724C0.699883 0.742233 0.58535 0.3181 0.0890808 0.0132523C0.267235 0.0132523 0.445381 0.0132523 0.623535 0.0132523C1.92149 0.0132523 3.20672 0 4.50468 0C5.07731 0 5.11548 0.0530167 5.16638 0.622948C5.19183 0.914543 5.21729 1.21939 5.24273 1.65678C5.06458 1.47121 4.95006 1.40495 4.89915 1.29891C4.60648 0.609688 4.02112 0.463898 3.38486 0.410881C3.02856 0.384369 2.65954 0.397629 2.30324 0.410881C1.87058 0.424126 1.75606 0.516907 1.74333 0.941048C1.71788 1.67003 1.74333 2.39901 1.74333 3.12799C1.74333 3.41959 1.8833 3.57864 2.17599 3.57864C2.51956 3.57864 2.85041 3.60515 3.19399 3.57864C3.61391 3.55213 3.98295 3.40634 4.12292 2.92918C4.14837 2.86291 4.19926 2.79664 4.30107 2.74362C4.42832 3.44609 4.40287 4.13531 4.37742 4.83778C4.32652 4.85104 4.28835 4.85104 4.23745 4.8643C4.18655 4.78477 4.12292 4.70525 4.09747 4.61246C3.99567 4.24135 3.72845 4.06904 3.38487 4.04253C2.96495 4.00277 2.54502 4.01602 2.11237 4.01602C1.85786 4.01602 1.7179 4.17507 1.7179 4.4269C1.7179 5.24866 1.7179 6.05717 1.7179 6.87893C1.7179 7.21029 1.90877 7.43561 2.2269 7.43561C2.82497 7.44886 3.41032 7.44886 4.00841 7.39585C4.56831 7.35609 5.00096 7.03798 5.25546 6.49456C5.30636 6.4283 5.35725 6.36203 5.42088 6.2825C5.42088 6.2825 5.42088 6.2825 5.42088 6.2825Z" fill="#BD9848" fill-rule="evenodd" transform="translate(65.828 110.179)" />
      <path d="M0 7.83325C0.648979 7.5284 0.80168 7.038 0.97983 6.56085C1.78151 4.50644 2.58319 2.45203 3.39759 0.410881C3.44849 0.278336 3.55029 0.172302 3.67754 0C3.75389 0.14579 3.81752 0.238571 3.85569 0.331352C4.69555 2.5183 5.54812 4.70525 6.37525 6.8922C6.52796 7.28983 6.65521 7.67421 7.17693 7.7935C6.66793 7.9658 5.6372 7.99231 5.01367 7.85976C5.3318 7.43562 5.3318 7.43562 5.16637 6.87894C5.05185 6.52108 4.89915 6.18973 4.81007 5.8186C4.73372 5.48725 4.53012 5.40773 4.25017 5.42098C3.63937 5.42098 3.01584 5.43423 2.40504 5.42098C2.07418 5.40773 1.89603 5.58003 1.78151 5.87163C1.61608 6.29576 1.46338 6.73315 1.29796 7.17054C1.14526 7.55492 1.47611 7.64769 1.76878 7.8465C1.15798 7.99231 0.674427 7.93929 0 7.83325C0 7.83325 0 7.83325 0 7.83325ZM4.36428 4.9169C4.21158 3.92284 3.6135 2.41185 3.24447 2.09375C2.87545 3.0348 2.51915 3.94934 2.09922 4.98317C2.92635 4.96992 3.62623 5.06271 4.36428 4.9169C4.36428 4.9169 4.36428 4.9169 4.36428 4.9169Z" fill="#BD9848" transform="translate(20.514 110.086)" />
      <path d="M0.11451 0C0.865295 0 1.6288 0 2.46865 0C1.90874 0.583191 2.25232 1.04709 2.545 1.52424C2.82495 1.98814 3.09217 2.46529 3.37212 2.92918C3.48666 3.128 3.62663 3.32681 3.75388 3.52562C4.18653 3.1545 5.24271 1.51098 5.75172 0.410881C5.59901 0.344604 5.40813 0.251823 5.20454 0.172302C5.24271 0.119286 5.28089 0.0662689 5.31907 0.0265121C5.80262 0.0265121 6.28617 0.0265121 6.84608 0.0265121C6.78245 0.15905 6.76973 0.251831 6.71883 0.304848C5.67537 1.32542 5.01366 2.65085 4.21198 3.85698C4.09746 4.01603 4.08474 4.26785 4.07201 4.47993C4.05929 5.11613 4.05929 5.75233 4.05929 6.40179C4.07201 6.94521 3.90659 7.58142 4.81007 7.66094C3.9066 7.82 3.07947 7.79349 2.26506 7.78024C2.25234 7.74048 2.25234 7.68745 2.23961 7.6477C2.43049 7.58142 2.60863 7.51515 2.87586 7.42237C2.91404 7.13078 2.97766 6.78617 3.01583 6.44155C3.02856 6.33553 3.01583 6.21623 3.01583 6.1102C3.01583 4.08231 3.01583 4.08231 1.87058 2.41226C1.73061 2.21345 1.60336 2.01463 1.4761 1.80257C1.08163 1.16637 0.712601 0.490402 0 0.132545C0.0508881 0.0927811 0.0763397 0.053009 0.11451 0C0.11451 0 0.11451 0 0.11451 0Z" fill="#BD9848" fill-rule="evenodd" transform="translate(100.911 110.218)" />
      <path d="M5.61176 5.89812C5.67538 6.52107 5.30636 7.091 5.36998 7.74046C3.53757 7.74046 1.76879 7.74046 0 7.74046C0.0254517 7.64768 0.0381699 7.58141 0.0509033 7.58141C0.661705 7.39585 0.674438 7.39585 0.674438 6.73314C0.674438 4.90406 0.674438 3.07498 0.687157 1.23264C0.687157 0.742233 0.674438 0.291595 0.19088 0C0.890755 0 1.60336 0 2.43049 0C1.74333 0.318108 1.83241 0.874771 1.83241 1.41821C1.83241 3.16776 1.83241 4.90406 1.83241 6.65362C1.83241 7.31633 1.88331 7.39585 2.50684 7.3826C3.02856 7.3826 3.56301 7.32957 4.08475 7.28982C4.79735 7.23679 5.1791 6.79941 5.36997 6.12344C5.39542 6.04392 5.42088 5.96439 5.44632 5.88487C5.49724 5.89812 5.54813 5.89812 5.61176 5.89812C5.61176 5.89812 5.61176 5.89812 5.61176 5.89812Z" fill="#BD9848" fill-rule="evenodd" transform="translate(73.12 110.218)" />
      <path d="M0 7.59467C0.648972 7.51514 0.725334 7.09101 0.725334 6.56084C0.699875 4.83779 0.712608 3.11474 0.712608 1.39169C0.712608 0.874779 0.725334 0.357864 0.216331 0C0.954376 0 1.69243 0 2.53229 0C1.79424 0.278336 1.74333 0.861526 1.75607 1.48447C1.76879 3.16776 1.75607 4.83779 1.75607 6.52108C1.75607 7.28982 1.85786 7.40911 2.60865 7.39585C3.15582 7.38261 3.703 7.32958 4.25018 7.26331C4.72102 7.19704 5.06459 6.93195 5.23002 6.44155C5.30636 6.22948 5.43361 6.04392 5.53542 5.84511C5.57359 5.85836 5.61176 5.88487 5.64995 5.89812C5.5736 6.34878 5.5227 6.79942 5.43362 7.2368C5.37 7.55491 5.21729 7.79348 4.83554 7.79348C3.3467 7.78023 1.87061 7.79348 0.381767 7.78023C0.279968 7.78023 0.178169 7.74047 0.0763626 7.72721C0.0381699 7.67419 0.0254517 7.63444 0 7.59467C0 7.59467 0 7.59467 0 7.59467Z" fill="#BD9848" fill-rule="evenodd" transform="translate(80.182 110.232)" />
      <path d="M2.48139 7.6477C1.67971 7.83327 0.509003 7.80676 0 7.59468C0.661705 7.52841 0.661705 7.10427 0.661705 6.64037C0.648979 4.81129 0.648979 2.98221 0.661705 1.15312C0.661705 0.689224 0.674431 0.251831 0.178154 0C0.916206 0 1.66699 0 2.54502 0C1.90876 0.238571 1.79424 0.675964 1.80696 1.21939C1.83242 3.00871 1.81969 4.79803 1.80696 6.5741C1.80696 7.09103 1.79424 7.56818 2.48139 7.6477C2.48139 7.6477 2.48139 7.6477 2.48139 7.6477Z" fill="#BD9848" fill-rule="evenodd" transform="translate(36.345 110.245)" />
      <path d="M10.1686 18.3462C8.42531 17.5509 7.10191 16.252 6.04573 14.635C5.12952 13.2301 4.56962 11.6661 4.35329 9.98278C4.26422 9.26706 4.25149 8.51156 4.36602 7.80909C4.62052 6.20533 5.34585 4.81364 6.46565 3.67377C7.17826 2.94479 7.92904 2.25557 8.61619 1.52658C8.88342 1.24825 9.07429 0.903637 9.25244 0.545773C9.44332 0.174656 9.34152 -0.0241547 8.93432 0.00234985C8.37441 0.028862 7.78906 0.108383 7.24188 0.240925C6.21115 0.506008 5.38402 1.15546 4.58234 1.85794C3.19531 3.06408 2.13913 4.49554 1.35018 6.15231C1.35018 6.15231 1.35018 6.15231 1.35018 6.15231C1.35018 6.15231 -1.95834 11.1757 1.78283 16.7292C2.27911 17.6305 2.90264 18.4522 3.62797 19.1945C4.54417 20.1355 5.61308 20.9043 6.77106 21.5272C7.87814 22.1237 9.03612 22.5345 10.2196 22.8129C10.2196 22.8129 10.2196 18.386 10.2196 18.386C10.2068 18.3595 10.1814 18.3462 10.1686 18.3462C10.1686 18.3462 10.1686 18.3462 10.1686 18.3462Z" fill="#BD9848" fill-rule="evenodd" transform="translate(0 38.63)" />
      <path d="M0.0763474 4.17509C1.80695 4.95709 3.13036 6.256 4.19927 7.85976C5.11548 9.26471 5.67538 10.8155 5.8917 12.4855C5.98078 13.2012 5.9935 13.9435 5.87898 14.6592C5.62448 16.2629 4.89915 17.6414 3.77934 18.768C3.06674 19.497 2.32868 20.1729 1.62881 20.9152C1.36158 21.1935 1.17071 21.5381 0.992554 21.8827C0.801674 22.2539 0.903473 22.4527 1.31068 22.4262C1.87058 22.3997 2.44321 22.3201 2.99039 22.1876C4.02112 21.9225 4.84824 21.273 5.64993 20.5706C7.02424 19.3777 8.09315 17.9462 8.86937 16.3027C8.86937 16.3027 8.86937 16.3027 8.86937 16.3027C8.86937 16.3027 12.1779 11.3059 8.43671 5.77885C7.94044 4.87756 7.31691 4.06905 6.59158 3.32681C5.67538 2.38576 4.60648 1.63027 3.44849 1.00732C2.34141 0.410881 1.31068 0.278339 0.127251 0C0.127251 0 0 4.13532 0 4.13532C0.0381699 4.14858 0.0636139 4.16183 0.0763474 4.17509C0.0763474 4.17509 0.0763474 4.17509 0.0763474 4.17509Z" fill="#BD9848" fill-rule="evenodd" transform="translate(109.781 38.871)" />
      <path d="M38.9398 0.0132525C38.838 0.185557 38.7743 0.384371 38.6344 0.503659C37.5782 1.39169 36.8019 2.5183 36.0003 3.63166C35.6949 4.05579 35.2749 4.18833 34.8423 4.2281C33.4807 4.33413 32.17 4.73176 30.8721 5.10288C27.2581 6.13671 23.886 7.71396 20.7429 9.84789C18.9487 11.0673 17.2817 12.4457 15.6783 13.9302C14.0114 15.4809 12.5607 17.2305 11.2118 19.0728C9.58303 21.2863 8.18327 23.6455 7.12709 26.2169C6.59264 27.529 6.05819 28.8545 5.58736 30.1931C5.32013 30.9486 5.15471 31.7439 4.96383 32.5391C4.72206 33.5862 4.48028 34.6333 4.27668 35.6804C4.14943 36.3033 4.06036 36.9395 3.99673 37.5757C3.92038 38.3842 3.8313 39.206 3.8313 40.0145C3.80585 44.2161 3.81858 48.4044 3.80585 52.606C3.80585 53.7724 3.89493 53.7061 2.72422 53.7061C2.36792 53.7061 1.99889 53.6796 1.64259 53.7061C1.14632 53.7326 0.739112 53.4941 0.306461 53.3218C0.0901356 53.229 -0.0116653 53.0434 0.00106049 52.7916C0.00106049 52.6856 0.00106049 52.5663 0.00106049 52.4602C0.00106049 40.4917 0.00106049 28.5231 0.00106049 16.5413C0.00106049 14.1688 0.548238 11.9156 1.48989 9.76837C2.57152 7.34284 4.13671 5.3282 6.14727 3.67142C7.91605 2.21346 9.90116 1.20614 12.0771 0.622949C12.7898 0.437389 13.5024 0.212068 14.2531 0.238576C14.5458 0.25183 14.8512 0.0795252 15.1439 0C23.0843 0.0132525 31.012 0.0132525 38.9398 0.0132525C38.9398 0.0132525 38.9398 0.0132525 38.9398 0.0132525Z" fill="#BD9848" fill-rule="evenodd" transform="translate(10.791 0.698)" />
      <path d="M0.0381699 56.3305C0.687149 55.9859 1.36159 55.6678 1.99784 55.2701C2.95222 54.6737 3.77935 53.9182 4.49194 53.0302C4.64465 52.8446 4.78462 52.7518 5.01367 52.7253C6.03168 52.5795 7.04968 52.3807 8.06769 52.2482C9.3911 52.0759 10.6763 51.7313 11.9488 51.3601C14.2139 50.7107 16.3772 49.7829 18.4768 48.6828C20.7546 47.4899 22.8924 46.0452 24.8775 44.3884C26.7863 42.7979 28.5169 41.0218 30.0821 39.0602C31.5073 37.2709 32.8052 35.3888 33.9123 33.3874C35.0066 31.3993 35.9356 29.3184 36.6482 27.1447C36.9536 26.2036 37.259 25.2758 37.5262 24.3215C37.6789 23.7781 37.7553 23.2082 37.8571 22.6515C37.9589 22.1213 38.0861 21.5779 38.1625 21.0477C38.3279 19.9344 38.5315 18.8343 38.5951 17.7077C38.6969 15.5472 38.7224 13.3868 38.7478 11.2263C38.7733 7.93929 38.7478 4.63898 38.7478 1.35193C38.7478 1.15312 38.7478 0.954308 38.7478 0.755493C38.7606 0.0662727 38.7987 0 39.4732 0C40.2112 0.0132561 40.9493 0.0530167 41.6873 0.0927811C41.8146 0.0927811 41.9291 0.159054 42.0564 0.185562C42.3872 0.265087 42.5654 0.450645 42.5399 0.835018C42.5145 1.13987 42.5399 1.45797 42.5399 1.76281C42.5399 14.2218 42.5399 26.6808 42.5399 39.1397C42.5399 40.823 42.3745 42.4798 41.9418 44.1101C41.3692 46.2705 40.453 48.2322 39.1169 49.9817C37.0936 52.6458 34.5358 54.5279 31.4436 55.628C30.4129 55.9859 29.3567 56.2112 28.2878 56.2907C27.3589 56.3702 26.43 56.4365 25.501 56.4365C17.2043 56.4498 8.92028 56.4365 0.623535 56.4365C0.419937 56.4365 0.203606 56.4365 0 56.4365C0.0381699 56.41 0.0381699 56.3703 0.0381699 56.3305C0.0381699 56.3305 0.0381699 56.3305 0.0381699 56.3305Z" fill="#BD9848" fill-rule="evenodd" transform="translate(65.701 45.392)" />
      <path d="M0.732632 0C0.910781 0.556679 0.999859 1.12661 1.26708 1.55074C1.55976 2.0014 2.10694 2.18695 2.64139 2.35925C2.70502 2.25322 2.76864 2.16044 2.80682 2.06766C2.99769 1.63027 3.07405 1.60376 3.4558 1.8821C3.78665 2.12067 4.07932 2.41226 4.4229 2.63759C5.02098 3.03521 5.65723 3.27379 6.40801 3.08823C6.64979 3.03521 6.94247 3.19427 7.23514 3.26054C6.92974 2.69061 7.00609 2.13393 7.45147 1.60376C7.90957 1.97488 8.3295 2.34599 8.77488 2.65085C9.36023 3.03522 9.98376 3.2738 10.6964 3.08823C11.0908 2.9822 11.269 3.12799 11.6889 3.68467C11.5617 3.7642 11.4599 3.88348 11.3199 3.92325C10.1619 4.21484 9.00393 4.50644 7.85867 3.83047C7.73142 3.75095 7.52782 3.7642 7.37512 3.7907C6.85339 3.91 6.35711 4.0823 5.83539 4.17508C4.83011 4.34738 3.88845 4.24136 3.12495 3.43285C2.95952 3.24728 2.83227 3.00871 2.66684 2.74363C2.61594 2.88942 2.56504 3.03522 2.51414 3.18102C1.45796 3.24728 0.579933 2.73037 0.160005 1.78932C-0.17085 1.08685 0.00730228 0.503662 0.732632 0C0.732632 0 0.732632 0 0.732632 0Z" fill="#BD9848" fill-rule="evenodd" transform="translate(10.772 97.6)" />
      <path d="M0.659045 9.43517C0.251843 9.28938 0.290019 8.86524 0.213668 8.56039C-0.00265789 7.71212 -0.104459 6.83735 0.150043 5.96257C0.188218 5.84328 0.200942 5.69749 0.277293 5.59145C0.54452 5.22034 0.468169 4.83596 0.340919 4.46484C-0.142634 3.07315 -0.142634 1.72122 0.633595 0.42231C0.659045 0.382545 0.646321 0.342789 0.659045 0.289764C0.659045 0.289764 0.646319 0.303017 0.646319 0.303017C1.01535 0.183723 1.35892 -0.0548477 1.79158 0.0114212C2.07153 0.0511856 2.32603 0.117455 2.54235 0.40905C2.37693 0.621117 2.19878 0.833183 2.02063 1.04525C1.448 1.72121 1.06625 2.47671 1.1426 3.43101C1.16805 3.78888 1.07897 4.14674 1.0408 4.54436C1.4989 4.55762 2.09698 4.33231 2.54235 4.88898C2.22423 5.29985 1.91883 5.68423 1.62615 6.08186C1.18077 6.66505 1.02807 7.34101 1.15532 8.06999C1.2444 8.65317 0.888097 9.01104 0.659045 9.43517C0.659045 9.43517 0.659045 9.43517 0.659045 9.43517C0.659045 9.43517 0.659045 9.43517 0.659045 9.43517Z" fill="#BD9848" fill-rule="evenodd" transform="translate(11.036 80.478)" />
      <path d="M0.635121 9.40574C0.55877 9.33947 0.43152 9.29971 0.40607 9.22018C0.0115919 7.92126 -0.242909 6.60909 0.38062 5.29693C0.456971 5.13788 0.43152 4.91255 0.393346 4.74025C0.291545 4.24984 0.15157 3.75943 0.0624933 3.26904C-0.0774832 2.56656 0.0370436 1.86409 0.215194 1.18812C0.253369 1.06882 0.316995 0.949539 0.38062 0.830254C0.889623 -0.0842972 1.60223 -0.256599 2.55661 0.379601C2.41663 0.551903 2.28938 0.71096 2.16213 0.87001C1.98398 1.09534 1.7931 1.29415 1.6404 1.53272C1.24592 2.10265 1.05505 2.73885 1.1314 3.45458C1.1823 3.87872 1.15685 4.2896 0.800546 4.64747C1.41135 4.47517 1.9967 4.38239 2.5566 4.91255C2.37845 5.12462 2.21303 5.32343 2.0476 5.509C1.4368 6.19821 0.991422 6.96696 1.14412 7.93452C1.24592 8.53096 0.889623 8.94184 0.635121 9.40574C0.635121 9.40574 0.635121 9.40574 0.635121 9.40574C0.635121 9.40574 0.635121 9.40574 0.635121 9.40574Z" fill="#BD9848" fill-rule="evenodd" transform="translate(11.048 71.362)" />
      <path d="M9.03629 1.84234C9.03629 2.14719 8.81997 2.27973 8.59092 2.33275C7.95466 2.46529 7.30569 2.61108 6.65671 2.62434C6.22405 2.6376 5.77868 2.4918 5.37148 2.3195C5.01517 2.16045 4.72249 2.14719 4.35347 2.29298C3.36092 2.65086 2.34291 2.84966 1.31218 2.43878C1.05768 2.33275 0.803177 2.21346 0.586851 2.05441C-0.125753 1.53748 -0.189379 0.821762 0.395975 0.0662689C0.777727 0.371117 1.14675 0.675964 1.55396 0.954308C2.21566 1.41821 2.91554 1.72305 3.76812 1.52424C3.98445 1.47121 4.23895 1.65678 4.468 1.72305C4.48072 1.7363 4.49345 1.7363 4.50617 1.74956C4.49345 1.74956 4.48072 1.73631 4.468 1.73631C4.23895 1.21939 4.2644 0.715729 4.5189 0.225327C4.55707 0.15905 4.6207 0.106033 4.7225 0C4.8752 0.132545 5.0279 0.251831 5.16788 0.384377C5.74051 0.888031 6.33858 1.33868 7.08936 1.49773C7.29296 1.55075 7.52201 1.61703 7.71289 1.55075C8.12009 1.41821 8.45094 1.49773 8.78179 1.76282C8.81997 1.82908 8.94722 1.82908 9.03629 1.84234C9.03629 1.84234 9.03629 1.84234 9.03629 1.84234C9.03629 1.84234 9.03629 1.84234 9.03629 1.84234Z" fill="#BD9848" fill-rule="evenodd" transform="translate(22.243 99.191)" />
      <path d="M0.262203 1.8821C-0.119549 1.0736 -0.0940971 0.6362 0.40218 0.0265121C0.694855 0.265083 0.974808 0.516922 1.26748 0.755493C1.96736 1.31217 2.70541 1.76281 3.65979 1.52424C3.8634 1.47121 4.10517 1.57726 4.33422 1.60376C4.37239 1.64352 4.4233 1.69654 4.46147 1.7363C4.4742 1.74955 4.48692 1.74955 4.49965 1.76281C4.48692 1.74956 4.47419 1.74956 4.44875 1.7363C4.41057 1.69654 4.35967 1.64352 4.3215 1.60376C4.3215 1.33868 4.3215 1.07359 4.33422 0.808502C4.33422 0.503662 4.4233 0.251823 4.71597 0C4.86868 0.132545 5.02137 0.265083 5.16135 0.410881C5.67035 0.927795 6.26843 1.29891 6.95559 1.49773C7.17191 1.564 7.43914 1.63027 7.64274 1.564C8.22809 1.35194 8.59711 1.64352 8.96614 2.04115C7.82089 2.71711 6.25571 2.95569 4.80505 2.08091C3.25259 2.78339 1.71286 3.02197 0.262203 1.8821C0.262203 1.8821 0.262203 1.8821 0.262203 1.8821C0.262203 1.8821 0.262203 1.8821 0.262203 1.8821Z" fill="#BD9848" fill-rule="evenodd" transform="translate(48.591 99.164)" />
      <path d="M4.33244 1.57726C4.37061 1.04709 4.17974 0.463898 4.73964 0C4.87962 0.119293 5.03232 0.251831 5.17229 0.397629C5.7322 0.954308 6.38118 1.35194 7.14468 1.51099C7.3101 1.55075 7.50098 1.60377 7.64096 1.55075C8.08633 1.39169 8.45536 1.49773 8.81166 1.78932C8.87529 1.84235 8.97709 1.82909 9.05344 1.8556C9.05344 1.8556 9.04071 1.84235 9.04071 1.84235C9.04071 2.14719 8.82439 2.26648 8.59534 2.33276C8.08633 2.45204 7.56461 2.57133 7.04288 2.6376C6.4448 2.71712 5.85945 2.58458 5.32499 2.29299C5.01959 2.12069 4.76509 2.13394 4.42151 2.23997C3.47986 2.55807 2.50003 2.84966 1.50747 2.47855C1.07482 2.3195 0.680344 2.05441 0.260418 1.82909C0.260418 1.82909 0.273144 1.84234 0.273144 1.84234C0.196793 1.65678 0.0822678 1.49773 0.0440941 1.29891C-0.0449829 0.835014 -0.0322571 0.371117 0.400394 0C0.680347 0.238571 0.973022 0.49041 1.2657 0.715736C2.00375 1.31217 2.79271 1.73631 3.78526 1.47123C3.95069 1.44472 4.15429 1.5375 4.33244 1.57726C4.35789 1.57726 4.37061 1.59051 4.37061 1.60377C4.35789 1.59051 4.34516 1.59051 4.33244 1.57726C4.33244 1.57726 4.33244 1.57726 4.33244 1.57726Z" fill="#BD9848" fill-rule="evenodd" transform="translate(39.799 99.204)" />
      <path d="M9.04233 1.8556C9.01688 2.25323 8.69875 2.3195 8.4188 2.39902C7.17175 2.75689 5.96287 2.8099 4.88124 2.06767C3.65963 2.61108 2.48892 2.88943 1.26732 2.39902C0.911018 2.26648 0.592892 2.02791 0.262039 1.84234C0.262039 1.84234 0.274765 1.85559 0.274765 1.85559C0.236591 1.74956 0.21114 1.64353 0.16024 1.55075C-0.106987 0.994064 -0.0433617 0.503662 0.376568 0.0265121C0.834671 0.371117 1.25459 0.728981 1.7127 1.03383C2.31078 1.44471 2.94703 1.67003 3.69781 1.49773C3.93958 1.44471 4.23226 1.65678 4.55039 1.74956C4.29589 1.15312 4.16864 0.543427 4.74127 0C5.03394 0.251831 5.31389 0.503662 5.6193 0.728981C6.34463 1.29891 7.10813 1.74956 8.08796 1.47121C8.20248 1.43146 8.36791 1.52424 8.49516 1.57725C8.6733 1.67004 8.86418 1.77608 9.04233 1.8556C9.04233 1.8556 9.04233 1.8556 9.04233 1.8556C9.04233 1.8556 9.04233 1.8556 9.04233 1.8556Z" fill="#BD9848" fill-rule="evenodd" transform="translate(31.017 99.191)" />
      <path d="M0.624054 0.29274C1.04398 0.0806808 1.48936 -0.0783768 1.96019 0.0409088C2.16379 0.0939331 2.34194 0.226471 2.62189 0.372269C2.32921 0.690369 2.10016 0.915688 1.90928 1.16752C1.48936 1.69769 1.09488 2.25436 1.14578 2.98335C1.19668 3.71233 1.1076 4.37504 0.636778 4.94497C0.636778 4.94497 0.649504 4.93172 0.649504 4.93172C0.305927 4.86545 0.356827 4.53409 0.293201 4.30877C0.000524521 3.36772 -0.126726 2.38691 0.165951 1.41935C0.267752 1.02173 0.471354 0.663857 0.624054 0.29274C0.624054 0.29274 0.624054 0.29274 0.624054 0.29274C0.624054 0.29274 0.624054 0.29274 0.624054 0.29274Z" fill="#BD9848" fill-rule="evenodd" transform="translate(11.059 89.62)" />
      <path d="M1.68038 1.08025C1.68038 0.854935 1.6422 0.629608 1.6931 0.430794C1.744 0.258492 1.88398 0.0464172 2.02396 0.00666046C2.15121 -0.0331039 2.41843 0.112694 2.48206 0.245232C2.63476 0.576591 2.81291 0.947708 2.78746 1.29232C2.71111 2.33941 2.43116 3.33348 1.61675 4.0492C1.40043 4.24802 1.12048 4.36731 0.853251 4.49985C0.560574 4.64565 0.318798 4.47334 0.127922 4.24802C-0.0884027 4.00944 0.000671387 3.73109 0.166098 3.51903C0.458775 3.14791 0.802351 2.81656 1.12048 2.47195C1.66765 1.87551 1.66765 1.88876 1.68038 1.08025C1.68038 1.08025 1.68038 1.08025 1.68038 1.08025Z" fill="#BD9848" fill-rule="evenodd" transform="translate(12.7 74.187)" />
      <path d="M2.52757 0.437691C2.26034 0.755791 2.03129 1.03413 1.78951 1.31246C1.28051 1.92216 1.02601 2.62463 1.12781 3.4464C1.20416 4.05608 0.975108 4.50673 0.504281 4.91761C0.42793 4.75856 0.351581 4.63927 0.313405 4.50673C0.033453 3.52592 -0.131973 2.53185 0.135254 1.51128C0.262506 1.06063 0.440656 0.636497 0.784234 0.33165C1.30596 -0.1455 1.98039 -0.105743 2.52757 0.437691C2.52757 0.437691 2.52757 0.437691 2.52757 0.437691Z" fill="#BD9848" fill-rule="evenodd" transform="translate(11.052 66.704)" />
      <path d="M2.82837 1.19804C2.54842 2.41743 2.40844 3.59706 1.28864 4.25977C1.21229 4.29953 1.14866 4.3658 1.07231 4.39231C0.703284 4.53811 0.245181 4.44534 0.0797548 4.1935C-0.0729456 3.95493 -0.00932026 3.66333 0.296081 3.30547C0.588758 2.96085 0.906884 2.6295 1.23773 2.32465C1.55586 2.0198 1.72129 1.67519 1.67039 1.22455C1.64494 0.959457 1.61949 0.681122 1.69584 0.442543C1.74673 0.256981 1.92489 0.0581665 2.07759 0.00514984C2.17939 -0.0346069 2.42116 0.164207 2.49751 0.309998C2.65022 0.588348 2.72657 0.932961 2.82837 1.19804C2.82837 1.19804 2.82837 1.19804 2.82837 1.19804Z" fill="#BD9848" fill-rule="evenodd" transform="translate(12.71 87.986)" />
      <path d="M2.84125 1.24963C2.52312 2.42926 2.4086 3.60888 1.33969 4.27159C1.04702 4.45715 0.741615 4.51016 0.423489 4.44389C0.0544624 4.36437 -0.110964 4.01976 0.0799122 3.6884C0.270788 3.3703 0.52529 3.10521 0.754341 2.82687C0.856142 2.70759 0.983393 2.62807 1.08519 2.52203C1.53057 2.09789 1.7469 1.58099 1.64509 0.931526C1.61965 0.745964 1.61965 0.520645 1.68327 0.348335C1.73417 0.202545 1.88687 0.016983 2.01412 0.00373077C2.14137 -0.0227814 2.37043 0.0965118 2.42132 0.215797C2.6122 0.56041 2.72672 0.931534 2.84125 1.24963C2.84125 1.24963 2.84125 1.24963 2.84125 1.24963Z" fill="#BD9848" fill-rule="evenodd" transform="translate(12.71 65.044)" />
      <path d="M2.85388 1.29891C2.59938 2.38577 2.42123 3.36657 1.61955 4.08231C1.2887 4.3739 0.932397 4.50644 0.512468 4.45342C0.0543652 4.38715 -0.136511 4.06905 0.105267 3.65816C0.308868 3.31356 0.614269 3.02197 0.894221 2.71712C1.00875 2.58458 1.14872 2.4918 1.26325 2.37251C1.56865 2.04115 1.75952 1.67004 1.68318 1.19288C1.645 0.98082 1.67045 0.755493 1.68318 0.530167C1.6959 0.265083 1.7977 0 2.0522 0C2.21763 0 2.44668 0.172302 2.53575 0.331352C2.68845 0.64946 2.76481 1.02058 2.85388 1.29891C2.85388 1.29891 2.85388 1.29891 2.85388 1.29891Z" fill="#BD9848" fill-rule="evenodd" transform="translate(12.684 78.819)" />
      <path d="M2.80361 1.29134C2.63818 2.23239 2.47276 3.12042 1.86195 3.8229C1.5311 4.19402 1.1748 4.53863 0.614899 4.49886C0.0295448 4.4591 -0.161331 4.07472 0.144072 3.55782C0.207697 3.45178 0.296772 3.34575 0.385847 3.25297C0.551273 3.08067 0.691248 2.88185 0.882124 2.73605C1.4802 2.2589 1.79833 1.67571 1.65835 0.853943C1.60745 0.522591 1.6329 0.164726 2.00193 0.0189285C2.2437 -0.0738525 2.48548 0.177986 2.65091 0.694893C2.72726 0.906975 2.76543 1.11904 2.80361 1.29134C2.80361 1.29134 2.80361 1.29134 2.80361 1.29134Z" fill="#BD9848" fill-rule="evenodd" transform="translate(12.709 92.439)" />
      <path d="M2.81455 1.18545C2.62367 2.31206 2.40735 3.30612 1.61839 4.04836C1.31299 4.33995 0.969413 4.45924 0.574937 4.45924C0.07866 4.44598 -0.137668 4.06161 0.0913839 3.59771C0.167735 3.45192 0.28226 3.30611 0.396785 3.18684C0.600387 2.96151 0.803987 2.73618 1.03304 2.53737C1.51659 2.1265 1.74564 1.63609 1.64384 0.986626C1.61839 0.814323 1.60567 0.615509 1.66929 0.469704C1.74564 0.284142 1.88562 0.0720825 2.03832 0.00580597C2.14012 -0.0339508 2.39462 0.138351 2.47097 0.284142C2.6364 0.589005 2.72547 0.933617 2.81455 1.18545C2.81455 1.18545 2.81455 1.18545 2.81455 1.18545Z" fill="#BD9848" fill-rule="evenodd" transform="translate(12.712 83.32)" />
      <path d="M1.41922 0.0202408C2.33543 -0.0990524 3.07349 0.325089 3.76064 0.868515C4.16784 1.19987 4.37144 1.66376 4.33327 2.20718C4.29509 2.73736 3.91334 2.96268 3.49341 2.64458C3.04803 2.29996 2.65356 1.90234 2.2718 1.49146C1.94095 1.14685 1.64827 0.89502 1.11382 1.04081C0.846592 1.12033 0.528465 1.02756 0.248516 0.934776C-0.0314369 0.828743 -0.0823364 0.576912 0.133991 0.364845C0.286694 0.205795 0.515743 0.0865097 0.719345 0.033493C0.948399 -0.0195236 1.19017 0.0202408 1.41922 0.0202408C1.41922 0.0202408 1.41922 0.0202408 1.41922 0.0202408Z" fill="#BD9848" fill-rule="evenodd" transform="translate(51.264 97.315)" />
      <path d="M1.44097 0.031044C2.3699 -0.128014 3.0825 0.349144 3.75694 0.892563C4.18959 1.23717 4.36774 1.72758 4.31684 2.29751C4.27866 2.76141 4.02416 2.92046 3.61696 2.70839C3.38791 2.60236 3.18431 2.44331 2.99343 2.25774C2.7262 2.00591 2.5226 1.70107 2.25538 1.44923C1.94998 1.15765 1.63185 0.866051 1.13557 1.05161C0.919247 1.13113 0.626572 1.07812 0.384796 1.01185C-0.0605812 0.892555 -0.124207 0.561203 0.219372 0.256355C0.346622 0.150322 0.512047 0.0707932 0.664749 0.0575409C0.931969 0.00453949 1.18647 0.031044 1.44097 0.031044C1.44097 0.031044 1.44097 0.031044 1.44097 0.031044Z" fill="#BD9848" fill-rule="evenodd" transform="translate(46.954 97.318)" />
      <path d="M1.05618 0C2.02328 0.0265121 2.90131 0.278336 3.65209 0.914543C4.12291 1.31217 4.35196 1.78932 4.25016 2.41227C4.17382 2.83641 3.94477 2.96896 3.57574 2.78339C3.35941 2.6641 3.15582 2.4918 2.96494 2.31949C2.76134 2.13393 2.59591 1.89536 2.40504 1.69654C2.01056 1.28566 1.60336 0.927795 0.967106 1.13986C0.801682 1.19288 0.572628 1.16637 0.407204 1.1001C0.241779 1.03383 0 0.874779 0 0.768745C0 0.596443 0.139977 0.344604 0.292675 0.251823C0.496273 0.119286 0.788948 0.0795212 1.05618 0C1.05618 0 1.05618 0 1.05618 0Z" fill="#BD9848" fill-rule="evenodd" transform="translate(42.554 97.229)" />
      <path d="M1.33671 0C2.18929 0.0927811 2.92734 0.344604 3.60177 0.835014C4.03443 1.16637 4.2762 1.59051 4.378 2.14719C4.4289 2.46529 4.30165 2.70387 4.09805 2.82314C3.95807 2.90266 3.69084 2.8364 3.52542 2.75687C3.34727 2.66409 3.19457 2.49179 3.04187 2.34599C2.76192 2.06767 2.49469 1.78932 2.24019 1.51099C1.96024 1.20614 1.66756 1.04709 1.22218 1.16637C0.954956 1.23265 0.624105 1.19289 0.356878 1.11336C-0.0630493 0.994064 -0.126675 0.636208 0.242353 0.410889C0.560484 0.185562 0.95496 0.119293 1.33671 0C1.33671 0 1.33671 0 1.33671 0Z" fill="#BD9848" fill-rule="evenodd" transform="translate(20.616 97.203)" />
      <path d="M1.43978 0.00869751C2.38143 -0.0708237 3.10676 0.406326 3.79391 0.97625C4.13749 1.26785 4.27747 1.70523 4.34109 2.12937C4.36654 2.31493 4.25202 2.5535 4.12477 2.71256C3.97207 2.91137 3.73029 2.85835 3.53941 2.72581C3.32309 2.58002 3.13221 2.42097 2.94134 2.24866C2.71228 2.02334 2.49596 1.78477 2.27963 1.53293C1.96151 1.16181 1.63065 0.923241 1.12165 1.08228C0.943501 1.13531 0.739899 1.09554 0.549023 1.08228C0.269072 1.05577 0.0272942 0.923233 0.00184441 0.631638C-0.0236053 0.32679 0.21817 0.154488 0.485397 0.101471C0.803524 0.0352097 1.12165 0.0352097 1.43978 0.00869751C1.43978 0.00869751 1.43978 0.00869751 1.43978 0.00869751Z" fill="#BD9848" fill-rule="evenodd" transform="translate(11.885 97.287)" />
      <path d="M4.46226 2.23439C4.36046 2.38018 4.25866 2.63202 4.08051 2.73805C3.96598 2.81757 3.72421 2.73805 3.55878 2.67178C3.43153 2.61876 3.32973 2.48621 3.22793 2.38018C2.9607 2.10184 2.69347 1.81025 2.41352 1.54517C2.05722 1.1873 1.68819 0.922218 1.12829 1.05476C0.848339 1.12103 0.504765 1.015 0.212086 0.908966C-0.0424156 0.816185 -0.0678673 0.564354 0.135735 0.378792C0.301159 0.219742 0.517487 0.0739517 0.721088 0.0474396C1.80272 -0.0983582 2.82072 0.0739517 3.69875 0.816185C4.14413 1.16079 4.30956 1.63795 4.46226 2.23439C4.46226 2.23439 4.46226 2.23439 4.46226 2.23439Z" fill="#BD9848" fill-rule="evenodd" transform="translate(33.676 97.314)" />
      <path d="M2.83708 1.21938C2.63347 2.33273 2.45532 3.3533 1.64092 4.09554C1.32279 4.38714 0.953768 4.53294 0.546565 4.50642C0.0502882 4.46666 -0.153314 4.12205 0.126637 3.69792C0.330239 3.36656 0.622914 3.10148 0.877415 2.80988C1.03012 2.63758 1.22099 2.47853 1.37369 2.30622C1.65364 1.98812 1.83179 1.67002 1.69182 1.17961C1.61547 0.92778 1.67909 0.60968 1.76817 0.344597C1.90815 -0.0795364 2.22627 -0.119301 2.45532 0.265076C2.6462 0.583176 2.73528 0.954292 2.83708 1.21938C2.83708 1.21938 2.83708 1.21938 2.83708 1.21938Z" fill="#BD9848" fill-rule="evenodd" transform="translate(12.688 69.621)" />
      <path d="M1.43078 0.00641632C2.24518 -0.046608 2.94506 0.231735 3.59404 0.735397C3.97579 1.02699 4.16667 1.42461 4.33209 1.84875C4.44662 2.1536 4.34482 2.49821 4.10304 2.68377C3.87399 2.86933 3.65766 2.73679 3.46679 2.60425C3.27591 2.4717 3.09776 2.31265 2.94506 2.14035C2.65238 1.84875 2.38516 1.54391 2.1052 1.25231C1.9016 1.04025 1.67255 0.947472 1.36715 1.01374C1.0872 1.06676 0.769073 1.06676 0.489124 1.01374C0.310974 0.973976 0.0691986 0.814926 0.0182953 0.655876C-0.0707817 0.390793 0.18372 0.231735 0.387321 0.12571C0.514572 0.059433 0.667274 0.0196762 0.807247 0.00641632C1.01085 -0.00683594 1.21445 0.00641632 1.43078 0.00641632C1.43078 0.00641632 1.43078 0.00641632 1.43078 0.00641632Z" fill="#BD9848" fill-rule="evenodd" transform="translate(24.963 97.329)" />
      <path d="M1.47787 0.00424957C2.4068 -0.0487747 3.14485 0.401871 3.83201 0.971802C4.27738 1.34292 4.36646 1.85984 4.29011 2.40326C4.23921 2.77438 3.98471 2.92017 3.64113 2.74786C3.45025 2.65508 3.28483 2.50929 3.13213 2.36349C2.82673 2.05865 2.52133 1.7538 2.24137 1.42244C2.01232 1.15736 1.73237 1.05132 1.40152 1.07784C1.13429 1.09109 0.854342 1.10435 0.57439 1.07784C0.319889 1.05132 0.0272121 0.985054 0.00176239 0.666962C-0.0236874 0.348854 0.230814 0.189812 0.472589 0.123535C0.803442 0.0440063 1.14702 0.0440063 1.47787 0.00424957C1.47787 0.00424957 1.47787 0.00424957 1.47787 0.00424957Z" fill="#BD9848" fill-rule="evenodd" transform="translate(16.173 97.291)" />
      <path d="M1.38791 0.0197906C2.30412 -0.0995026 3.02944 0.337891 3.71659 0.868057C4.20015 1.25243 4.36557 1.78261 4.25105 2.3923C4.18742 2.75016 3.95837 2.88271 3.64025 2.7369C3.4112 2.63087 3.2076 2.47182 3.01672 2.29951C2.80039 2.1007 2.60952 1.86213 2.41864 1.62355C2.06234 1.1729 1.64241 0.907822 1.04433 1.05363C0.828007 1.10664 0.573505 1.06687 0.357182 1.01386C0.217205 0.974098 0.000881195 0.815048 0.000881195 0.709015C-0.0118446 0.549965 0.115406 0.351151 0.229931 0.218613C0.344456 0.112579 0.522606 0.0595551 0.688034 0.0330429C0.929806 0.00653839 1.15886 0.0197906 1.38791 0.0197906C1.38791 0.0197906 1.38791 0.0197906 1.38791 0.0197906Z" fill="#BD9848" fill-rule="evenodd" transform="translate(38.201 97.316)" />
      <path d="M1.46416 0.0121765C2.41854 -0.0806046 3.14387 0.370041 3.80557 0.91346C4.26367 1.28458 4.40365 1.81474 4.2764 2.39793C4.20004 2.7558 3.98372 2.88834 3.66559 2.71603C3.42382 2.5835 3.20749 2.39793 3.01661 2.21238C2.72394 1.93404 2.45671 1.61594 2.17676 1.32434C1.90953 1.03275 1.60413 0.92672 1.20965 1.0195C0.929701 1.08577 0.611574 1.05926 0.344351 0.979736C-0.0755749 0.847198 -0.113752 0.515839 0.242552 0.264008C0.407976 0.144714 0.624304 0.0651932 0.81518 0.0386887C1.0315 -0.0143356 1.27328 0.0121765 1.46416 0.0121765C1.46416 0.0121765 1.46416 0.0121765 1.46416 0.0121765Z" fill="#BD9848" fill-rule="evenodd" transform="translate(29.396 97.323)" />
      <path d="M0.46965 0.407234C0.635077 0.314453 0.800503 0.234932 0.965927 0.142151C1.42403 -0.0964203 1.81851 -0.0434113 2.28933 0.367477C2.11118 0.500015 1.93303 0.606049 1.78033 0.725342C1.34768 1.0567 0.965927 1.40131 0.978651 2.05077C0.978651 2.51466 0.571449 2.72673 0.304222 3.08459C0.0115452 2.75324 -0.0393543 2.38213 0.024271 2.02425C0.100622 1.61338 0.253323 1.229 0.367847 0.831375C0.406025 0.69883 0.431475 0.553032 0.46965 0.407234C0.46965 0.407234 0.46965 0.407234 0.46965 0.407234C0.46965 0.407234 0.46965 0.407234 0.46965 0.407234Z" fill="#BD9848" fill-rule="evenodd" transform="translate(11.213 94.145)" />
      <path d="M10.9563 4.24558C10.7781 3.6889 10.689 3.11897 10.4218 2.69484C10.1291 2.24419 9.58197 2.05863 9.04752 1.88633C8.98389 1.99236 8.92027 2.08514 8.88209 2.17792C8.69122 2.61531 8.61487 2.64182 8.23312 2.36348C7.90227 2.1249 7.60958 1.83331 7.26601 1.60799C6.66793 1.21036 6.03168 0.971787 5.28091 1.15735C5.03912 1.21036 4.74645 1.05131 4.45377 0.985041C4.75918 1.55497 4.68282 2.11165 4.23745 2.64182C3.77935 2.2707 3.35941 1.89958 2.91404 1.59474C2.32869 1.21036 1.70515 0.971786 0.992554 1.15735C0.598083 1.26338 0.41993 1.11758 0 0.560905C0.127251 0.48138 0.22905 0.362092 0.369034 0.322329C1.52701 0.030736 2.685 -0.260857 3.83025 0.415109C3.9575 0.494634 4.1611 0.48138 4.3138 0.454871C4.83553 0.335583 5.33181 0.163278 5.85353 0.0704986C6.85882 -0.101806 7.80047 0.00422739 8.56397 0.812735C8.72939 0.998295 8.85664 1.23687 9.02207 1.50196C9.07298 1.35616 9.12387 1.21036 9.17477 1.06457C10.2309 0.998295 11.109 1.51521 11.5289 2.45626C11.847 3.15873 11.6816 3.74192 10.9563 4.24558C10.9563 4.24558 10.9563 4.24558 10.9563 4.24558Z" fill="#BD9848" fill-rule="evenodd" transform="translate(97.45 0.019)" />
      <path d="M1.88332 0C2.29053 0.145796 2.25236 0.569932 2.3287 0.87478C2.54503 1.72305 2.64683 2.59783 2.39233 3.47261C2.35416 3.5919 2.34142 3.73769 2.26508 3.84373C1.99785 4.21485 2.0742 4.59922 2.20145 4.97034C2.68501 6.36203 2.68501 7.71396 1.90878 9.01288C1.88332 9.05264 1.89605 9.0924 1.88332 9.14542C1.88332 9.14542 1.89604 9.13216 1.89604 9.13216C1.52702 9.25145 1.18344 9.49003 0.750786 9.42376C0.470833 9.38399 0.216331 9.31772 0 9.02613C0.165428 8.81406 0.343582 8.602 0.521729 8.38993C1.09435 7.71396 1.47611 6.95847 1.39977 6.00417C1.37431 5.6463 1.46339 5.28844 1.50156 4.89081C1.04346 4.87756 0.445381 5.10288 0 4.5462C0.31813 4.13532 0.623535 3.75095 0.916206 3.35332C1.36159 2.77013 1.51429 2.09417 1.38704 1.36519C1.28524 0.795254 1.65427 0.424135 1.88332 0C1.88332 0 1.88332 0 1.88332 0C1.88332 0 1.88332 0 1.88332 0Z" fill="#BD9848" fill-rule="evenodd" transform="translate(106.332 11.952)" />
      <path d="M1.92149 0C1.99784 0.0662708 2.12509 0.106033 2.15054 0.185558C2.54502 1.48447 2.79952 2.79664 2.17599 4.10881C2.09965 4.26786 2.12509 4.49318 2.16328 4.66549C2.26508 5.15589 2.40506 5.6463 2.49413 6.13671C2.6341 6.83918 2.51958 7.54165 2.34142 8.21762C2.30325 8.33691 2.23962 8.4562 2.17599 8.57548C1.66699 9.49002 0.954391 9.66233 7.62939e-06 9.02612C0.139984 8.85382 0.267235 8.69477 0.394485 8.53572C0.572639 8.3104 0.763512 8.11158 0.916206 7.87301C1.31068 7.30308 1.50156 6.66687 1.42522 5.95114C1.37431 5.52701 1.39977 5.11613 1.75607 4.75826C1.14526 4.93057 0.559898 5.02335 0 4.49318C0.178154 4.28111 0.343582 4.0823 0.509003 3.89674C1.1198 3.20752 1.56519 2.43877 1.41248 1.47122C1.32342 0.874777 1.67973 0.463898 1.92149 0C1.92149 0 1.92149 0 1.92149 0C1.92149 0 1.92149 0 1.92149 0Z" fill="#BD9848" fill-rule="evenodd" transform="translate(106.294 21.097)" />
      <path d="M0 0.825725C0 0.520878 0.216331 0.388336 0.445381 0.335319C1.08163 0.202776 1.73061 0.0569801 2.37959 0.0437255C2.81225 0.0304715 3.25762 0.176268 3.66482 0.348573C4.02112 0.507623 4.3138 0.520877 4.68282 0.375081C5.67538 0.017217 6.69338 -0.181596 7.72412 0.229285C7.97862 0.335319 8.23312 0.454607 8.44946 0.613658C9.16206 1.13057 9.22568 1.8463 8.64033 2.60179C8.25858 2.29694 7.88955 1.9921 7.48235 1.71376C6.82064 1.24986 6.12077 0.945013 5.26818 1.14383C5.05186 1.19684 4.79736 1.01128 4.56831 0.945013C4.55558 0.931759 4.54285 0.931759 4.53013 0.918505C4.54285 0.918505 4.55558 0.931759 4.56831 0.931759C4.79736 1.44867 4.7719 1.95233 4.5174 2.44274C4.47923 2.50901 4.4156 2.56203 4.3138 2.66806C4.1611 2.53552 4.0084 2.41623 3.86842 2.28369C3.2958 1.78003 2.69772 1.32939 1.94695 1.17033C1.74335 1.11732 1.51429 1.05105 1.32341 1.11732C0.916206 1.24986 0.585358 1.17033 0.254501 0.90525C0.216316 0.838979 0.0890656 0.838979 0 0.825725C0 0.825725 0 0.825725 0 0.825725C0 0.825725 0 0.825725 0 0.825725Z" fill="#BD9848" fill-rule="evenodd" transform="translate(88.631 0.005)" />
      <path d="M8.70393 0.790363C9.08568 1.59887 9.06023 2.03626 8.56396 2.64596C8.27128 2.40738 7.99133 2.15555 7.69866 1.91697C6.99878 1.3603 6.26072 0.909652 5.30635 1.14823C5.10275 1.20124 4.86097 1.09521 4.63192 1.0687C4.59375 1.02894 4.54284 0.975923 4.50467 0.93616C4.49195 0.922906 4.47921 0.922906 4.4665 0.909652C4.47921 0.922906 4.49195 0.922906 4.5174 0.93616C4.55557 0.975923 4.60647 1.02894 4.64465 1.0687C4.64465 1.33379 4.64465 1.59887 4.63192 1.86396C4.63192 2.1688 4.54285 2.42063 4.25017 2.67246C4.09747 2.53992 3.94477 2.40738 3.8048 2.26158C3.2958 1.74467 2.69771 1.37355 2.01056 1.17474C1.79424 1.10847 1.52702 1.04219 1.32341 1.10847C0.73806 1.32053 0.36903 1.02894 0 0.631313C1.14526 -0.0446523 2.71044 -0.283229 4.1611 0.591551C5.71354 -0.110924 7.25328 -0.3495 8.70393 0.790363C8.70393 0.790363 8.70393 0.790363 8.70393 0.790363C8.70393 0.790363 8.70393 0.790363 8.70393 0.790363Z" fill="#BD9848" fill-rule="evenodd" transform="translate(62.354 0.027)" />
      <path d="M4.72101 1.08307C4.68284 1.61324 4.87371 2.19642 4.3138 2.66032C4.17384 2.54103 4.02113 2.40849 3.88115 2.26269C3.32124 1.70602 2.67227 1.30839 1.90877 1.14934C1.74334 1.10958 1.55247 1.05656 1.41248 1.10958C0.96711 1.26863 0.598076 1.16259 0.241783 0.871C0.178154 0.817982 0.076355 0.831237 0 0.804728C0 0.804728 0.0127182 0.817982 0.0127182 0.817982C0.0127182 0.513135 0.22905 0.393847 0.458099 0.327576C0.967102 0.208288 1.48882 0.0889998 2.01056 0.0227286C2.60863 -0.0567965 3.19398 0.0757458 3.72844 0.367338C4.03384 0.539643 4.28835 0.526389 4.63192 0.420356C5.57358 0.102254 6.5534 -0.189339 7.54596 0.181779C7.97861 0.34083 8.37309 0.605915 8.79301 0.831237C8.79301 0.831237 8.7803 0.817983 8.7803 0.817983C8.85664 1.00354 8.97117 1.16259 9.00935 1.36141C9.09842 1.8253 9.08569 2.2892 8.65305 2.66032C8.37309 2.42174 8.08041 2.16991 7.78774 1.94459C7.04969 1.34815 6.26073 0.924016 5.26818 1.1891C5.10276 1.21561 4.89915 1.12283 4.72101 1.08307C4.69556 1.08307 4.68284 1.06981 4.68284 1.05656C4.69556 1.06981 4.70828 1.06981 4.72101 1.08307C4.72101 1.08307 4.72101 1.08307 4.72101 1.08307Z" fill="#BD9848" fill-rule="evenodd" transform="translate(71.058 0)" />
      <path d="M0 0.797679C0.0254517 0.400052 0.343575 0.333781 0.623528 0.254256C1.87058 -0.103608 3.07947 -0.156625 4.16109 0.585612C5.3827 0.0421885 6.55341 -0.236151 7.77502 0.254256C8.13132 0.386798 8.44945 0.625374 8.7803 0.810934C8.7803 0.810934 8.76758 0.79768 8.76758 0.79768C8.80576 0.903713 8.83121 1.00975 8.88211 1.10253C9.14933 1.6592 9.08571 2.14961 8.66578 2.62676C8.20768 2.28215 7.78775 1.92429 7.32965 1.61944C6.73157 1.20856 6.09531 0.983239 5.34454 1.15554C5.10276 1.20856 4.81009 0.996493 4.49196 0.903713C4.74646 1.50015 4.87371 2.10985 4.30109 2.65327C4.00841 2.40144 3.72845 2.14961 3.42305 1.92429C2.69772 1.35436 1.93422 0.903713 0.954384 1.18205C0.839859 1.22181 0.674431 1.12904 0.54718 1.07602C0.369019 0.983239 0.178146 0.877205 0 0.797679C0 0.797679 0 0.797679 0 0.797679C0 0.797679 0 0.797679 0 0.797679Z" fill="#BD9848" fill-rule="evenodd" transform="translate(79.851 0.02)" />
      <path d="M1.99783 4.65223C1.57791 4.8643 1.13253 5.02335 0.661705 4.90406C0.458107 4.85105 0.279953 4.7185 0 4.57271C0.292671 4.25461 0.521721 4.02929 0.712601 3.77745C1.13252 3.24729 1.52701 2.69061 1.4761 1.96163C1.4252 1.23264 1.51427 0.569932 1.98511 0C1.98511 0 1.97238 0.0132542 1.97238 0.0132542C2.31596 0.079525 2.26506 0.410881 2.32868 0.636202C2.62136 1.57725 2.74861 2.55807 2.45593 3.52562C2.35413 3.92325 2.15053 4.28112 1.99783 4.65223C1.99783 4.65223 1.99783 4.65223 1.99783 4.65223C1.99783 4.65223 1.99783 4.65223 1.99783 4.65223Z" fill="#BD9848" fill-rule="evenodd" transform="translate(106.231 7.299)" />
      <path d="M1.10952 3.47347C1.10952 3.69879 1.1477 3.92411 1.0968 4.12293C1.0459 4.29523 0.905922 4.5073 0.765953 4.54706C0.638702 4.58682 0.371475 4.44103 0.307854 4.30849C0.155151 3.97713 -0.022995 3.60601 0.00244904 3.2614C0.0787964 2.21432 0.358749 1.22025 1.17316 0.50452C1.38948 0.305708 1.66943 0.18642 1.93666 0.0538769C2.22933 -0.0919189 2.47112 0.0803852 2.66199 0.305708C2.87832 0.544283 2.78924 0.822622 2.62382 1.03469C2.33114 1.40581 1.98756 1.73717 1.66943 2.08177C1.12225 2.67822 1.12225 2.67822 1.10952 3.47347C1.10952 3.47347 1.10952 3.47347 1.10952 3.47347Z" fill="#BD9848" fill-rule="evenodd" transform="translate(104.421 23.123)" />
      <path d="M0 4.47993C0.26722 4.16183 0.496277 3.88349 0.738052 3.60515C1.24706 2.99546 1.50156 2.29298 1.39976 1.47122C1.32341 0.861525 1.55246 0.410881 2.02328 0C2.09963 0.159052 2.17599 0.278339 2.21416 0.410881C2.49411 1.39169 2.65954 2.38576 2.39232 3.40634C2.26507 3.85698 2.08691 4.28112 1.74334 4.58596C1.2216 5.06312 0.547173 5.02335 0 4.47993C0 4.47993 0 4.47993 0 4.47993Z" fill="#BD9848" fill-rule="evenodd" transform="translate(106.332 30.242)" />
      <path d="M0 3.26356C0.279953 2.04417 0.41993 0.86454 1.53973 0.201828C1.61608 0.162065 1.6797 0.0957937 1.75606 0.0692854C2.12509 -0.0765104 2.58319 0.0162687 2.74861 0.268099C2.90131 0.506676 2.83769 0.798268 2.53229 1.15613C2.23961 1.50074 1.92149 1.8321 1.59063 2.13695C1.2725 2.44179 1.10708 2.7864 1.15797 3.23705C1.18343 3.50213 1.20888 3.78047 1.13251 4.01905C1.08161 4.20461 0.903473 4.40342 0.750771 4.45644C0.648964 4.4962 0.407188 4.29739 0.330841 4.15159C0.178154 3.87325 0.0890808 3.52864 0 3.26356C0 3.26356 0 3.26356 0 3.26356Z" fill="#BD9848" fill-rule="evenodd" transform="translate(104.372 9.416)" />
      <path d="M0 3.2216C0.318123 2.04197 0.432655 0.86235 1.50156 0.199638C1.79423 0.01408 2.09963 -0.0389366 2.41776 0.0273361C2.78679 0.106861 2.95221 0.451473 2.76134 0.782829C2.57046 1.10093 2.31596 1.36601 2.08691 1.64435C1.98511 1.76364 1.85786 1.84317 1.75607 1.9492C1.31068 2.37333 1.09436 2.89025 1.19616 3.5397C1.22161 3.72526 1.22161 3.95058 1.15798 4.12289C1.10708 4.26869 0.954384 4.45425 0.827133 4.4675C0.699883 4.49401 0.470833 4.37472 0.41993 4.25543C0.22905 3.91082 0.114525 3.5397 0 3.2216C0 3.2216 0 3.2216 0 3.2216Z" fill="#BD9848" fill-rule="evenodd" transform="translate(104.36 32.348)" />
      <path d="M0 3.16595C0.254501 2.0791 0.432655 1.09829 1.23433 0.382557C1.56518 0.0909653 1.92149 -0.0415764 2.34142 0.0114384C2.79951 0.0777092 2.99039 0.395811 2.74862 0.806692C2.54502 1.1513 2.23962 1.4429 1.95966 1.74774C1.84513 1.88029 1.70516 1.97307 1.59063 2.09235C1.28522 2.42371 1.09435 2.79483 1.17071 3.27198C1.20888 3.48405 1.18343 3.70937 1.17071 3.93469C1.15798 4.19978 1.05618 4.46486 0.801674 4.46486C0.636253 4.46486 0.407204 4.29255 0.318123 4.1335C0.165436 3.8154 0.0890808 3.44429 0 3.16595C0 3.16595 0 3.16595 0 3.16595Z" fill="#BD9848" fill-rule="evenodd" transform="translate(104.372 18.58)" />
      <path d="M0 3.21066C0.165428 2.26961 0.330849 1.38158 0.941658 0.679102C1.27251 0.307983 1.62881 -0.0366263 2.18871 0.00313663C2.77406 0.0429001 2.96494 0.427272 2.65955 0.944187C2.59592 1.05022 2.50684 1.15625 2.41776 1.24903C2.25234 1.42134 2.11236 1.62015 1.92149 1.76595C1.3234 2.2431 1.00528 2.82629 1.14526 3.64805C1.19616 3.97941 1.17071 4.33727 0.801682 4.48307C0.559898 4.57585 0.31813 4.32402 0.152702 3.8071C0.076355 3.58178 0.0381775 3.36971 0 3.21066C0 3.21066 0 3.21066 0 3.21066Z" fill="#BD9848" fill-rule="evenodd" transform="translate(104.398 4.937)" />
      <path d="M0 3.2738C0.19088 2.14719 0.407204 1.15312 1.19616 0.410882C1.50156 0.119289 1.84514 0 2.23962 0C2.7359 0.0132551 2.95222 0.397627 2.72317 0.861525C2.64682 1.00732 2.5323 1.15312 2.41776 1.27241C2.21416 1.49773 2.01056 1.72305 1.78151 1.92186C1.29796 2.33275 1.06891 2.82315 1.17071 3.47261C1.19616 3.64491 1.20889 3.84373 1.14526 3.98952C1.06891 4.17508 0.928932 4.38715 0.77623 4.45342C0.674431 4.49318 0.41993 4.32088 0.343575 4.17508C0.165428 3.87024 0.0890808 3.52563 0 3.2738C0 3.2738 0 3.2738 0 3.2738Z" fill="#BD9848" fill-rule="evenodd" transform="translate(104.385 14.085)" />
      <path d="M2.91858 2.77064C2.00237 2.88993 1.26432 2.46579 0.577164 1.92237C0.16996 1.59101 -0.033638 1.12711 0.00453949 0.583689C0.0427094 0.0535202 0.424461 -0.171802 0.844383 0.1463C1.28976 0.49091 1.68423 0.888537 2.06599 1.29942C2.39684 1.64403 2.68952 1.89586 3.22397 1.75006C3.49119 1.67054 3.80932 1.76332 4.08927 1.8561C4.36922 1.96213 4.42012 2.21396 4.2038 2.42603C4.05109 2.58508 3.82204 2.70437 3.61845 2.75738C3.3894 2.8104 3.14763 2.77064 2.91858 2.77064C2.91858 2.77064 2.91858 2.77064 2.91858 2.77064Z" fill="#BD9848" fill-rule="evenodd" transform="translate(64.309 1.759)" />
      <path d="M2.88432 2.76985C1.95539 2.9289 1.24278 2.45175 0.568359 1.90832C0.135704 1.56371 -0.0424423 1.07331 0.00845337 0.503376C0.0466232 0.0394775 0.301125 -0.119573 0.708328 0.0924945C0.937378 0.198528 1.14098 0.357579 1.33186 0.543139C1.59908 0.794969 1.80269 1.09982 2.06992 1.35165C2.37532 1.64324 2.69344 1.93483 3.18971 1.74927C3.40604 1.66975 3.69872 1.72276 3.9405 1.78904C4.38587 1.90832 4.4495 2.23968 4.10592 2.54453C3.97867 2.65056 3.81325 2.73009 3.66055 2.74334C3.39333 2.79636 3.13882 2.76985 2.88432 2.76985C2.88432 2.76985 2.88432 2.76985 2.88432 2.76985Z" fill="#BD9848" fill-rule="evenodd" transform="translate(68.632 1.746)" />
      <path d="M3.21783 2.86524C2.25072 2.83873 1.37269 2.5869 0.62191 1.9507C0.151077 1.55307 -0.0779724 1.07592 0.0238266 0.452971C0.100174 0.0288354 0.329231 -0.103707 0.698257 0.0818526C0.914581 0.201141 1.11818 0.373446 1.30906 0.545751C1.51266 0.73131 1.67809 0.969886 1.86897 1.1687C2.26344 1.57958 2.67064 1.93744 3.30689 1.72538C3.47232 1.67236 3.70136 1.69887 3.8668 1.76514C4.03222 1.83141 4.274 1.99046 4.274 2.0965C4.274 2.2688 4.13403 2.52063 3.98133 2.61341C3.765 2.75921 3.48505 2.78572 3.21783 2.86524C3.21783 2.86524 3.21783 2.86524 3.21783 2.86524Z" fill="#BD9848" fill-rule="evenodd" transform="translate(73.083 1.77)" />
      <path d="M3.05251 2.85905C2.19993 2.76627 1.46188 2.51444 0.787445 2.02403C0.35479 1.69268 0.113022 1.26854 0.0112228 0.711865C-0.0396805 0.393763 0.0875702 0.155187 0.291176 0.0358993C0.431145 -0.043626 0.69838 0.0226452 0.8638 0.10217C1.04195 0.19495 1.19465 0.367255 1.34735 0.513051C1.6273 0.79139 1.89453 1.06973 2.14903 1.34807C2.42899 1.65292 2.72166 1.81197 3.16704 1.69268C3.43426 1.62641 3.76511 1.66617 4.03234 1.74569C4.45226 1.86498 4.51589 2.22285 4.14687 2.44817C3.82874 2.66024 3.42153 2.72651 3.05251 2.85905C3.05251 2.85905 3.05251 2.85905 3.05251 2.85905Z" fill="#BD9848" fill-rule="evenodd" transform="translate(94.907 1.816)" />
      <path d="M2.90488 2.83519C1.96323 2.91472 1.23791 2.43756 0.550751 1.86763C0.207169 1.57604 0.0671997 1.13865 0.00357056 0.714515C-0.0218811 0.528955 0.0926514 0.290379 0.219902 0.131328C0.372604 -0.0674851 0.614372 -0.014468 0.805252 0.118074C1.02158 0.263871 1.21246 0.422922 1.40333 0.595226C1.63238 0.820548 1.84871 1.05912 2.06503 1.31095C2.38316 1.68207 2.71401 1.92065 3.22301 1.7616C3.40117 1.70858 3.60477 1.74835 3.79564 1.7616C4.07559 1.78811 4.31737 1.92065 4.34282 2.21224C4.36827 2.51709 4.12649 2.68939 3.85927 2.74241C3.54114 2.80868 3.21029 2.80868 2.90488 2.83519C2.90488 2.83519 2.90488 2.83519 2.90488 2.83519Z" fill="#BD9848" fill-rule="evenodd" transform="translate(103.681 1.734)" />
      <path d="M0 0.536943C0.101799 0.391147 0.203598 0.139316 0.381752 0.0332822C0.496277 -0.046243 0.738052 0.0332822 0.903473 0.0995533C1.03072 0.15257 1.13252 0.285113 1.23432 0.391147C1.50155 0.669485 1.76878 0.961078 2.04873 1.22616C2.40503 1.58403 2.77406 1.84911 3.33396 1.71657C3.61391 1.6503 3.95749 1.75633 4.25016 1.86237C4.50466 1.95515 4.53011 2.20698 4.32651 2.39253C4.16109 2.55159 3.94476 2.69738 3.74116 2.72389C2.65953 2.86969 1.64153 2.69738 0.763496 1.95515C0.318123 1.61054 0.165421 1.13338 0 0.536943C0 0.536943 0 0.536943 0 0.536943Z" fill="#BD9848" fill-rule="evenodd" transform="translate(81.76 1.779)" />
      <path d="M0 3.29012C0.203598 2.17677 0.381752 1.15619 1.19616 0.413952C1.51428 0.12236 1.88332 -0.0234375 2.29051 0.00307083C2.78679 0.0428333 2.99039 0.387442 2.71043 0.811579C2.50684 1.14293 2.21416 1.40802 1.95966 1.69961C1.80695 1.87192 1.61607 2.03097 1.46337 2.20327C1.18342 2.52137 1.00527 2.83947 1.14525 3.32988C1.2216 3.58171 1.15797 3.89981 1.0689 4.1649C0.928925 4.58903 0.610802 4.62879 0.381744 4.24442C0.190872 3.92632 0.101799 3.5552 0 3.29012C0 3.29012 0 3.29012 0 3.29012Z" fill="#BD9848" fill-rule="evenodd" transform="translate(104.385 27.734)" />
      <path d="M2.94831 2.76894C2.1339 2.82196 1.43402 2.54362 0.785049 2.03996C0.403297 1.74836 0.212418 1.35074 0.0469971 0.926602C-0.0675354 0.621755 0.0342712 0.277145 0.276047 0.091586C0.505096 -0.0939735 0.72142 0.0385689 0.9123 0.171111C1.10317 0.303654 1.28133 0.462705 1.43402 0.635009C1.7267 0.926602 1.99393 1.23145 2.27388 1.52304C2.47748 1.73511 2.70654 1.82789 3.01193 1.76162C3.29189 1.7086 3.61001 1.7086 3.88996 1.76162C4.06812 1.80138 4.30989 1.96043 4.36079 2.11948C4.44987 2.38457 4.19537 2.54362 3.99176 2.64965C3.86451 2.71592 3.71181 2.75569 3.57184 2.76894C3.36824 2.7822 3.16464 2.76894 2.94831 2.76894C2.94831 2.76894 2.94831 2.76894 2.94831 2.76894Z" fill="#BD9848" fill-rule="evenodd" transform="translate(90.57 1.76)" />
      <path d="M2.8367 2.81559C1.90777 2.8686 1.16972 2.41796 0.482559 1.84803C0.037178 1.47691 -0.0518951 0.959994 0.0244598 0.416571C0.0753632 0.0454522 0.329865 -0.100345 0.673431 0.0719608C0.864311 0.16474 1.02973 0.310537 1.18243 0.456334C1.48784 0.761181 1.79324 1.06603 2.0732 1.39738C2.30225 1.66247 2.5822 1.7685 2.91305 1.74199C3.18027 1.72874 3.46022 1.71548 3.74017 1.74199C3.99467 1.7685 4.28735 1.83477 4.31281 2.15287C4.33826 2.47098 4.08376 2.63003 3.84197 2.6963C3.51112 2.77582 3.16755 2.77582 2.8367 2.81559C2.8367 2.81559 2.8367 2.81559 2.8367 2.81559Z" fill="#BD9848" fill-rule="evenodd" transform="translate(99.423 1.753)" />
      <path d="M2.89796 2.77538C1.98175 2.89467 1.25642 2.45728 0.569275 1.92711C0.0857239 1.54274 -0.0797043 1.01257 0.0348206 0.402877C0.0984421 0.0450128 0.327492 -0.0875295 0.645622 0.0582674C0.874672 0.164301 1.07828 0.323352 1.26915 0.495657C1.48548 0.69447 1.67635 0.933047 1.86723 1.17162C2.22353 1.62227 2.64346 1.88735 3.24154 1.74155C3.45786 1.68854 3.71236 1.7283 3.9287 1.78132C4.06866 1.82108 4.285 1.98013 4.285 2.08616C4.29771 2.24522 4.17046 2.44403 4.05595 2.57657C3.94141 2.6826 3.76327 2.73562 3.59785 2.76213C3.36879 2.80189 3.13974 2.77538 2.89796 2.77538C2.89796 2.77538 2.89796 2.77538 2.89796 2.77538Z" fill="#BD9848" fill-rule="evenodd" transform="translate(77.411 1.754)" />
      <path d="M2.85702 2.77881C1.90264 2.87159 1.17731 2.42094 0.51561 1.87752C0.0575104 1.5064 -0.0824661 0.976232 0.0447845 0.393046C0.121132 0.0351818 0.337456 -0.0973605 0.655586 0.0749444C0.897362 0.207487 1.11368 0.393046 1.30456 0.578605C1.59723 0.856944 1.86446 1.17505 2.14441 1.46664C2.41163 1.75823 2.71703 1.86427 3.1115 1.77149C3.39146 1.70521 3.70958 1.73172 3.97681 1.81125C4.39673 1.94379 4.43491 2.27515 4.07861 2.52698C3.91318 2.64626 3.69685 2.72579 3.50598 2.7523C3.28967 2.80532 3.0479 2.77881 2.85702 2.77881C2.85702 2.77881 2.85702 2.77881 2.85702 2.77881Z" fill="#BD9848" fill-rule="evenodd" transform="translate(86.195 1.751)" />
      <path d="M1.81969 2.67735C1.65427 2.77013 1.48884 2.84966 1.32341 2.94244C0.865311 3.18101 0.470825 3.128 0 2.71712C0.178154 2.58457 0.3563 2.47854 0.509003 2.35925C0.941658 2.0279 1.32341 1.68329 1.31068 1.03383C1.31068 0.569932 1.71788 0.357865 1.98511 0C2.27778 0.331356 2.32868 0.702474 2.26506 1.06034C2.18871 1.47122 2.03601 1.85559 1.92148 2.25322C1.88332 2.38576 1.84513 2.53156 1.81969 2.67735C1.81969 2.67735 1.81969 2.67735 1.81969 2.67735C1.81969 2.67735 1.81969 2.67735 1.81969 2.67735Z" fill="#BD9848" fill-rule="evenodd" transform="translate(106.409 4.635)" />
      <path d="M2.59627 0.0162411C4.4923 -0.182573 5.89206 2.15017 5.2049 3.97925C4.88678 4.81427 4.27598 5.3842 3.34705 5.47698C3.0162 5.50349 2.67262 5.54325 2.34177 5.56976C1.45101 5.63603 0.891106 5.13237 0.445724 4.39013C0.0258026 3.67441 -0.0759964 2.90566 0.0512543 2.11041C0.242126 1.07658 1.22196 -0.156063 2.59627 0.0162411C2.59627 0.0162411 2.59627 0.0162411 2.59627 0.0162411Z" fill="#BD9848" fill-rule="evenodd" transform="translate(69.951 30.252)" />
    </g>
  </g>
</svg>