<svg id="Layer_1" data-name="Layer 1" xmlns="http://www.w3.org/2000/svg" viewBox="0 0 36 36"><path d="M18,.38C9.83.38,3.18,8.29,3.18,18S9.83,35.62,18,35.62,32.82,27.72,32.82,18h0C32.82,8.28,26.17.38,18,.38m5,6.54a9.1,9.1,0,0,0-9.92,0L18,1ZM28.08,18a13.43,13.43,0,0,1-2.58,8.05l-.79.95A9.23,9.23,0,0,1,18,30.07,9.17,9.17,0,0,1,11.29,27l-.79-.93A13.49,13.49,0,0,1,7.92,18a13.41,13.41,0,0,1,2.59-8.06L11.28,9A9.2,9.2,0,0,1,18,5.94,9.16,9.16,0,0,1,24.71,9l.78.93A13.41,13.41,0,0,1,28.08,18m-.73-5.85L32.26,18l-4.91,5.85a14.64,14.64,0,0,0,0-11.7M8.65,23.85,3.74,18l4.91-5.85a14.64,14.64,0,0,0,0,11.7m8.81-23L10.91,8.7c-.27.29-.52.59-.76.9L3.68,17.31C4,8.4,10,1.22,17.46.89M3.68,18.69l6.47,7.7a9.64,9.64,0,0,0,.76.91l6.55,7.81C10,34.78,4,27.6,3.68,18.69M13,29.08a9.1,9.1,0,0,0,9.92,0L18,35Zm5.5,6,6.55-7.8a11.25,11.25,0,0,0,.76-.92l6.47-7.7C32,27.6,26,34.78,18.54,35.11M25.85,9.6c-.24-.31-.49-.61-.76-.9L18.54.89C26,1.22,32,8.4,32.32,17.31Z" fill="#fff"/><path d="M24.43,21c0-2.32-2.3-4.11-3.83-5.3l-.6-.48-.23-.2c-.78-.7-1.67-1.49-1.67-2.56a1.79,1.79,0,0,1,2-1.78,2.52,2.52,0,0,1,1.78.79,3.09,3.09,0,0,1,.83,1.5h.06V10.68l-.05.08a.42.42,0,0,1-.34.19,3.71,3.71,0,0,1-.81-.19,6,6,0,0,0-1.46-.29,2.05,2.05,0,0,0-2.29,2.09,2.46,2.46,0,0,0,0,.37l-1.12-3L12,22.49a2.37,2.37,0,0,1-1.28,1.38l-.16.05h3.09l-.18-.05a1.52,1.52,0,0,1-.95-.69,1.65,1.65,0,0,1,.05-1.3l1.32-3.5.05-.21,2.41-6.4,2.11,5.69a4.45,4.45,0,0,0-2.55.91,3.79,3.79,0,0,0-1.4,3.1,4.39,4.39,0,0,0,1.19,3,5.28,5.28,0,0,0,3,1.53,5,5,0,0,0,1.23.1h0a4.56,4.56,0,0,0,4.5-4.79c0-.11,0-.23,0-.34m-.76.64a4,4,0,0,1-3.75,4.18h-.59a4.3,4.3,0,0,1-2.9-1.11,4,4,0,0,1-1.28-3,3.79,3.79,0,0,1,3.35-4.09l.2.55.1.2,1.51,4.1a1,1,0,0,1,0,.85,1.09,1.09,0,0,1-.61.55l-.17.05h3.23l-.17-.05a2.1,2.1,0,0,1-1.18-1.44L18.23,13.9a8.27,8.27,0,0,0,1.31,1.65l.06.07c.32.34.68.68,1,1,1.38,1.35,2.81,2.74,3,4.42a2.62,2.62,0,0,0,0,.28Z" fill="#fff"/></svg>