<?xml version="1.0" encoding="utf-8"?>
<!-- Generator: Adobe Illustrator 22.1.0, SVG Export Plug-In . SVG Version: 6.00 Build 0)  -->
<svg version="1.1" id="Layer_1" xmlns="http://www.w3.org/2000/svg" xmlns:xlink="http://www.w3.org/1999/xlink" x="0px" y="0px"
	 viewBox="0 0 339 306" style="enable-background:new 0 0 339 306;" xml:space="preserve">
<style type="text/css">
	.st0{fill:none;}
	.st1{fill:#D4A13A;}
</style>
<g>
	<path class="st0" d="M102.9,244.5c-1.3,1.8-3.8,9.8,13.6,9.4l0,0c0,0,0,0,0.1,0c2.2,0,4.3-0.2,6.4-0.5c0,0,0,0,0,0
		c-4.5-9.2-6.8-18-7.8-25.5L102.9,244.5z"/>
	<path class="st0" d="M141.5,253.3C141.5,253.4,141.5,253.4,141.5,253.3c-1.6,0.8-3.2,1.5-4.8,2.2c-0.1,0.1-0.2,0.1-0.4,0.2
		c-1.4,0.6-2.8,1.1-4.3,1.6c1.3,1.6,2.7,3.3,4.2,4.8c12.1,12.6,16,5.2,16.3,2.9l3.1-20.3C151.7,247.7,147,250.7,141.5,253.3
		L141.5,253.3z"/>
	<path class="st0" d="M117.6,212l23.5-28.8l-23.2,24.1C117.9,207.4,117.7,209.2,117.6,212z"/>
	<path class="st0" d="M166.6,160.8c-4.1,3.7-7.9,7.7-11.1,12.2l-37.2,50.6c1.1,8.4,3.9,18.9,10.3,29c0,0,0,0,0.1,0
		c0.2,0,0.4-0.1,0.6-0.1c0.7-0.2,1.5-0.3,2.2-0.5c0.2-0.1,0.4-0.1,0.6-0.2c0.7-0.2,1.4-0.4,2.1-0.6c0.2-0.1,0.4-0.1,0.5-0.2
		c0.8-0.2,1.5-0.5,2.2-0.8c0.1,0,0.2-0.1,0.3-0.1c0.8-0.3,1.7-0.6,2.5-1l0,0c6.6-2.7,12.2-6.3,16.6-9.6l9.5-62
		C166.8,171.8,167,166.3,166.6,160.8z M157.9,191.1c-0.7,1.8-2.8,2.7-4.6,1.9c-1.8-0.7-2.7-2.8-1.9-4.6c0.7-1.8,2.8-2.7,4.6-1.9
		C157.8,187.2,158.7,189.3,157.9,191.1z"/>
	<path class="st0" d="M162.6,156.8c-5.5-0.3-11-0.1-16.5,0.7l-62,9.5c-3.4,4.4-6.9,10-9.7,16.6l0,0c-1,2.5-2,5.1-2.7,7.9
		c0,0.1,0,0.1,0,0.2c-0.2,0.9-0.5,1.8-0.7,2.7c0,0.1,0,0.1,0,0.2c0,0.1,0,0.1,0,0.2c10.1,6.4,20.6,9.2,28.9,10.3l50.6-37.2
		C154.9,164.7,158.9,160.9,162.6,156.8z M135,172c-1.8,0.7-3.9-0.1-4.6-1.9c-0.7-1.8,0.1-3.9,1.9-4.6c1.8-0.7,3.9,0.1,4.6,1.9
		C137.7,169.2,136.8,171.3,135,172z"/>
	<path class="st0" d="M128.7,154.6l-33.5,0.6c0,0-1.4,1.1-3.5,3.1L128.7,154.6z"/>
	<path class="st0" d="M58.4,170.9c-2.2,0.3-9.7,4.2,2.9,16.3c1.6,1.5,3.2,2.9,4.8,4.2c3.3-9.7,8-17.5,12.5-23.6L58.4,170.9z"/>
	<path class="st0" d="M69.5,206.9C69.5,206.9,69.5,206.9,69.5,206.9L69.5,206.9c-0.4,17.4,7.6,14.9,9.4,13.6l16.5-12.1
		c-7.5-1.1-16.3-3.4-25.5-7.8C69.7,202.6,69.5,204.7,69.5,206.9z"/>
	<path class="st0" d="M168.2,228.2l0.6-33.5l-3.8,37C167.1,229.6,168.1,228.2,168.2,228.2z"/>
	<path class="st0" d="M140.2,182.3l-28.8,23.5c2.9-0.1,4.6-0.3,4.7-0.3L140.2,182.3z"/>
	<path class="st0" d="M128.7,153.2l-37-3.8c2.1,2,3.4,3.1,3.5,3.1L128.7,153.2z"/>
	<path class="st0" d="M197.5,54.5C197.5,54.5,197.5,54.5,197.5,54.5c1.6-0.8,3.2-1.5,4.9-2.2c0.1,0,0.2-0.1,0.3-0.1
		c1.4-0.6,2.8-1.1,4.3-1.6c-1.3-1.6-2.7-3.3-4.2-4.8c-12.1-12.6-16-5.2-16.3-2.9l-3.1,20.3C187.3,60.1,192,57.1,197.5,54.5
		L197.5,54.5z"/>
	<path class="st0" d="M172.4,147c4.1-3.7,7.9-7.7,11.1-12.2l37.2-50.6c-1.1-8.4-3.9-18.9-10.3-29c0,0,0,0-0.1,0
		c-0.2,0-0.4,0.1-0.6,0.1c-0.7,0.2-1.5,0.4-2.2,0.5c-0.2,0.1-0.4,0.1-0.6,0.2c-0.7,0.2-1.4,0.4-2.1,0.6c-0.2,0.1-0.4,0.1-0.5,0.2
		c-0.8,0.2-1.5,0.5-2.2,0.8c-0.1,0-0.2,0.1-0.3,0.1c-0.8,0.3-1.7,0.6-2.5,1l0,0c-6.6,2.7-12.2,6.3-16.6,9.6l-9.5,62
		C172.2,136,172,141.5,172.4,147z M181.1,116.7c0.7-1.8,2.8-2.7,4.6-1.9c1.8,0.7,2.7,2.8,1.9,4.6c-0.7,1.8-2.8,2.7-4.6,1.9
		C181.2,120.6,180.3,118.5,181.1,116.7z"/>
	<path class="st0" d="M170.8,228.2c0,0,1.1,1.4,3.1,3.5l-3.8-37L170.8,228.2z"/>
	<path class="st0" d="M236.1,63.3c1.3-1.8,3.8-9.8-13.6-9.4l0,0c0,0,0,0-0.1,0c-2.2,0-4.3,0.2-6.4,0.5c0,0,0,0,0,0
		c4.5,9.2,6.8,18,7.8,25.5L236.1,63.3z"/>
	<path class="st0" d="M165.1,76.2l3.8,37l-0.6-33.5C168.1,79.6,167.1,78.2,165.1,76.2z"/>
	<path class="st0" d="M170.8,79.6l-0.6,33.5l3.8-37C171.9,78.2,170.9,79.6,170.8,79.6z"/>
	<path class="st0" d="M197.9,124.6l23.2-24.1c0-0.1,0.2-1.8,0.3-4.7L197.9,124.6z"/>
	<path class="st0" d="M269.5,100.9C269.5,100.9,269.5,100.9,269.5,100.9L269.5,100.9c0.4-17.4-7.6-14.9-9.4-13.6l-16.5,12.1
		c7.5,1.1,16.3,3.4,25.5,7.8C269.3,105.3,269.5,103.1,269.5,100.9z"/>
	<path class="st0" d="M280.6,136.9c2.2-0.3,9.7-4.2-2.9-16.3c-1.6-1.5-3.2-2.9-4.8-4.2c-3.3,9.7-8,17.5-12.5,23.6L280.6,136.9z"/>
	<path class="st0" d="M198.8,125.6l28.8-23.5c-2.9,0.1-4.6,0.3-4.7,0.3L198.8,125.6z"/>
	<path class="st0" d="M152.5,42.8c-0.3-2.2-4.2-9.7-16.3,2.9c-1.5,1.6-2.9,3.2-4.2,4.8c9.7,3.3,17.5,8,23.6,12.5L152.5,42.8z"/>
	<path class="st0" d="M116,102.3c-0.1,0-1.8-0.2-4.7-0.3l28.8,23.5L116,102.3z"/>
	<path class="st0" d="M122.9,54.4c-2.1-0.3-4.2-0.4-6.4-0.5c0,0,0,0-0.1,0l0,0c-17.4-0.4-14.9,7.6-13.5,9.4l12.1,16.5
		C116.2,72.4,118.4,63.5,122.9,54.4z"/>
	<path class="st0" d="M69.5,101c0,2.2,0.2,4.3,0.5,6.4c0,0,0,0,0,0c9.2-4.5,18-6.8,25.5-7.8L78.9,87.3C77.1,86,69.1,83.5,69.5,101
		L69.5,101C69.5,100.9,69.5,100.9,69.5,101z"/>
	<path class="st0" d="M70.1,125.9C70.1,125.9,70.1,125.9,70.1,125.9c-0.8-1.6-1.5-3.2-2.2-4.9c0-0.1-0.1-0.2-0.1-0.3
		c-0.6-1.4-1.1-2.8-1.6-4.3c-1.6,1.3-3.3,2.7-4.8,4.2c-12.6,12.1-5.2,16-2.9,16.3l20.3,3.1C75.7,136.1,72.7,131.4,70.1,125.9
		L70.1,125.9z"/>
	<path class="st0" d="M162.6,151.1c-3.7-4.1-7.7-7.9-12.2-11.1l-50.6-37.2c-8.4,1.1-18.9,3.9-28.9,10.3c0,0,0,0,0,0.1
		c0,0.2,0.1,0.4,0.1,0.6c0.2,0.7,0.3,1.5,0.5,2.2c0.1,0.2,0.1,0.4,0.2,0.6c0.2,0.7,0.4,1.4,0.6,2.1c0.1,0.2,0.1,0.4,0.2,0.6
		c0.2,0.7,0.5,1.5,0.8,2.2c0,0.1,0.1,0.2,0.1,0.3c0.3,0.8,0.6,1.6,1,2.4l0,0c2.7,6.6,6.3,12.2,9.6,16.6l62,9.5
		C151.6,151.2,157.1,151.4,162.6,151.1z M136.9,140.4c-0.7,1.8-2.8,2.7-4.6,1.9c-1.8-0.7-2.7-2.8-1.9-4.6c0.7-1.8,2.8-2.7,4.6-1.9
		C136.8,136.6,137.7,138.6,136.9,140.4z"/>
	<path class="st0" d="M186.5,265c0.3,2.2,4.2,9.7,16.3-2.9c1.5-1.6,2.9-3.2,4.2-4.8c-9.7-3.3-17.5-8-23.6-12.5L186.5,265z"/>
	<path class="st0" d="M117.9,100.5l23.2,24.1l-23.5-28.8C117.7,98.7,117.9,100.4,117.9,100.5z"/>
	<path class="st0" d="M155.5,134.9c3.3,4.4,7,8.5,11.1,12.2c0.3-5.5,0.1-11-0.7-16.5l-9.5-62c-4.4-3.4-10-6.9-16.6-9.7l0,0
		c-2.5-1-5.1-2-7.9-2.7c0,0-0.1,0-0.1,0c-0.9-0.2-1.8-0.5-2.7-0.7c-0.1,0-0.1,0-0.2,0c-0.1,0-0.1,0-0.2,0
		c-6.4,10.1-9.2,20.6-10.3,28.9L155.5,134.9z M153.3,114.8c1.8-0.7,3.9,0.1,4.6,1.9c0.7,1.8-0.1,3.9-1.9,4.6
		c-1.8,0.7-3.9-0.1-4.6-1.9C150.6,117.6,151.5,115.6,153.3,114.8z"/>
	<path class="st0" d="M247.3,158.3c-2.1-2-3.4-3.1-3.5-3.1l-33.5-0.6L247.3,158.3z"/>
	<path class="st0" d="M247.3,149.5l-37,3.8l33.5-0.6C243.8,152.6,245.2,151.5,247.3,149.5z"/>
	<path class="st0" d="M221.1,207.4l-23.2-24.1l23.5,28.8C221.3,209.2,221.1,207.4,221.1,207.4z"/>
	<path class="st0" d="M176.4,156.8c3.7,4.1,7.7,7.9,12.2,11.1l50.6,37.2c8.4-1.1,18.9-3.9,29-10.3c0,0,0,0,0-0.1
		c0-0.2-0.1-0.4-0.1-0.6c-0.2-0.7-0.3-1.5-0.5-2.2c-0.1-0.2-0.1-0.4-0.2-0.6c-0.2-0.7-0.4-1.4-0.6-2.1c-0.1-0.2-0.1-0.4-0.2-0.6
		c-0.2-0.7-0.5-1.5-0.8-2.2c0-0.1-0.1-0.2-0.1-0.3c-0.3-0.8-0.6-1.6-1-2.4l0,0c-2.7-6.6-6.3-12.2-9.6-16.6l-62-9.5
		C187.4,156.7,181.9,156.4,176.4,156.8z M202.1,167.4c0.7-1.8,2.8-2.7,4.6-1.9c1.8,0.7,2.7,2.8,1.9,4.6c-0.7,1.8-2.8,2.7-4.6,1.9
		C202.2,171.3,201.3,169.2,202.1,167.4z"/>
	<path class="st0" d="M268.9,181.9C268.9,181.9,268.9,181.9,268.9,181.9c0.8,1.6,1.5,3.2,2.2,4.8c0.1,0.1,0.1,0.2,0.2,0.4
		c0.6,1.4,1.1,2.8,1.6,4.3c1.6-1.3,3.3-2.7,4.8-4.2c12.6-12.1,5.2-16,2.9-16.3l-20.3-3.1C263.3,171.7,266.3,176.4,268.9,181.9
		L268.9,181.9z"/>
	<path class="st0" d="M223,205.5c0.1,0,1.8,0.2,4.7,0.3l-28.8-23.5L223,205.5z"/>
	<path class="st0" d="M216.1,253.5c2.1,0.3,4.2,0.4,6.4,0.5c0,0,0,0,0.1,0l0,0c17.4,0.4,14.9-7.6,13.5-9.4L223.9,228
		C222.8,235.5,220.6,244.3,216.1,253.5z"/>
	<path class="st0" d="M269.5,206.9c0-2.2-0.2-4.3-0.5-6.4c0,0,0,0,0,0c-9.2,4.5-18,6.8-25.5,7.8l16.5,12.1
		C261.9,221.8,269.9,224.3,269.5,206.9L269.5,206.9C269.5,206.9,269.5,206.9,269.5,206.9z"/>
	<path class="st0" d="M264.6,124.2L264.6,124.2c1-2.5,2-5.1,2.7-7.9c0-0.1,0-0.1,0-0.2c0.2-0.9,0.5-1.8,0.7-2.7c0-0.1,0-0.1,0-0.2
		c0-0.1,0-0.1,0-0.2c-10.1-6.4-20.6-9.2-28.9-10.3l-50.6,37.2c-4.4,3.3-8.5,7-12.2,11.1c5.5,0.3,11,0.1,16.5-0.7l62-9.5
		C258.3,136.4,261.8,130.9,264.6,124.2z M206.7,142.3c-1.8,0.7-3.9-0.1-4.6-1.9c-0.7-1.8,0.1-3.9,1.9-4.6c1.8-0.7,3.9,0.1,4.6,1.9
		C209.3,139.5,208.5,141.6,206.7,142.3z"/>
	<path class="st0" d="M183.5,173c-3.3-4.4-7-8.5-11.1-12.2c-0.3,5.5-0.1,11,0.7,16.5l9.5,62c4.4,3.4,10,6.9,16.6,9.7l0,0
		c2.5,1,5.1,2,7.9,2.7c0,0,0.1,0,0.1,0c0.9,0.2,1.8,0.5,2.7,0.7c0.1,0,0.1,0,0.2,0c0.1,0,0.1,0,0.2,0c6.4-10.1,9.2-20.6,10.3-28.9
		L183.5,173z M185.7,193c-1.8,0.7-3.9-0.1-4.6-1.9c-0.7-1.8,0.1-3.9,1.9-4.6c1.8-0.7,3.9,0.1,4.6,1.9
		C188.4,190.2,187.5,192.3,185.7,193z"/>
	<path class="st1" d="M305.6,143.6c-3.2-7.4-7.8-14.1-13.4-19.8c-0.4-0.4-0.7-0.7-1.1-1.1c-5.4-5.1-10.9-9.1-16.4-12.3
		c1.6-6.1,2.7-12.9,2.9-20.3c0-0.5,0-1,0-1.5c0-8-1.6-16-4.5-23.5l-41.2,33.6c-3.2,0-5.7,0.1-7.4,0.3c0.2-1.6,0.3-4.2,0.3-7.4
		l33.6-41.2c-7.5-3-15.5-4.5-23.5-4.5c-0.5,0-1,0-1.5,0c-7,0.2-13.5,1.1-19.4,2.6c-0.1,0-0.2,0.1-0.3,0.1c-0.2,0.1-0.4,0.1-0.6,0.2
		c-3.2-5.5-7.2-11-12.3-16.4c-0.3-0.4-0.7-0.7-1.1-1.1c-5.7-5.7-12.4-10.2-19.8-13.4l-5.4,52.8c-2.3,2.2-3.9,4.1-5,5.4
		c-1-1.3-2.7-3.2-5-5.4l-5.4-52.8c-7.4,3.2-14.1,7.8-19.8,13.4c-0.4,0.4-0.7,0.7-1.1,1.1c-5.1,5.4-9.1,10.9-12.3,16.4
		c-6.1-1.6-12.9-2.7-20.3-2.9c-0.5,0-1,0-1.5,0c-8,0-16,1.6-23.5,4.5l33.6,41.2c0,3.2,0.1,5.7,0.3,7.4c-1.6-0.2-4.2-0.3-7.4-0.3
		L66,65c-3,7.5-4.5,15.5-4.5,23.5c0,0.5,0,1,0,1.5c0.2,7,1.1,13.5,2.6,19.4c0,0.1,0.1,0.2,0.1,0.3c0.1,0.2,0.1,0.4,0.2,0.6
		c-5.5,3.2-11,7.2-16.4,12.3c-0.4,0.3-0.7,0.7-1.1,1.1c-5.7,5.7-10.2,12.4-13.4,19.8l52.8,5.4c2.2,2.3,4.1,3.9,5.4,5
		c-1.3,1-3.2,2.7-5.4,5l-52.8,5.4c3.2,7.4,7.8,14.1,13.4,19.8c0.4,0.4,0.7,0.7,1.1,1.1c5.4,5.1,10.9,9.1,16.4,12.3
		c-1.6,6.1-2.7,12.9-2.8,20.3c0,0.5,0,1,0,1.5c0,8,1.6,16,4.5,23.5l41.2-33.6c3.2,0,5.7-0.1,7.4-0.3c-0.2,1.6-0.3,4.2-0.3,7.4
		l-33.6,41.2c7.5,3,15.5,4.5,23.5,4.5c0.5,0,1,0,1.5,0c7-0.2,13.5-1.1,19.4-2.6c0.1,0,0.2-0.1,0.4-0.1c0.2,0,0.4-0.1,0.6-0.2
		c3.2,5.5,7.2,11,12.3,16.4c0.3,0.4,0.7,0.7,1.1,1.1c5.7,5.7,12.4,10.2,19.8,13.4l5.4-52.8c2.3-2.2,3.9-4.1,5-5.4
		c1,1.3,2.7,3.2,5,5.4l5.4,52.8c7.4-3.2,14.1-7.7,19.8-13.4c0.4-0.4,0.7-0.7,1.1-1.1c5.1-5.4,9.1-10.9,12.3-16.4
		c6.1,1.6,12.9,2.7,20.3,2.9c0.5,0,1,0,1.5,0c8,0,16-1.6,23.5-4.5l-33.6-41.2c0-3.2-0.1-5.7-0.3-7.4c1.6,0.2,4.2,0.3,7.4,0.3
		l41.2,33.6c3-7.5,4.5-15.5,4.5-23.5c0-0.5,0-1,0-1.5c-0.2-7-1.1-13.5-2.6-19.4c0-0.1-0.1-0.2-0.1-0.3c-0.1-0.2-0.1-0.4-0.2-0.6
		c5.5-3.2,11-7.2,16.4-12.3c0.4-0.3,0.7-0.7,1.1-1.1c5.7-5.7,10.2-12.4,13.4-19.8l-52.8-5.4c-2.2-2.3-4.1-3.9-5.4-5
		c1.3-1,3.2-2.7,5.4-5L305.6,143.6z M136.2,45.7c12.1-12.6,16-5.2,16.3-2.9l3.1,20.3c-6.1-4.5-13.9-9.2-23.6-12.5
		C133.3,48.9,134.7,47.3,136.2,45.7z M128.7,55.3c0.1,0,0.1,0,0.2,0c0.1,0,0.1,0,0.2,0c0.9,0.2,1.8,0.4,2.7,0.7c0,0,0.1,0,0.1,0
		c2.8,0.8,5.4,1.7,7.9,2.7l0,0c6.6,2.8,12.2,6.3,16.6,9.7l9.5,62c0.8,5.5,1,11,0.7,16.5c-4.1-3.7-7.9-7.7-11.1-12.2l-37.2-50.6
		C119.4,75.9,122.2,65.4,128.7,55.3z M141.1,124.6l-23.2-24.1c0-0.1-0.2-1.8-0.3-4.7L141.1,124.6z M102.9,63.3
		c-1.3-1.8-3.8-9.8,13.5-9.4l0,0c0,0,0,0,0.1,0c2.2,0,4.3,0.2,6.4,0.5c-4.5,9.2-6.8,18-7.8,25.5L102.9,63.3z M116,102.3l24.1,23.2
		l-28.8-23.5C114.3,102.1,116,102.3,116,102.3z M78.9,87.3l16.5,12.1c-7.5,1.1-16.3,3.4-25.5,7.8c0,0,0,0,0,0
		c-0.3-2.1-0.4-4.2-0.5-6.4c0,0,0,0,0-0.1l0,0C69.1,83.5,77.1,86,78.9,87.3z M58.4,136.9c-2.2-0.3-9.7-4.2,2.9-16.3
		c1.6-1.5,3.2-2.9,4.8-4.2c0.5,1.5,1,2.9,1.6,4.3c0,0.1,0.1,0.2,0.1,0.3c0.7,1.7,1.4,3.3,2.2,4.9c0,0,0,0,0,0l0,0
		c2.6,5.5,5.6,10.2,8.6,14.1L58.4,136.9z M84.1,140.9c-3.4-4.4-6.9-10-9.6-16.6l0,0c-0.3-0.8-0.7-1.6-1-2.4c0-0.1-0.1-0.2-0.1-0.3
		c-0.3-0.7-0.5-1.5-0.8-2.2c-0.1-0.2-0.1-0.4-0.2-0.6c-0.2-0.7-0.4-1.4-0.6-2.1c-0.1-0.2-0.1-0.4-0.2-0.6c-0.2-0.7-0.4-1.4-0.5-2.2
		c0-0.2-0.1-0.4-0.1-0.6c0,0,0,0,0-0.1c10.1-6.4,20.6-9.2,28.9-10.3l50.6,37.2c4.4,3.3,8.5,7,12.2,11.1c-5.5,0.3-11,0.1-16.5-0.7
		L84.1,140.9z M95.2,155.2l33.5-0.6l-37,3.8C93.8,156.3,95.2,155.3,95.2,155.2z M91.7,149.5l37,3.8l-33.5-0.6
		C95.2,152.6,93.8,151.5,91.7,149.5z M61.3,187.2c-12.6-12.1-5.2-16-2.9-16.3l20.3-3.1c-4.5,6.1-9.2,13.9-12.5,23.6
		C64.5,190.1,62.9,188.7,61.3,187.2z M78.9,220.5c-1.8,1.3-9.8,3.8-9.4-13.5l0,0c0,0,0,0,0-0.1c0-2.2,0.2-4.3,0.5-6.4
		c9.2,4.5,18,6.8,25.5,7.8L78.9,220.5z M99.9,205.1c-8.4-1.1-18.9-3.9-28.9-10.3c0-0.1,0-0.1,0-0.2c0-0.1,0-0.1,0-0.2
		c0.2-0.9,0.4-1.8,0.7-2.7c0-0.1,0-0.1,0-0.2c0.8-2.8,1.7-5.4,2.7-7.9l0,0c2.8-6.6,6.3-12.2,9.7-16.6l62-9.5c5.5-0.8,11-1,16.5-0.7
		c-3.7,4.1-7.7,7.9-12.2,11.1L99.9,205.1z M111.4,205.8l28.8-23.5L116,205.5C116,205.5,114.3,205.7,111.4,205.8z M141.1,183.2
		L117.6,212c0.1-2.9,0.3-4.6,0.3-4.7L141.1,183.2z M122.9,253.5c-2.1,0.3-4.2,0.4-6.4,0.5c0,0,0,0-0.1,0l0,0
		c-17.4,0.4-14.9-7.6-13.6-9.4l12.1-16.5C116.2,235.5,118.4,244.3,122.9,253.5C122.9,253.5,122.9,253.5,122.9,253.5z M152.5,265
		c-0.3,2.2-4.2,9.7-16.3-2.9c-1.5-1.6-2.9-3.2-4.2-4.8c1.5-0.5,2.9-1,4.3-1.6c0.1-0.1,0.2-0.1,0.4-0.2c1.7-0.7,3.3-1.4,4.8-2.1
		c0,0,0,0,0,0l0,0c5.5-2.6,10.2-5.6,14.1-8.6L152.5,265z M156.4,239.3c-4.4,3.4-10,6.9-16.6,9.6l0,0c-0.8,0.3-1.6,0.7-2.5,1
		c-0.1,0-0.2,0.1-0.3,0.1c-0.7,0.3-1.5,0.5-2.2,0.8c-0.2,0.1-0.4,0.1-0.5,0.2c-0.7,0.2-1.4,0.4-2.1,0.6c-0.2,0.1-0.4,0.1-0.6,0.2
		c-0.7,0.2-1.5,0.4-2.2,0.5c-0.2,0-0.4,0.1-0.6,0.1c0,0,0,0-0.1,0c-6.5-10.1-9.2-20.6-10.3-29l37.2-50.6c3.3-4.4,7-8.5,11.1-12.2
		c0.3,5.5,0.1,11-0.7,16.5L156.4,239.3z M168.2,228.2c0,0-1.1,1.4-3.1,3.5l3.8-37L168.2,228.2z M165.1,76.2c2,2.1,3.1,3.4,3.1,3.5
		l0.6,33.5L165.1,76.2z M277.7,120.6c12.6,12.1,5.2,16,2.9,16.3l-20.3,3.1c4.5-6.1,9.2-13.9,12.5-23.6
		C274.5,117.7,276.1,119.1,277.7,120.6z M260.1,87.3c1.8-1.3,9.8-3.8,9.4,13.5l0,0c0,0,0,0,0,0.1c0,2.2-0.2,4.3-0.5,6.4
		c-9.2-4.5-18-6.8-25.5-7.8L260.1,87.3z M227.6,102.1l-28.8,23.5l24.1-23.2C223,102.3,224.7,102.1,227.6,102.1z M197.9,124.6
		l23.5-28.8c-0.1,2.9-0.3,4.6-0.3,4.7L197.9,124.6z M216.1,54.3c2.1-0.3,4.2-0.4,6.4-0.5c0,0,0,0,0.1,0l0,0
		c17.4-0.4,14.9,7.6,13.6,9.4l-12.1,16.5C222.8,72.4,220.6,63.5,216.1,54.3C216.1,54.3,216.1,54.3,216.1,54.3z M186.5,42.8
		c0.3-2.2,4.2-9.7,16.3,2.9c1.5,1.6,2.9,3.2,4.2,4.8c-1.5,0.5-2.9,1-4.3,1.6c-0.1,0-0.2,0.1-0.3,0.1c-1.7,0.7-3.3,1.4-4.9,2.2
		c0,0,0,0,0,0l0,0c-5.5,2.6-10.2,5.6-14.1,8.6L186.5,42.8z M182.6,68.5c4.4-3.4,10-6.9,16.6-9.6l0,0c0.8-0.3,1.6-0.7,2.5-1
		c0.1,0,0.2-0.1,0.3-0.1c0.7-0.3,1.5-0.5,2.2-0.8c0.2-0.1,0.4-0.1,0.5-0.2c0.7-0.2,1.4-0.4,2.1-0.6c0.2-0.1,0.4-0.1,0.6-0.2
		c0.7-0.2,1.5-0.4,2.2-0.5c0.2,0,0.4-0.1,0.6-0.1c0,0,0,0,0.1,0c6.5,10.1,9.2,20.6,10.3,29l-37.2,50.6c-3.3,4.4-7,8.5-11.1,12.2
		c-0.3-5.5-0.1-11,0.7-16.5L182.6,68.5z M170.8,79.6c0,0,1.1-1.4,3.1-3.5l-3.8,37L170.8,79.6z M170.8,228.2l-0.6-33.5l3.8,37
		C171.9,229.6,170.9,228.2,170.8,228.2z M202.8,262.1c-12.1,12.6-16,5.2-16.3,2.9l-3.1-20.3c6.1,4.5,13.9,9.2,23.6,12.5
		C205.7,258.9,204.3,260.5,202.8,262.1z M210.3,252.5c-0.1,0-0.1,0-0.2,0c-0.1,0-0.1,0-0.2,0c-0.9-0.2-1.8-0.4-2.7-0.7
		c0,0-0.1,0-0.1,0c-2.8-0.8-5.4-1.7-7.9-2.7l0,0c-6.6-2.8-12.2-6.3-16.6-9.7l-9.5-62c-0.8-5.5-1-11-0.7-16.5
		c4.1,3.7,7.9,7.7,11.1,12.2l37.2,50.6C219.6,231.9,216.8,242.4,210.3,252.5z M197.9,183.2l23.2,24.1c0,0.1,0.2,1.8,0.3,4.7
		L197.9,183.2z M236.1,244.5c1.3,1.8,3.8,9.8-13.5,9.4l0,0c0,0,0,0-0.1,0c-2.2,0-4.3-0.2-6.4-0.5c4.5-9.2,6.8-18,7.8-25.5
		L236.1,244.5z M223,205.5l-24.1-23.2l28.8,23.5C224.7,205.7,223,205.5,223,205.5z M260.1,220.5l-16.5-12.1
		c7.5-1.1,16.3-3.4,25.5-7.8c0,0,0,0,0,0c0.3,2.1,0.4,4.2,0.5,6.4c0,0,0,0,0,0.1l0,0C269.9,224.3,261.9,221.8,260.1,220.5z
		 M280.6,170.9c2.2,0.3,9.7,4.2-2.9,16.3c-1.6,1.5-3.2,2.9-4.8,4.2c-0.5-1.5-1-2.9-1.6-4.3c-0.1-0.1-0.1-0.2-0.2-0.4
		c-0.7-1.7-1.4-3.3-2.1-4.8c0,0,0,0,0,0l0,0c-2.6-5.5-5.6-10.2-8.6-14.1L280.6,170.9z M254.9,167c3.4,4.4,6.9,10,9.6,16.6l0,0
		c0.3,0.8,0.7,1.6,1,2.4c0,0.1,0.1,0.2,0.1,0.3c0.3,0.7,0.5,1.5,0.8,2.2c0.1,0.2,0.1,0.4,0.2,0.6c0.2,0.7,0.4,1.4,0.6,2.1
		c0.1,0.2,0.1,0.4,0.2,0.6c0.2,0.7,0.4,1.4,0.5,2.2c0,0.2,0.1,0.4,0.1,0.6c0,0,0,0,0,0.1c-10.1,6.5-20.6,9.2-29,10.3l-50.6-37.2
		c-4.4-3.3-8.5-7-12.2-11.1c5.5-0.3,11-0.1,16.5,0.7L254.9,167z M243.8,155.2c0,0,1.4,1.1,3.5,3.1l-37-3.8L243.8,155.2z
		 M210.3,153.2l37-3.8c-2.1,2-3.4,3.1-3.5,3.1L210.3,153.2z M192.9,150.3c-5.5,0.8-11,1-16.5,0.7c3.7-4.1,7.7-7.9,12.2-11.1
		l50.6-37.2c8.4,1.1,18.9,3.9,28.9,10.3c0,0.1,0,0.1,0,0.2c0,0.1,0,0.1,0,0.2c-0.2,0.9-0.4,1.8-0.7,2.7c0,0.1,0,0.1,0,0.2
		c-0.8,2.8-1.7,5.4-2.7,7.9l0,0c-2.8,6.6-6.3,12.2-9.7,16.6L192.9,150.3z"/>
	<path class="st1" d="M156,121.3c1.8-0.7,2.7-2.8,1.9-4.6c-0.7-1.8-2.8-2.7-4.6-1.9c-1.8,0.7-2.7,2.8-1.9,4.6
		C152.1,121.2,154.2,122.1,156,121.3z"/>
	<path class="st1" d="M183,121.3c1.8,0.7,3.9-0.1,4.6-1.9c0.7-1.8-0.1-3.9-1.9-4.6c-1.8-0.7-3.9,0.1-4.6,1.9
		C180.3,118.5,181.2,120.6,183,121.3z"/>
	<path class="st1" d="M204,135.8c-1.8,0.7-2.7,2.8-1.9,4.6c0.7,1.8,2.8,2.7,4.6,1.9c1.8-0.7,2.7-2.8,1.9-4.6
		C207.9,135.9,205.8,135.1,204,135.8z"/>
	<path class="st1" d="M204,172c1.8,0.7,3.9-0.1,4.6-1.9c0.7-1.8-0.1-3.9-1.9-4.6c-1.8-0.7-3.9,0.1-4.6,1.9
		C201.3,169.2,202.2,171.3,204,172z"/>
	<path class="st1" d="M183,186.5c-1.8,0.7-2.7,2.8-1.9,4.6c0.7,1.8,2.8,2.7,4.6,1.9c1.8-0.7,2.7-2.8,1.9-4.6
		C186.9,186.6,184.8,185.7,183,186.5z"/>
	<path class="st1" d="M156,186.5c-1.8-0.7-3.9,0.1-4.6,1.9c-0.7,1.8,0.1,3.9,1.9,4.6c1.8,0.7,3.9-0.1,4.6-1.9
		C158.7,189.3,157.8,187.2,156,186.5z"/>
	<path class="st1" d="M132.3,165.5c-1.8,0.7-2.7,2.8-1.9,4.6c0.7,1.8,2.8,2.7,4.6,1.9c1.8-0.7,2.7-2.8,1.9-4.6
		C136.2,165.6,134.1,164.8,132.3,165.5z"/>
	<path class="st1" d="M135,135.8c-1.8-0.7-3.9,0.1-4.6,1.9c-0.7,1.8,0.1,3.9,1.9,4.6c1.8,0.7,3.9-0.1,4.6-1.9
		C137.7,138.6,136.8,136.6,135,135.8z"/>
</g>
</svg>
