<?xml version="1.0" encoding="utf-8"?>
<!-- Generator: Adobe Illustrator 23.1.0, SVG Export Plug-In . SVG Version: 6.00 Build 0)  -->
<svg version="1.1" id="Layer_1" xmlns="http://www.w3.org/2000/svg" xmlns:xlink="http://www.w3.org/1999/xlink" x="0px" y="0px"
	 viewBox="0 0 1200 350" style="enable-background:new 0 0 1200 350;" xml:space="preserve">
<style type="text/css">
	.st0{clip-path:url(#SVGID_3_);fill:url(#SVGID_4_);}
	.st1{clip-path:url(#SVGID_6_);fill:url(#SVGID_7_);}
	.st2{clip-path:url(#SVGID_9_);fill:url(#SVGID_10_);}
	.st3{clip-path:url(#SVGID_12_);fill:url(#SVGID_13_);}
	.st4{clip-path:url(#SVGID_15_);fill:url(#SVGID_16_);}
	.st5{clip-path:url(#SVGID_18_);fill:url(#SVGID_19_);}
	.st6{clip-path:url(#SVGID_21_);fill:url(#SVGID_22_);}
	.st7{clip-path:url(#SVGID_24_);fill:url(#SVGID_25_);}
	.st8{clip-path:url(#SVGID_27_);fill:url(#SVGID_28_);}
	.st9{clip-path:url(#SVGID_30_);fill:url(#SVGID_31_);}
	.st10{clip-path:url(#SVGID_33_);fill:url(#SVGID_34_);}
	.st11{clip-path:url(#SVGID_36_);fill:url(#SVGID_37_);}
</style>
<g>
	<g>
		<defs>
			<path id="SVGID_1_" d="M160.13,52.72c-0.53,0.06-1.08,0.08-1.57,0.19c-1,0.2-2.01,0.42-2.89,0.75c-1.86,0.61-3.41,1.45-4.88,2.33
				c-0.68,0.46-1.4,0.92-2.03,1.4c-0.62,0.49-1.29,0.97-1.84,1.49c-2.34,2.04-4.27,4.22-6.01,6.46c-1.74,2.24-3.24,4.56-4.6,6.92
				c-1.36,2.36-2.6,4.76-3.69,7.2c-2.19,4.89-3.93,9.91-5.24,15.06c-0.65,2.57-1.21,5.17-1.64,7.8c-0.45,2.62-0.76,5.28-0.96,7.95
				c-0.22,2.67-0.25,5.37-0.2,8.07l0.23,4.07c0.02,0.68,0.11,1.36,0.2,2.03l0.25,2.03c0.75,5.41,2.11,10.76,4.07,15.85
				c1.94,5.1,4.5,9.88,7.32,14.35c4.21,6.62,9.02,12.53,13.85,18.12c0.05,0.06,0.1,0.12,0.15,0.17c-0.06,0.05-0.11,0.1-0.17,0.15
				c-0.19,0.17-0.39,0.34-0.58,0.5c-4.75,4.08-9.49,7.91-14.43,11.15c-0.4,0.27-0.81,0.53-1.22,0.79c-3.78,2.39-7.67,4.46-11.7,5.99
				c-4.03,1.54-8.2,2.6-12.46,3.19c-3.59,0.52-7.26,0.67-10.96,0.51c-5.08-0.22-10.2-1.03-15.2-2.29c-4.32-1.1-8.56-2.57-12.58-4.37
				c-2.02-0.9-3.96-1.91-5.83-2.98c-1.87-1.07-3.65-2.24-5.27-3.5c-0.26-0.2-0.51-0.4-0.76-0.6c0,0,0,0-0.01,0
				c-1.32-1.07-2.51-2.2-3.5-3.33c-0.05-0.05-0.1-0.1-0.14-0.16c-0.06-0.07-0.11-0.13-0.16-0.2c-0.17-0.21-0.34-0.42-0.51-0.65
				c-0.95-1.28-1.69-2.7-1.72-4.04c0-0.02,0-0.04,0-0.06v-0.01c0.02-0.91,0.19-1.82,0.52-2.73c0.51-1.44,1.4-2.87,2.59-4.27
				c0.59-0.7,1.26-1.39,2.01-2.08c9.23-8.51,29.39-15.55,47.46-15.71c10.67-0.09,19.52,2.22,25.64,4.4
				c0.18,0.06,0.35,0.12,0.53,0.18c-3.96-2.97-8.31-5.48-12.95-7.57c-3.22-1.41-6.59-2.6-10.07-3.5c-1.54-0.4-3.1-0.74-4.68-1.02
				c-3.57-0.63-7.18-0.99-10.81-1.09c-2.65-0.07-5.31-0.01-7.96,0.17c-9.35,0.73-17.14,3.23-23.2,6.05
				c-1.42,0.69-2.84,1.4-4.23,2.19c-2.38,1.32-4.71,2.82-6.99,4.52c-1.3,0.97-2.58,2.01-3.82,3.16l0,0
				c-0.93,0.85-1.84,1.77-2.72,2.76c-2.05,2.33-4.02,5.06-5.35,8.67c-0.15,0.47-0.29,0.94-0.43,1.42c-0.07,0.24-0.14,0.47-0.2,0.72
				l-0.14,0.76c-0.09,0.51-0.18,1.02-0.24,1.54c-0.04,0.54-0.06,1.08-0.08,1.62c-0.03,0.54,0.02,1.07,0.07,1.6
				c0.05,0.52,0.08,1.08,0.19,1.57c0.2,1,0.42,2.01,0.75,2.89c0.61,1.86,1.45,3.41,2.33,4.88c0.46,0.68,0.92,1.4,1.4,2.03
				c0.49,0.61,0.97,1.29,1.49,1.84c2.04,2.34,4.22,4.28,6.46,6.01c2.24,1.74,4.56,3.24,6.92,4.6c2.36,1.36,4.76,2.6,7.21,3.69
				c4.89,2.19,9.91,3.93,15.06,5.24c2.57,0.65,5.17,1.21,7.8,1.64c2.62,0.45,5.28,0.76,7.95,0.96c2.67,0.22,5.37,0.25,8.07,0.2
				l4.07-0.23c0.68-0.02,1.36-0.11,2.03-0.2l2.03-0.26c5.4-0.74,10.76-2.11,15.85-4.06c5.1-1.94,9.88-4.49,14.35-7.32
				c6.62-4.21,12.53-9.02,18.11-13.85c0.06-0.05,0.12-0.1,0.17-0.15c0.05,0.06,0.1,0.11,0.15,0.17c0.17,0.2,0.33,0.39,0.5,0.59
				c4.08,4.75,7.91,9.49,11.15,14.42c0.27,0.41,0.53,0.81,0.79,1.22c2.39,3.78,4.46,7.67,5.99,11.7c1.54,4.03,2.6,8.2,3.19,12.46
				c0.52,3.59,0.67,7.26,0.51,10.96c-0.22,5.08-1.03,10.2-2.29,15.19c-1.1,4.32-2.57,8.56-4.37,12.58c-0.9,2.02-1.91,3.96-2.98,5.83
				c-1.07,1.87-2.25,3.66-3.5,5.27c-0.2,0.26-0.4,0.51-0.6,0.76c0,0,0,0-0.01,0c-1.07,1.32-2.2,2.51-3.33,3.5
				c-0.05,0.05-0.11,0.1-0.16,0.14c-0.07,0.06-0.13,0.11-0.2,0.16c-0.21,0.17-0.43,0.34-0.65,0.51c-1.28,0.95-2.7,1.69-4.04,1.72
				h-0.07c-0.91-0.02-1.82-0.19-2.73-0.52c-1.44-0.51-2.87-1.39-4.28-2.59c-0.7-0.59-1.39-1.27-2.08-2.01v0
				c-8.5-9.23-15.55-29.39-15.71-47.46c-0.09-10.67,2.22-19.52,4.4-25.63c0.06-0.18,0.12-0.35,0.18-0.53
				c-2.97,3.95-5.48,8.31-7.57,12.95c-1.41,3.23-2.6,6.6-3.5,10.07c-0.4,1.54-0.74,3.1-1.02,4.68c-0.64,3.57-0.99,7.18-1.09,10.81
				c-0.07,2.65-0.01,5.3,0.17,7.96c0.73,9.34,3.24,17.14,6.05,23.2c0.69,1.42,1.41,2.84,2.19,4.23c1.32,2.38,2.82,4.71,4.52,6.98
				c0.97,1.3,2.02,2.57,3.16,3.82v0h0c0.85,0.93,1.77,1.84,2.76,2.73c2.32,2.05,5.06,4.03,8.66,5.34c0.47,0.15,0.94,0.29,1.42,0.43
				c0.24,0.07,0.47,0.14,0.71,0.2l0.77,0.14c0.51,0.09,1.02,0.18,1.54,0.24c0.54,0.03,1.08,0.06,1.62,0.07
				c0.54,0.03,1.07-0.02,1.61-0.06c0.52-0.06,1.08-0.08,1.57-0.2c1-0.2,2.01-0.42,2.89-0.75c1.86-0.6,3.4-1.45,4.88-2.33
				c0.68-0.46,1.4-0.92,2.03-1.4c0.61-0.49,1.29-0.97,1.84-1.49c2.34-2.04,4.27-4.22,6.01-6.46c1.74-2.24,3.24-4.56,4.6-6.92
				c1.36-2.36,2.6-4.76,3.69-7.21c2.19-4.89,3.93-9.91,5.24-15.06c0.65-2.57,1.22-5.17,1.64-7.8c0.45-2.62,0.76-5.28,0.96-7.95
				c0.22-2.67,0.25-5.37,0.21-8.07l-0.23-4.07c-0.02-0.68-0.11-1.35-0.19-2.03l-0.26-2.03c-0.74-5.41-2.11-10.76-4.06-15.85
				c-1.94-5.1-4.49-9.88-7.32-14.35c-4.2-6.63-9.02-12.53-13.85-18.12c-0.05-0.06-0.1-0.12-0.15-0.18c0.06-0.05,0.12-0.1,0.17-0.15
				c0.2-0.17,0.39-0.33,0.58-0.5c4.75-4.08,9.49-7.91,14.42-11.15c0.41-0.27,0.82-0.53,1.22-0.79c3.78-2.39,7.67-4.46,11.71-5.99
				c4.03-1.54,8.2-2.6,12.46-3.19c3.59-0.52,7.26-0.67,10.96-0.5c5.08,0.22,10.2,1.03,15.19,2.29c4.32,1.1,8.56,2.57,12.58,4.37
				c2.02,0.9,3.96,1.91,5.83,2.98c1.87,1.08,3.65,2.25,5.27,3.5c0.26,0.2,0.51,0.4,0.76,0.6l0,0c1.32,1.07,2.51,2.2,3.5,3.33
				c0.05,0.05,0.1,0.1,0.14,0.16v0c0.06,0.06,0.11,0.13,0.16,0.19c0.17,0.21,0.34,0.43,0.51,0.65c0.95,1.28,1.69,2.7,1.72,4.04
				c0,0.02,0,0.04,0,0.06v0c-0.02,0.91-0.19,1.82-0.52,2.73c-0.51,1.44-1.39,2.87-2.59,4.28c-0.59,0.7-1.26,1.39-2.01,2.07v0
				c-9.23,8.5-29.39,15.55-47.46,15.71c-10.67,0.09-19.52-2.22-25.64-4.4c-0.18-0.06-0.35-0.12-0.53-0.18
				c3.96,2.97,8.31,5.48,12.95,7.57c3.22,1.41,6.59,2.6,10.07,3.5c1.54,0.4,3.1,0.74,4.68,1.02c3.57,0.64,7.18,0.99,10.81,1.09
				c2.65,0.07,5.31,0.01,7.96-0.17c9.35-0.73,17.14-3.24,23.2-6.05c1.42-0.69,2.84-1.41,4.23-2.19c2.38-1.32,4.71-2.82,6.98-4.52
				c1.3-0.97,2.57-2.01,3.82-3.16c0,0,0,0,0,0c0.93-0.86,1.84-1.77,2.73-2.76c2.05-2.32,4.02-5.06,5.34-8.67
				c0.15-0.47,0.29-0.94,0.43-1.41c0.07-0.24,0.14-0.47,0.2-0.72l0.14-0.76c0.09-0.51,0.18-1.02,0.24-1.54
				c0.04-0.54,0.06-1.08,0.07-1.62c0.03-0.54-0.02-1.07-0.06-1.61c-0.06-0.52-0.08-1.08-0.2-1.57c-0.2-1-0.42-2.01-0.75-2.9
				c-0.6-1.86-1.45-3.41-2.33-4.88c-0.46-0.68-0.92-1.4-1.4-2.03c-0.49-0.61-0.97-1.29-1.49-1.84c-2.04-2.33-4.22-4.27-6.46-6.01
				c-2.25-1.74-4.56-3.24-6.92-4.6c-2.36-1.36-4.76-2.6-7.21-3.69c-4.89-2.19-9.91-3.93-15.06-5.24c-2.57-0.65-5.17-1.21-7.8-1.64
				c-2.62-0.45-5.28-0.76-7.95-0.96c-2.67-0.22-5.37-0.25-8.07-0.2l-4.07,0.23c-0.68,0.03-1.35,0.11-2.03,0.2l-2.03,0.26
				c-5.41,0.74-10.76,2.11-15.85,4.07c-5.1,1.94-9.88,4.5-14.35,7.32c-6.63,4.21-12.53,9.02-18.12,13.85
				c-0.06,0.05-0.12,0.1-0.18,0.15c-0.05-0.06-0.1-0.12-0.15-0.17c-0.17-0.19-0.34-0.39-0.5-0.58c-4.08-4.75-7.91-9.49-11.15-14.43
				c-0.27-0.41-0.53-0.81-0.79-1.22c-2.39-3.78-4.46-7.67-5.99-11.7c-1.54-4.03-2.6-8.2-3.19-12.46c-0.52-3.59-0.67-7.26-0.51-10.96
				c0.22-5.08,1.03-10.2,2.29-15.19c1.1-4.32,2.57-8.56,4.37-12.58c0.9-2.02,1.91-3.96,2.98-5.83c1.07-1.87,2.25-3.65,3.5-5.27
				c0.2-0.26,0.4-0.51,0.6-0.76c0,0,0,0,0,0c1.07-1.32,2.2-2.51,3.33-3.5c0.05-0.05,0.1-0.1,0.16-0.15c0.07-0.06,0.13-0.11,0.2-0.16
				c0.21-0.17,0.43-0.34,0.65-0.5c1.28-0.95,2.7-1.69,4.04-1.72c0.02,0,0.04,0,0.06,0h0c0.91,0.02,1.82,0.19,2.73,0.52
				c1.44,0.51,2.87,1.39,4.28,2.59c0.7,0.59,1.39,1.27,2.08,2.01h0c8.5,9.23,15.55,29.39,15.71,47.46
				c0.09,10.67-2.23,19.52-4.4,25.64c-0.06,0.18-0.12,0.35-0.18,0.53c2.97-3.96,5.49-8.31,7.57-12.95c1.41-3.22,2.6-6.59,3.5-10.08
				c0.4-1.54,0.74-3.1,1.02-4.68c0.64-3.57,0.99-7.18,1.09-10.81c0.07-2.65,0.01-5.31-0.17-7.96c-0.73-9.35-3.24-17.14-6.05-23.2
				c-0.69-1.42-1.41-2.84-2.19-4.23c-1.32-2.38-2.82-4.71-4.52-6.99c-0.97-1.3-2.01-2.58-3.16-3.82v0
				c-0.86-0.93-1.77-1.84-2.76-2.72c-2.32-2.05-5.06-4.02-8.66-5.35c-0.47-0.15-0.94-0.29-1.42-0.43c-0.24-0.07-0.47-0.14-0.72-0.2
				l-0.77-0.14c-0.51-0.09-1.02-0.18-1.54-0.24c-0.54-0.04-1.08-0.06-1.62-0.08c-0.12-0.01-0.24-0.01-0.35-0.01
				C160.96,52.64,160.54,52.68,160.13,52.72"/>
		</defs>
		<linearGradient id="SVGID_2_" gradientUnits="userSpaceOnUse" x1="38.2893" y1="175.6716" x2="284.3452" y2="175.6716">
			<stop  offset="0" style="stop-color:#B5862C"/>
			<stop  offset="0.1159" style="stop-color:#D9A428"/>
			<stop  offset="0.5754" style="stop-color:#EDC265"/>
			<stop  offset="0.8045" style="stop-color:#C3912C"/>
			<stop  offset="1" style="stop-color:#B5862C"/>
		</linearGradient>
		<use xlink:href="#SVGID_1_"  style="overflow:visible;fill:url(#SVGID_2_);"/>
		<clipPath id="SVGID_3_">
			<use xlink:href="#SVGID_1_"  style="overflow:visible;"/>
		</clipPath>
		<linearGradient id="SVGID_4_" gradientUnits="userSpaceOnUse" x1="-82.3444" y1="175.6821" x2="404.9786" y2="175.6821">
			<stop  offset="0" style="stop-color:#B5862C"/>
			<stop  offset="0.1159" style="stop-color:#D9A428"/>
			<stop  offset="0.5754" style="stop-color:#EDC265"/>
			<stop  offset="0.8045" style="stop-color:#C3912C"/>
			<stop  offset="1" style="stop-color:#B5862C"/>
		</linearGradient>
		<polygon class="st0" points="137,-67.98 404.98,151.37 185.63,419.34 -82.34,200 		"/>
	</g>
	<g>
		<g>
			<defs>
				<path id="SVGID_5_" d="M445.64,244.79v0.53c0.97,0.25,1.72,0.81,2.26,1.67c0.54,0.87,0.8,2.11,0.8,3.73v28.08
					c0,0.66,0.02,1.59,0.07,2.78c0.05,1.19,0.08,2.48,0.08,3.88s-0.08,2.82-0.23,4.26c-0.15,1.45-0.42,2.77-0.8,3.96
					c-0.38,1.19-0.93,2.16-1.64,2.89c-0.72,0.74-1.63,1.1-2.76,1.1c-1.78,0-3.1-1.01-3.94-3.04c-0.84-2.03-1.26-4.77-1.26-8.22
					l-3.6,2.89c0,1.32,0.22,2.55,0.65,3.69c0.43,1.14,1.06,2.14,1.88,3.01c0.81,0.86,1.82,1.55,3.02,2.05
					c1.2,0.5,2.56,0.76,4.09,0.76c2.96,0,5.21-0.71,6.73-2.13c1.48-1.42,2.53-3.17,3.14-5.25c0.61-2.08,0.93-4.3,0.96-6.66
					c0.02-2.36,0.04-4.47,0.04-6.36v-27.7c0-1.62,0.27-2.86,0.8-3.73c0.54-0.86,1.29-1.42,2.26-1.67v-0.53H445.64z"/>
			</defs>
			<clipPath id="SVGID_6_">
				<use xlink:href="#SVGID_5_"  style="overflow:visible;"/>
			</clipPath>
			
				<linearGradient id="SVGID_7_" gradientUnits="userSpaceOnUse" x1="59.9222" y1="701.4524" x2="61.8943" y2="701.4524" gradientTransform="matrix(11.9528 0 0 -11.9528 -281.6169 8656.1182)">
				<stop  offset="0" style="stop-color:#B5862C"/>
				<stop  offset="0.1159" style="stop-color:#D9A428"/>
				<stop  offset="0.5754" style="stop-color:#EDC265"/>
				<stop  offset="0.8045" style="stop-color:#C3912C"/>
				<stop  offset="1" style="stop-color:#B5862C"/>
			</linearGradient>
			<rect x="434.62" y="244.79" class="st1" width="23.57" height="54.04"/>
		</g>
		<g>
			<defs>
				<path id="SVGID_8_" d="M493.7,244.79v0.53c0.97,0.25,1.72,0.81,2.26,1.67c0.54,0.87,0.81,2.11,0.81,3.73v41.4
					c0,1.62-0.27,2.87-0.81,3.73c-0.53,0.87-1.29,1.42-2.26,1.68v0.53h31.46c0.05-0.2,0.1-0.46,0.15-0.76l1.07-6.16
					c0.31-1.93,0.77-4.64,1.38-8.14c-0.11-0.1-0.26-0.19-0.46-0.27c-0.21-0.08-0.38-0.17-0.53-0.27c-0.26,1.17-0.64,2.58-1.15,4.22
					c-0.51,1.65-1.28,3.22-2.29,4.72c-1.02,1.5-2.36,2.78-4.02,3.84c-1.66,1.07-3.74,1.6-6.24,1.6h-9.87v-26.26h7.96
					c0.77,0,1.47,0.18,2.11,0.53c0.64,0.36,1.19,0.8,1.65,1.33c0.46,0.53,0.83,1.1,1.11,1.71c0.28,0.61,0.47,1.17,0.57,1.67h0.46
					v-11.8h-0.46c-0.1,0.56-0.29,1.14-0.57,1.75c-0.28,0.61-0.65,1.18-1.11,1.71c-0.46,0.53-1.01,0.98-1.65,1.33
					c-0.64,0.35-1.34,0.53-2.11,0.53h-7.96V246h9.95c2.5,0,4.49,0.5,5.97,1.48c1.48,0.99,2.6,2.16,3.37,3.5
					c0.76,1.34,1.27,2.67,1.53,4c0.25,1.32,0.46,2.28,0.61,2.89c0.21-0.1,0.38-0.19,0.54-0.27c0.15-0.08,0.31-0.17,0.46-0.27
					l-2.29-12.56H493.7z"/>
			</defs>
			<clipPath id="SVGID_9_">
				<use xlink:href="#SVGID_8_"  style="overflow:visible;"/>
			</clipPath>
			
				<linearGradient id="SVGID_10_" gradientUnits="userSpaceOnUse" x1="61.9403" y1="705.9419" x2="63.9126" y2="705.9419" gradientTransform="matrix(17.2694 0 0 -17.2694 -575.9717 12462.6211)">
				<stop  offset="0" style="stop-color:#B5862C"/>
				<stop  offset="0.1159" style="stop-color:#D9A428"/>
				<stop  offset="0.5754" style="stop-color:#EDC265"/>
				<stop  offset="0.8045" style="stop-color:#C3912C"/>
				<stop  offset="1" style="stop-color:#B5862C"/>
			</linearGradient>
			<rect x="493.7" y="244.79" class="st2" width="34.06" height="53.27"/>
		</g>
		<g>
			<defs>
				<path id="SVGID_11_" d="M611.18,244.79v0.53c1.12,0.25,1.92,0.96,2.41,2.13c0.49,1.17,0.75,2.24,0.8,3.23
					c0.05,0.99,0.08,1.66,0.08,2.02c0,1.27-0.11,2.66-0.34,4.19c-0.23,1.52-0.58,2.94-1.04,4.26l-8.27,24.96l-12.94-41.33h-10.1
					v0.53c1.12,0.25,2.1,0.81,2.95,1.67c0.84,0.87,1.54,2.11,2.11,3.73l3.29,10.58l-8.19,24.81l-11.1-35.39
					c-0.31-1.01-0.46-1.88-0.46-2.59c0-0.46,0.1-0.98,0.31-1.56c0.2-0.58,0.79-1,1.76-1.26v-0.53h-13.55v0.53
					c1.12,0.25,2.1,0.81,2.95,1.67c0.84,0.87,1.54,2.11,2.1,3.73l15,48.02c0.51-1.47,0.98-2.85,1.42-4.15
					c0.43-1.29,0.88-2.63,1.34-4c0.46-1.37,0.96-2.88,1.49-4.53c0.53-1.65,1.16-3.54,1.88-5.67c0.71-2.13,1.54-4.58,2.49-7.34
					c0.94-2.77,2.03-6,3.25-9.71l11.02,35.39c0.51-1.52,1.02-2.99,1.53-4.41c0.46-1.37,0.94-2.84,1.45-4.41
					c0.51-1.57,1.08-3.3,1.72-5.18c0.64-1.88,1.38-4.08,2.22-6.62c0.84-2.54,1.81-5.47,2.91-8.79c1.09-3.32,2.38-7.19,3.86-11.61
					c1.48-4.06,2.8-7.08,3.98-9.06c1.17-1.98,2.42-3.1,3.75-3.35v-0.53H611.18z"/>
			</defs>
			<clipPath id="SVGID_12_">
				<use xlink:href="#SVGID_11_"  style="overflow:visible;"/>
			</clipPath>
			
				<linearGradient id="SVGID_13_" gradientUnits="userSpaceOnUse" x1="62.4825" y1="710.6728" x2="64.4546" y2="710.6728" gradientTransform="matrix(32.6371 0 0 -32.6371 -1480.34 23466.0938)">
				<stop  offset="0" style="stop-color:#B5862C"/>
				<stop  offset="0.1159" style="stop-color:#D9A428"/>
				<stop  offset="0.5754" style="stop-color:#EDC265"/>
				<stop  offset="0.8045" style="stop-color:#C3912C"/>
				<stop  offset="1" style="stop-color:#B5862C"/>
			</linearGradient>
			<rect x="558.91" y="244.79" class="st3" width="64.36" height="53.96"/>
		</g>
		<g>
			<defs>
				<path id="SVGID_14_" d="M656.72,244.79v0.53c0.97,0.25,1.72,0.81,2.26,1.67c0.53,0.87,0.8,2.11,0.8,3.73v41.4
					c0,1.62-0.27,2.87-0.8,3.73c-0.54,0.87-1.29,1.42-2.26,1.68v0.53h31.45c0.05-0.2,0.1-0.46,0.15-0.76l1.07-6.16
					c0.31-1.93,0.76-4.64,1.37-8.14c-0.1-0.1-0.25-0.19-0.46-0.27c-0.2-0.08-0.38-0.17-0.54-0.27c-0.25,1.17-0.64,2.58-1.15,4.22
					c-0.51,1.65-1.28,3.22-2.3,4.72c-1.02,1.5-2.36,2.78-4.02,3.84c-1.66,1.07-3.74,1.6-6.24,1.6h-9.87v-26.26h7.96
					c0.77,0,1.47,0.18,2.1,0.53c0.64,0.36,1.19,0.8,1.64,1.33c0.46,0.53,0.83,1.1,1.11,1.71c0.28,0.61,0.47,1.17,0.58,1.67h0.46
					v-11.8h-0.46c-0.1,0.56-0.29,1.14-0.58,1.75c-0.28,0.61-0.65,1.18-1.11,1.71c-0.46,0.53-1.01,0.98-1.64,1.33
					c-0.64,0.35-1.34,0.53-2.1,0.53h-7.96V246h9.95c2.5,0,4.49,0.5,5.97,1.48c1.48,0.99,2.6,2.16,3.37,3.5
					c0.77,1.34,1.27,2.67,1.53,4c0.25,1.32,0.46,2.28,0.61,2.89c0.21-0.1,0.38-0.19,0.53-0.27c0.15-0.08,0.31-0.17,0.46-0.27
					l-2.3-12.56H656.72z"/>
			</defs>
			<clipPath id="SVGID_15_">
				<use xlink:href="#SVGID_14_"  style="overflow:visible;"/>
			</clipPath>
			
				<linearGradient id="SVGID_16_" gradientUnits="userSpaceOnUse" x1="66.5935" y1="705.9419" x2="68.5654" y2="705.9419" gradientTransform="matrix(17.2694 0 0 -17.2694 -493.312 12462.6211)">
				<stop  offset="0" style="stop-color:#B5862C"/>
				<stop  offset="0.1159" style="stop-color:#D9A428"/>
				<stop  offset="0.5754" style="stop-color:#EDC265"/>
				<stop  offset="0.8045" style="stop-color:#C3912C"/>
				<stop  offset="1" style="stop-color:#B5862C"/>
			</linearGradient>
			<rect x="656.72" y="244.79" class="st4" width="34.05" height="53.27"/>
		</g>
		<g>
			<defs>
				<path id="SVGID_17_" d="M725.13,244.79v0.53c0.97,0.25,1.72,0.81,2.26,1.67c0.54,0.87,0.8,2.13,0.8,3.81v41.33
					c0,1.62-0.27,2.87-0.8,3.73c-0.54,0.87-1.29,1.42-2.26,1.68v0.53h33.14l2.22-12.79c-0.15-0.15-0.31-0.3-0.46-0.46
					c-0.15-0.1-0.33-0.23-0.53-0.38c-0.1,0.66-0.37,1.7-0.8,3.12c-0.43,1.42-1.15,2.85-2.14,4.3c-0.99,1.45-2.31,2.72-3.94,3.8
					c-1.63,1.09-3.73,1.64-6.28,1.64h-11.71v-46.5c0-1.67,0.27-2.94,0.8-3.81c0.54-0.86,1.29-1.42,2.26-1.67v-0.53H725.13z"/>
			</defs>
			<clipPath id="SVGID_18_">
				<use xlink:href="#SVGID_17_"  style="overflow:visible;"/>
			</clipPath>
			
				<linearGradient id="SVGID_19_" gradientUnits="userSpaceOnUse" x1="68.2686" y1="706.3121" x2="70.2408" y2="706.3121" gradientTransform="matrix(17.9292 0 0 -17.9292 -498.8654 12935.0244)">
				<stop  offset="0" style="stop-color:#B5862C"/>
				<stop  offset="0.1159" style="stop-color:#D9A428"/>
				<stop  offset="0.5754" style="stop-color:#EDC265"/>
				<stop  offset="0.8045" style="stop-color:#C3912C"/>
				<stop  offset="1" style="stop-color:#B5862C"/>
			</linearGradient>
			<rect x="725.13" y="244.79" class="st5" width="35.36" height="53.27"/>
		</g>
		<g>
			<defs>
				<path id="SVGID_20_" d="M793.94,244.79v0.53c0.97,0.25,1.72,0.81,2.26,1.67c0.53,0.87,0.8,2.13,0.8,3.81v41.33
					c0,1.62-0.27,2.87-0.8,3.73c-0.54,0.87-1.29,1.42-2.26,1.68v0.53h33.14l2.22-12.79c-0.15-0.15-0.31-0.3-0.46-0.46
					c-0.15-0.1-0.33-0.23-0.53-0.38c-0.1,0.66-0.37,1.7-0.8,3.12c-0.43,1.42-1.15,2.85-2.14,4.3c-0.99,1.45-2.31,2.72-3.94,3.8
					c-1.63,1.09-3.73,1.64-6.28,1.64h-11.71v-46.5c0-1.67,0.27-2.94,0.8-3.81c0.54-0.86,1.29-1.42,2.26-1.67v-0.53H793.94z"/>
			</defs>
			<clipPath id="SVGID_21_">
				<use xlink:href="#SVGID_20_"  style="overflow:visible;"/>
			</clipPath>
			
				<linearGradient id="SVGID_22_" gradientUnits="userSpaceOnUse" x1="70.1602" y1="706.3121" x2="72.1324" y2="706.3121" gradientTransform="matrix(17.9292 0 0 -17.9292 -463.9778 12935.0244)">
				<stop  offset="0" style="stop-color:#B5862C"/>
				<stop  offset="0.1159" style="stop-color:#D9A428"/>
				<stop  offset="0.5754" style="stop-color:#EDC265"/>
				<stop  offset="0.8045" style="stop-color:#C3912C"/>
				<stop  offset="1" style="stop-color:#B5862C"/>
			</linearGradient>
			<rect x="793.94" y="244.79" class="st6" width="35.36" height="53.27"/>
		</g>
		<g>
			<defs>
				<path id="SVGID_23_" d="M862.74,244.79v0.53c0.97,0.25,1.73,0.81,2.26,1.67c0.54,0.87,0.81,2.11,0.81,3.73v41.4
					c0,1.62-0.27,2.87-0.81,3.73c-0.53,0.87-1.29,1.42-2.26,1.68v0.53h31.46c0.05-0.2,0.1-0.46,0.15-0.76l1.07-6.16
					c0.31-1.93,0.77-4.64,1.38-8.14c-0.1-0.1-0.26-0.19-0.46-0.27c-0.21-0.08-0.38-0.17-0.53-0.27c-0.25,1.17-0.64,2.58-1.15,4.22
					c-0.51,1.65-1.27,3.22-2.29,4.72c-1.02,1.5-2.36,2.78-4.02,3.84c-1.66,1.07-3.74,1.6-6.24,1.6h-9.87v-26.26h7.96
					c0.77,0,1.47,0.18,2.11,0.53c0.64,0.36,1.19,0.8,1.64,1.33c0.46,0.53,0.83,1.1,1.11,1.71c0.28,0.61,0.47,1.17,0.57,1.67h0.46
					v-11.8h-0.46c-0.1,0.56-0.29,1.14-0.57,1.75c-0.28,0.61-0.65,1.18-1.11,1.71c-0.46,0.53-1.01,0.98-1.64,1.33
					c-0.64,0.35-1.34,0.53-2.11,0.53h-7.96V246h9.95c2.5,0,4.49,0.5,5.97,1.48c1.48,0.99,2.6,2.16,3.36,3.5
					c0.77,1.34,1.28,2.67,1.53,4c0.25,1.32,0.46,2.28,0.61,2.89c0.21-0.1,0.38-0.19,0.54-0.27c0.15-0.08,0.31-0.17,0.46-0.27
					l-2.29-12.56H862.74z"/>
			</defs>
			<clipPath id="SVGID_24_">
				<use xlink:href="#SVGID_23_"  style="overflow:visible;"/>
			</clipPath>
			
				<linearGradient id="SVGID_25_" gradientUnits="userSpaceOnUse" x1="72.4737" y1="705.9421" x2="74.446" y2="705.9421" gradientTransform="matrix(17.2697 0 0 -17.2697 -388.8626 12462.8438)">
				<stop  offset="0" style="stop-color:#B5862C"/>
				<stop  offset="0.1159" style="stop-color:#D9A428"/>
				<stop  offset="0.5754" style="stop-color:#EDC265"/>
				<stop  offset="0.8045" style="stop-color:#C3912C"/>
				<stop  offset="1" style="stop-color:#B5862C"/>
			</linearGradient>
			<rect x="862.74" y="244.79" class="st7" width="34.06" height="53.27"/>
		</g>
		<g>
			<defs>
				<path id="SVGID_26_" d="M940.65,245.85h9.11c0.92,0,1.84,0.23,2.76,0.68s1.76,1.23,2.52,2.32c0.77,1.09,1.39,2.58,1.88,4.45
					c0.48,1.88,0.73,4.24,0.73,7.08c0,2.69-0.24,4.95-0.73,6.77c-0.49,1.83-1.08,3.29-1.8,4.38c-0.72,1.09-1.49,1.88-2.34,2.36
					c-0.84,0.48-1.64,0.72-2.41,0.72h-9.72V245.85z M931.16,244.79v0.53c0.97,0.25,1.72,0.81,2.26,1.67c0.54,0.87,0.8,2.13,0.8,3.81
					v41.33c0,1.62-0.27,2.87-0.8,3.73c-0.53,0.87-1.29,1.42-2.26,1.68v0.53h12.55v-0.53c-0.97-0.25-1.71-0.81-2.22-1.68
					c-0.56-0.86-0.84-2.1-0.84-3.73v-16.44h6.5c1.33,0,2.42,0.33,3.29,0.99c0.87,0.66,1.61,1.69,2.22,3.08
					c0.61,1.4,1.17,3.21,1.68,5.44c0.51,2.23,1.1,4.9,1.76,7.99c0.1,0.35,0.15,0.71,0.15,1.07c0,0.71-0.25,1.38-0.77,2.02
					c-0.51,0.64-1.12,1.05-1.84,1.26v0.53h13.93v-0.53c-1.02-0.25-2-1.01-2.95-2.28c-0.94-1.27-1.7-2.74-2.26-4.42
					c-0.61-2.08-1.19-3.96-1.72-5.63c-0.54-1.67-1.15-3.16-1.84-4.45c-0.69-1.3-1.53-2.37-2.53-3.23c-1-0.86-2.26-1.55-3.79-2.06
					c1.68-0.2,3.27-0.65,4.74-1.33c1.48-0.69,2.75-1.64,3.83-2.86c1.07-1.22,1.91-2.73,2.52-4.53c0.61-1.8,0.92-3.92,0.92-6.35
					c0-2.64-0.37-4.95-1.11-6.93c-0.74-1.98-1.77-3.6-3.1-4.87c-1.33-1.27-2.89-2.22-4.67-2.85c-1.78-0.63-3.75-0.95-5.89-0.95
					H931.16z"/>
			</defs>
			<clipPath id="SVGID_27_">
				<use xlink:href="#SVGID_26_"  style="overflow:visible;"/>
			</clipPath>
			
				<linearGradient id="SVGID_28_" gradientUnits="userSpaceOnUse" x1="73.5525" y1="706.597" x2="75.5245" y2="706.597" gradientTransform="matrix(18.4726 0 0 -18.4726 -427.5454 13324.1133)">
				<stop  offset="0" style="stop-color:#B5862C"/>
				<stop  offset="0.1159" style="stop-color:#D9A428"/>
				<stop  offset="0.5754" style="stop-color:#EDC265"/>
				<stop  offset="0.8045" style="stop-color:#C3912C"/>
				<stop  offset="1" style="stop-color:#B5862C"/>
			</linearGradient>
			<rect x="931.16" y="244.79" class="st8" width="36.43" height="53.27"/>
		</g>
		<g>
			<defs>
				<path id="SVGID_29_" d="M1027.05,244.79v0.53c0.46,0.1,0.94,0.34,1.46,0.72c0.51,0.38,0.92,0.92,1.22,1.63
					c0.31,0.71,0.46,1.6,0.46,2.66c0,0.05-0.01,0.39-0.04,1.03c-0.03,0.64-0.32,1.81-0.88,3.54c-0.15,0.46-0.42,1.1-0.8,1.94
					c-0.38,0.84-0.91,1.95-1.57,3.35c-0.66,1.4-1.48,3.1-2.45,5.1c-0.97,2.01-2.12,4.38-3.45,7.12l-10.87-22.22
					c-0.35-0.76-0.53-1.45-0.53-2.05c0-0.35,0.1-0.82,0.31-1.41c0.2-0.58,0.71-1.05,1.53-1.41v-0.53h-12.48v0.53
					c0.46,0,0.96,0.23,1.49,0.68c0.53,0.46,1.03,1,1.49,1.64c0.46,0.64,0.88,1.28,1.26,1.94c0.38,0.66,0.67,1.19,0.88,1.6
					l11.02,22.53v17.96c0,1.32-0.15,2.54-0.46,3.65c-0.31,1.12-1.15,1.85-2.52,2.21v0.53h12.55v-0.76c-0.66,0-1.2-0.18-1.61-0.53
					c-0.41-0.3-0.72-0.72-0.92-1.26c-0.21-0.53-0.33-1.13-0.38-1.79c-0.05-0.66-0.08-1.29-0.08-1.9v-18.11l8.72-18.27
					c0.46-0.96,0.98-1.99,1.57-3.08c0.59-1.09,1.24-2.1,1.95-3.04c0.71-0.94,1.48-1.78,2.29-2.51c0.82-0.74,1.74-1.23,2.76-1.48
					v-0.53H1027.05z"/>
			</defs>
			<clipPath id="SVGID_30_">
				<use xlink:href="#SVGID_29_"  style="overflow:visible;"/>
			</clipPath>
			
				<linearGradient id="SVGID_31_" gradientUnits="userSpaceOnUse" x1="74.0713" y1="707.442" x2="76.0435" y2="707.442" gradientTransform="matrix(20.2963 0 0 -20.2963 -504.4069 14629.8662)">
				<stop  offset="0" style="stop-color:#B5862C"/>
				<stop  offset="0.1159" style="stop-color:#D9A428"/>
				<stop  offset="0.5754" style="stop-color:#EDC265"/>
				<stop  offset="0.8045" style="stop-color:#C3912C"/>
				<stop  offset="1" style="stop-color:#B5862C"/>
			</linearGradient>
			<rect x="998.97" y="244.79" class="st9" width="40.03" height="53.27"/>
		</g>
		<g>
			<defs>
				<path id="SVGID_32_" d="M685.48,132.86l-0.06-0.15c-0.49-1.13-0.99-2.28-1.51-3.43c-0.29-0.65-0.59-1.29-0.88-1.92
					L685.48,132.86z M994.32,132.86l-0.07-0.15c-0.49-1.13-0.99-2.28-1.51-3.43c-0.29-0.65-0.59-1.29-0.88-1.92L994.32,132.86z
					 M991.87,127.36l-0.2-0.46c0,0-0.01,0-0.01,0C991.73,127.06,991.8,127.21,991.87,127.36 M693.8,124.46l-0.03,0.02
					c-2.1,1.77-4.55,2.67-7.28,2.67c-1.37,0-2.64-0.21-3.82-0.62l0.16,0.37l0.2,0.46c0.3,0.64,0.59,1.28,0.88,1.92
					c0.52,1.15,1.03,2.3,1.51,3.43l0.06,0.15l0.71,1.63l0.03,0.07l1.07,2.44c0.19,0.38,0.31,0.71,0.36,1c0.05,0.28,0.17,0.62,0.36,1
					c0.96,2.57,1.44,4.81,1.44,6.71c0,1.62-0.53,2.81-1.58,3.57c-1.06,0.77-2.92,1.14-5.6,1.14v2.29h40.09v-2.29h-1.58
					c-1.92-0.19-3.52-0.62-4.81-1.29c-1.3-0.67-2.49-1.55-3.59-2.64c-1.1-1.09-2.11-2.45-3.02-4.07c-0.91-1.62-1.84-3.52-2.8-5.72
					c-0.2-0.48-0.43-1-0.72-1.57c-0.29-0.57-0.52-1.19-0.72-1.86c-0.85-1.96-1.71-3.91-2.57-5.87l-4.37-10.06
					C697.46,120.18,695.99,122.56,693.8,124.46 M1002.63,124.46l-0.03,0.02c-2.1,1.77-4.55,2.67-7.28,2.67
					c-1.37,0-2.64-0.21-3.82-0.62l0.16,0.37l0.2,0.46c0.29,0.64,0.59,1.28,0.88,1.92c0.52,1.15,1.02,2.3,1.51,3.43l0.07,0.15
					l0.71,1.63l0.03,0.07l1.06,2.44c0.19,0.38,0.31,0.71,0.36,1c0.05,0.28,0.17,0.62,0.36,1c0.96,2.57,1.44,4.81,1.44,6.71
					c0,1.62-0.53,2.81-1.58,3.57c-1.06,0.77-2.92,1.14-5.6,1.14v2.29h40.09v-2.29h-1.58c-1.92-0.19-3.52-0.62-4.81-1.29
					c-1.29-0.67-2.49-1.55-3.59-2.64c-1.1-1.09-2.11-2.45-3.02-4.07c-0.91-1.62-1.84-3.52-2.8-5.72c-0.2-0.48-0.43-1-0.72-1.57
					c-0.29-0.57-0.52-1.19-0.72-1.86c-0.86-1.96-1.71-3.91-2.57-5.87l-4.37-10.06C1006.3,120.18,1004.83,122.56,1002.63,124.46
					 M1011.64,113.57c0.02-0.12,0.03-0.23,0.04-0.35C1011.67,113.34,1011.66,113.45,1011.64,113.57 M349.94,87.98
					c-6.71,0.35-13.23,3.38-13.23,3.38c-1.56,0.73-17.72,8.53-22.49,25.25c-0.01,0.04-0.02,0.08-0.04,0.12
					c-0.11,0.4-0.22,0.81-0.32,1.22c-0.49,2.04-0.72,3.79-0.83,5.07c-0.01,0.09-0.02,0.19-0.02,0.27c-0.07,1.04-0.09,2.05-0.04,3.04
					c0.11,2.6,0.62,5.03,1.54,7.31c1.77,4.43,4.45,8.22,8.04,11.36c1.04,0.91,5.25,4.56,12.64,7.36c2.57,0.97,10.3,3.66,20.66,3.25
					c2.67-0.11,10.61-0.62,19.79-4.61c4.47-1.94,8.62-4.24,13.36-8.43c4.31-3.81,7.04-8.95,8.19-15.43c0.29-2.48,0.29-4.98,0-7.5
					c-0.29-2.52-0.96-4.88-2.01-7.07c-1.43-3.05-3.42-5.69-5.96-7.93c-2.54-2.24-5.2-4.26-7.97-6.07
					c-3.74-2.38-7.59-4.57-11.57-6.57c-1.52-0.77-3.02-1.57-4.49-2.4c0.05,0.05,0.1,0.1,0.15,0.15c1.51,1.5,2.65,3.35,3.39,5.52
					c1.04,2.77,1.23,5.62,0.56,8.48c-0.57,2.41-1.68,4.52-3.33,6.28c-0.25,0.26-0.51,0.53-0.79,0.78c0.86,0.53,1.77,1.1,2.72,1.7
					c1.72,1.09,3.37,2.26,4.96,3.5c1.58,1.24,3.04,2.57,4.38,4c1.34,1.43,2.39,2.91,3.16,4.43c1.44,3.05,1.99,5.91,1.65,8.57
					c-0.33,2.67-1.29,5.12-2.87,7.36c-0.96,1.36-2.75,3.63-6.03,5.93c-2.15,1.51-8.49,5.96-17.6,6c-5.45,0.02-9.59-1.54-11.13-2.14
					c-0.87-0.34-3.11-1.26-5.74-2.9c-1.41-0.88-2.75-1.87-4.03-2.95c-2.92-2.48-5.34-5.38-7.26-8.72c-1.69-2.94-2.79-6.12-3.28-9.51
					c-0.09-0.62-0.15-1.16-0.17-1.35c-0.17-1.72-0.15-3.03-0.14-3.33c0,0,0.07-1.87,0.38-3.88c1.55-10.1,7.26-18.63,15.11-23.37
					c1.4-0.85,2.87-1.57,4.4-2.17h0c2.94-1.14,6.1-1.79,9.39-1.84c1.23,0.08,2.45,0.28,3.67,0.58c1.7,0.42,3.2,1.09,4.5,2.01
					c0.85,0.6,1.58,1.3,2.17,2.09c0.16,0.2,0.52,0.72,0.83,1.35c0.87,1.76,0.84,3.59,0.72,4.65c-0.19-1.19-0.63-2.03-0.95-2.53
					c-1.41-2.19-3.83-2.91-5.38-3.15c-0.73-0.11-1.27-0.12-1.43-0.12c-0.56,0-1.07,0.07-1.49,0.15c-0.63,0.12-1.06,0.28-1.2,0.34
					c-0.78,0.3-1.5,0.73-2.16,1.3c-1.39,1.19-2.27,2.66-2.65,4.42c-0.31,1.3-0.23,2.6,0.23,3.9c0.46,1.3,1.15,2.45,2.08,3.45
					c1.46,1.46,3.31,2.18,5.54,2.18c1.22,0,2.35-0.24,3.41-0.73c0.67-0.31,1.3-0.72,1.9-1.22c0.31-0.27,0.6-0.55,0.87-0.84
					c1.28-1.37,2.15-3.01,2.59-4.9c0.54-2.3,0.38-4.55-0.46-6.77c-0.58-1.75-1.47-3.21-2.66-4.39c-0.53-0.53-1.13-1-1.78-1.41
					c-0.66-0.42-1.35-0.78-2.07-1.09c-0.43-0.19-2.18-0.91-5.03-1.26c-0.14-0.02-1.49-0.18-3.14-0.18
					C350.78,87.94,350.36,87.95,349.94,87.98 M665.45,53.99l-4.6,13.72l-1.87,5.86c-0.77,2.19-1.6,4.69-2.51,7.5
					c-0.91,2.81-1.89,5.74-2.94,8.78c-1.25,4-2.51,7.96-3.81,11.86c-1.29,3.91-2.47,7.43-3.52,10.57l-2.87,8.66l-0.73,2.2
					l-1.12,3.36l-1.32,3.93c0,0.19-0.05,0.33-0.15,0.43c-1.25,3.91-2.37,7.12-3.38,9.64c-1,2.53-2.11,4.53-3.31,6
					c-1.2,1.48-2.63,2.5-4.31,3.07c-1.68,0.57-3.81,0.86-6.39,0.86v2.29h25.14v-2.29h-1.01c-2.59-0.19-4.43-0.74-5.53-1.64
					c-1.1-0.9-1.65-2.31-1.65-4.21c0-1.62,0.53-4.1,1.58-7.43l0.24-0.73l2.64-8.24l0.26-0.82c8.35-7.62,14.75-13.12,17.18-15.06
					c1.97-1.57,4.33-3.21,5.19-3.77c0.65-0.42,1.3-0.83,1.97-1.22c0.3-0.18,0.61-0.35,0.91-0.53c2.23-1.23,4.61-2.19,7.11-2.86
					c1.15-0.3,2.46-0.46,3.93-0.46c1.69,0,3.38,0.21,5.08,0.64c1.69,0.42,3.19,1.09,4.5,2.01c1.31,0.92,2.31,2.07,3,3.45
					c0.66,1.31,0.9,2.86,0.72,4.66c0.07-0.96-0.25-1.8-0.95-2.53c-0.77-0.8-1.69-1.55-2.77-2.24l-0.23-0.11
					c-1.39-0.61-2.66-0.92-3.81-0.92c-1.85,0-3.46,0.6-4.85,1.78c-1.39,1.19-2.27,2.66-2.65,4.42c-0.31,1.3-0.23,2.6,0.23,3.9
					c0.46,1.3,1.15,2.45,2.08,3.44c1.46,1.46,3.31,2.18,5.54,2.18c2,0,3.77-0.65,5.31-1.95c1.77-1.53,2.93-3.45,3.47-5.74
					c0.54-2.3,0.38-4.55-0.46-6.77c-0.85-2.53-2.33-4.46-4.45-5.8c-2.12-1.34-4.48-2.12-7.1-2.35c-1.92-0.15-3.85-0.04-5.77,0.35
					c-1.92,0.38-3.77,0.92-5.54,1.6c-1.1,0.46-2.16,0.96-3.2,1.49c-4.44,2.27-8.32,5.53-8.92,6.03c-4.03,3.31-8.72,7.24-13.94,11.79
					c0.59-1.85,1.18-3.69,1.76-5.54l5.22-15.77l7.85-23.75l2.87,6.15l2.3,5.14c0.77,1.62,1.58,3.43,2.45,5.43
					c0.52,1.21,0.86,2,1.58,3.66c0.41,0.94,0.78,1.78,1.09,2.48c1.88-0.71,3.85-1.28,5.88-1.69c1.56-0.31,3.15-0.47,4.73-0.47
					c0.63,0,1.26,0.02,1.89,0.07l0.03,0c2.67,0.23,5.16,0.97,7.41,2.19l-6.97-16.05c-4.4-10.21-8.79-20.43-13.19-30.64H665.45z
					 M974.29,53.99l-4.6,13.72l-1.87,5.86c-0.77,2.19-1.61,4.69-2.51,7.5c-0.91,2.81-1.9,5.74-2.94,8.78
					c-1.25,4-2.52,7.96-3.81,11.86c-1.3,3.91-2.47,7.43-3.52,10.57l-2.86,8.66l-0.73,2.2l-1.12,3.36l-1.32,3.93
					c0,0.19-0.05,0.33-0.14,0.43c-1.25,3.91-2.37,7.12-3.38,9.64c-1.01,2.53-2.11,4.53-3.31,6c-1.2,1.48-2.63,2.5-4.31,3.07
					c-1.68,0.57-3.81,0.86-6.4,0.86v2.29h25.14v-2.29h-1c-2.59-0.19-4.43-0.74-5.53-1.64c-1.1-0.9-1.65-2.31-1.65-4.21
					c0-1.62,0.52-4.1,1.58-7.43l0.23-0.73l2.64-8.24l0.27-0.82c8.35-7.62,14.75-13.12,17.18-15.06c1.96-1.57,4.33-3.21,5.19-3.77
					c0.64-0.42,1.31-0.83,1.97-1.22c0.3-0.18,0.61-0.35,0.91-0.53c2.23-1.23,4.61-2.19,7.11-2.86c1.15-0.3,2.46-0.46,3.92-0.46
					c1.69,0,3.39,0.21,5.08,0.64c1.7,0.42,3.19,1.09,4.5,2.01c1.31,0.92,2.31,2.07,3,3.45c0.66,1.31,0.9,2.86,0.72,4.66
					c0.07-0.96-0.25-1.8-0.95-2.53c-0.77-0.8-1.69-1.55-2.77-2.24l-0.23-0.11c-1.39-0.61-2.66-0.92-3.81-0.92
					c-1.85,0-3.47,0.6-4.85,1.78c-1.39,1.19-2.27,2.66-2.65,4.42c-0.31,1.3-0.23,2.6,0.23,3.9c0.46,1.3,1.15,2.45,2.08,3.44
					c1.46,1.46,3.31,2.18,5.54,2.18c2,0,3.77-0.65,5.31-1.95c1.77-1.53,2.92-3.45,3.46-5.74c0.54-2.3,0.38-4.55-0.46-6.77
					c-0.85-2.53-2.33-4.46-4.45-5.8c-2.12-1.34-4.48-2.12-7.1-2.35c-1.93-0.15-3.85-0.04-5.77,0.35c-1.92,0.38-3.77,0.92-5.54,1.6
					c-1.09,0.46-2.16,0.96-3.2,1.49c-4.44,2.27-8.31,5.53-8.92,6.03c-4.03,3.31-8.72,7.24-13.94,11.79
					c0.59-1.85,1.17-3.69,1.76-5.54l5.22-15.77l7.85-23.75l2.87,6.15l2.3,5.14c0.77,1.62,1.58,3.43,2.45,5.43
					c0.52,1.21,0.86,2,1.58,3.66c0.41,0.94,0.78,1.78,1.09,2.48c1.88-0.71,3.85-1.28,5.88-1.69c1.57-0.31,3.15-0.47,4.73-0.47
					c0.63,0,1.26,0.02,1.89,0.07l0.03,0c2.67,0.23,5.15,0.97,7.41,2.19l-6.97-16.05C988.4,74.42,984,64.2,979.6,53.99H974.29z
					 M467.61,53.56v2.29c4.6,0,7.71,1,9.34,3c1.63,2,2.44,5.62,2.44,10.86v51.72c0,4.86-0.72,9.1-2.16,12.72
					c-1.44,3.62-3.37,6.67-5.82,9.14c-2.44,2.48-5.22,4.34-8.33,5.57c-3.12,1.24-6.35,1.86-9.7,1.86c-2.87,0-5.63-0.57-8.26-1.72
					c-2.63-1.14-4.93-2.79-6.9-4.93c-1.96-2.14-3.52-4.74-4.67-7.79c-1.15-3.05-1.72-6.52-1.72-10.43V70.28
					c0-2.67,0.17-4.93,0.5-6.79c0.33-1.86,0.93-3.36,1.79-4.5c0.86-1.14,2.06-1.95,3.59-2.43c1.53-0.48,3.49-0.71,5.89-0.71v-2.29
					h-41.67v2.29c2.39,0,4.36,0.24,5.89,0.71c1.53,0.48,2.73,1.29,3.59,2.43c0.86,1.14,1.46,2.64,1.8,4.5
					c0.33,1.86,0.5,4.12,0.5,6.79v46.01c0,5.33,0.38,10.36,1.15,15.07c0.76,4.72,2.46,8.81,5.1,12.29
					c2.63,3.48,6.49,6.24,11.57,8.29c5.08,2.05,11.92,3.07,20.55,3.07c4.02,0,7.9-0.81,11.64-2.43c3.74-1.62,7.04-3.81,9.91-6.58
					c2.87-2.76,5.15-6.05,6.83-9.86c1.67-3.81,2.51-7.95,2.51-12.43V70.28c0-2.67,0.17-4.93,0.5-6.79c0.34-1.86,0.93-3.36,1.8-4.5
					c0.86-1.14,2.06-1.95,3.59-2.43c1.53-0.48,3.49-0.71,5.89-0.71v-2.29H467.61z M606.54,53.56h-13.51l-10.92,24.72l-17.96,40.29
					c-0.77,1.62-1.41,3.07-1.94,4.36c-0.53,1.29-1.03,2.41-1.51,3.36l-1.44,3l-36.06-75.73h-24.14v2.29c2.39,0,4.35,0.24,5.89,0.71
					c1.53,0.48,2.73,1.29,3.6,2.43c0.86,1.14,1.46,2.64,1.79,4.5c0.34,1.86,0.5,4.12,0.5,6.79V136c0,2.76-0.17,5.05-0.5,6.86
					c-0.34,1.81-0.93,3.29-1.79,4.43c-0.87,1.14-2.06,1.95-3.6,2.43c-1.53,0.48-3.5,0.72-5.89,0.72v2.29h28.02l0.14-2.29
					c-2.4,0-4.36-0.24-5.89-0.72c-1.53-0.48-2.73-1.29-3.59-2.43c-0.86-1.14-1.46-2.62-1.8-4.43c-0.34-1.81-0.5-4.09-0.5-6.86V79.28
					l36.35,76.01c0.09,0.29,0.24,0.4,0.43,0.36c0.19-0.05,0.34-0.17,0.43-0.36l0.43-0.72l35.34-79.73V136c0,2.76-0.17,5.05-0.5,6.86
					c-0.34,1.81-0.93,3.29-1.79,4.43c-0.86,1.14-2.06,1.95-3.59,2.43c-1.54,0.48-3.5,0.72-5.89,0.72v2.29h41.66v-2.29
					c-2.4,0-4.36-0.24-5.89-0.72c-1.53-0.48-2.73-1.29-3.59-2.43c-0.86-1.14-1.46-2.62-1.79-4.43c-0.34-1.81-0.5-4.09-0.5-6.86
					V70.28c0-2.67,0.17-4.93,0.5-6.79c0.34-1.86,0.93-3.36,1.79-4.5c0.86-1.14,2.06-1.95,3.59-2.43c1.53-0.48,3.49-0.71,5.89-0.71
					v-2.29H606.54z M800.22,53.56v2.29c2.39,0,4.36,0.24,5.89,0.71c1.53,0.48,2.73,1.29,3.59,2.43c0.86,1.14,1.46,2.64,1.79,4.5
					c0.34,1.86,0.5,4.12,0.5,6.79v57.15l-60.34-73.87h-25v2.29c2.39,0,4.36,0.24,5.89,0.71c1.53,0.48,2.73,1.29,3.59,2.43
					c0.86,1.14,1.46,2.64,1.8,4.5c0.33,1.86,0.5,4.12,0.5,6.79V136c0,2.76-0.17,5.05-0.5,6.86c-0.34,1.81-0.93,3.29-1.8,4.43
					c-0.86,1.14-2.06,1.95-3.59,2.43c-1.53,0.48-3.5,0.72-5.89,0.72v2.29h28.16v-2.29c-2.39,0-4.36-0.24-5.89-0.72
					c-1.53-0.48-2.73-1.29-3.6-2.43c-0.86-1.14-1.46-2.62-1.79-4.43c-0.34-1.81-0.5-4.09-0.5-6.86V69.85l72.56,88.87
					c0.19,0.19,0.41,0.23,0.64,0.14c0.24-0.1,0.36-0.29,0.36-0.57V70.28c0-2.67,0.17-4.93,0.5-6.79c0.34-1.86,0.93-3.36,1.8-4.5
					c0.86-1.14,2.06-1.95,3.59-2.43c1.53-0.48,3.5-0.71,5.89-0.71v-2.29H800.22z M1035.42,53.56v2.29c2.39,0,4.36,0.24,5.89,0.71
					c1.53,0.48,2.73,1.29,3.59,2.43c0.86,1.14,1.46,2.64,1.8,4.5c0.34,1.86,0.5,4.12,0.5,6.79V136c0,2.76-0.17,5.05-0.5,6.86
					c-0.34,1.81-0.93,3.29-1.8,4.43c-0.86,1.14-2.06,1.95-3.59,2.43c-1.53,0.48-3.5,0.72-5.89,0.72v2.29h76.73h0.29
					c0-0.38,0.26-2.31,0.79-5.79c0.52-3.48,1.36-8.93,2.51-16.36h-2.59v0.29c-0.38,2.76-1.17,5.29-2.37,7.57
					c-1.2,2.29-2.66,4.26-4.38,5.93c-1.72,1.67-3.64,2.98-5.75,3.93c-2.11,0.95-4.31,1.43-6.61,1.43h-28.74V70.28
					c0-2.38,0.12-4.48,0.36-6.29c0.24-1.81,0.79-3.31,1.65-4.5c0.86-1.19,2.06-2.09,3.59-2.72c1.53-0.62,3.59-0.93,6.17-0.93v-2.29
					H1035.42z M1120.05,53.56v2.29c2.39,0,4.36,0.24,5.89,0.71c1.53,0.48,2.73,1.29,3.59,2.43c0.86,1.14,1.46,2.64,1.8,4.5
					c0.34,1.86,0.5,4.12,0.5,6.79V136c0,2.76-0.17,5.05-0.5,6.86c-0.34,1.81-0.93,3.29-1.8,4.43c-0.86,1.14-2.06,1.95-3.59,2.43
					c-1.53,0.48-3.5,0.72-5.89,0.72v2.29h41.66v-2.29c-2.39,0-4.36-0.24-5.89-0.72c-1.53-0.48-2.73-1.29-3.59-2.43
					c-0.86-1.14-1.46-2.62-1.79-4.43c-0.34-1.81-0.5-4.09-0.5-6.86V70.28c0-2.67,0.16-4.93,0.5-6.79c0.34-1.86,0.93-3.36,1.79-4.5
					c0.87-1.14,2.06-1.95,3.59-2.43c1.53-0.48,3.5-0.71,5.89-0.71v-2.29H1120.05z M351.73,52.2c-4.07,0.81-7.83,2.31-11.28,4.5
					c-3.35,2.29-6.09,5.31-8.19,9.07c-2.11,3.76-2.92,7.65-2.44,11.65c0.29,3.05,1.2,5.84,2.73,8.36c0.67,1.1,1.39,2.16,2.17,3.18
					c0.32-0.16,0.56-0.27,0.71-0.35c0.29-0.14,7.13-3.28,14.35-3.67c0.45-0.02,0.91-0.04,1.39-0.04c1.8,0,3.25,0.17,3.52,0.2
					c2.32,0.28,4.05,0.8,5.09,1.17c-0.51-0.33-1.01-0.67-1.51-1.01c-2.2-1.62-4.29-3.43-6.25-5.43c-1.96-2-3.28-4.33-3.95-7
					c-0.39-1.62-0.43-3.26-0.14-4.93c0.29-1.67,0.84-3.24,1.65-4.72c0.81-1.47,1.84-2.81,3.09-4c1.24-1.19,2.63-2.12,4.17-2.79
					c2.59-1.05,4.98-1.57,7.18-1.57c2.97,0,5.7,0.57,8.19,1.71c2.49,1.14,4.69,2.69,6.61,4.64c1.91,1.95,3.52,4.19,4.81,6.72
					c1.29,2.52,2.23,5.12,2.8,7.79h1.73v-9.79c0-3.19-0.05-6.45-0.14-9.79c-4.02-1.14-8-2.19-11.92-3.14
					c-3.93-0.95-7.95-1.52-12.07-1.72c-0.78-0.04-1.57-0.05-2.35-0.05C358.34,51.22,355.03,51.55,351.73,52.2 M879.17,51.19
					c-6.71,0-12.88,1.17-18.53,3.5c-5.65,2.33-10.54,5.71-14.66,10.14c-4.12,4.43-7.35,9.86-9.7,16.29
					c-2.35,6.43-3.52,13.79-3.52,22.07c0,8.19,1.19,15.5,3.59,21.93c2.39,6.43,5.72,11.86,9.98,16.28
					c4.26,4.43,9.27,7.79,15.02,10.07c5.75,2.29,11.97,3.43,18.68,3.43c4.5,0,8.48-0.38,11.93-1.14c3.45-0.76,6.4-1.62,8.84-2.57
					c2.44-0.95,4.4-1.81,5.89-2.57c1.48-0.76,2.46-1.14,2.94-1.14c1.05,0,1.96,0.36,2.73,1.07c0.77,0.71,1.15,1.64,1.15,2.79v1.43
					h2.3v-32.14c0.48-3.33,1.53-5.66,3.16-7c1.63-1.34,4.36-2,8.19-2v-2.14H885.5v2.29h0.29c3.45,0,5.94,0.48,7.47,1.43l0.43,0.29
					l0.43,0.28l0.29,0.14c1.24,1.05,2.08,2.55,2.51,4.5c0.43,1.95,0.64,4.46,0.64,7.5v10.14c0,5.24-1.32,9.33-3.95,12.28
					c-2.64,2.95-6.68,4.43-12.14,4.43c-1.34,0-2.99-0.19-4.96-0.57c-1.96-0.38-4.02-1.16-6.18-2.35c-2.15-1.19-4.31-2.9-6.46-5.14
					c-2.16-2.24-4.07-5.19-5.75-8.86c-1.68-3.67-3.04-8.17-4.1-13.5c-1.06-5.33-1.58-11.72-1.58-19.15c0-7.43,0.52-13.81,1.58-19.14
					c1.05-5.33,2.42-9.83,4.1-13.5c1.68-3.66,3.59-6.62,5.75-8.86c2.16-2.24,4.31-3.95,6.46-5.14c2.16-1.19,4.21-1.98,6.18-2.36
					c0.98-0.19,1.89-0.33,2.71-0.43c0.7-0.08,1.35-0.13,1.93-0.14c0,0,0.03,0,0.06,0c0.42-0.01,5.54,0.14,10.09,2
					c7.78,3.18,13.3,11.13,15.96,16.03c0.55,0.9,1.02,1.86,1.4,2.85c0.16,0.36,0.27,0.66,0.34,0.87c0.5,1.53,0.72,3.03,0.72,3.03
					c0.18,1.27,0.18,2.22,0.18,2.68c0,1.89,0.06,4.55,0.18,8.21h5.74v-32.3h-5.74c0,0.51,0,0.97,0,1.36c0,0.03,0,0.06,0,0.09
					s0,0.06,0,0.09c-0.05,0.88-0.78,1.58-1.67,1.58c-0.22,0-0.43-0.04-0.63-0.12c-0.1-0.04-0.19-0.08-0.27-0.14l0,0
					c-2.14-1.11-7.15-4.03-9.98-5.29c-2.84-1.27-6.24-2.07-6.83-2.21c0,0-0.63-0.15-1.28-0.28c-3.3-0.67-6.33-0.89-8.97-0.89
					C880.03,51.18,879.59,51.18,879.17,51.19"/>
			</defs>
			<clipPath id="SVGID_33_">
				<use xlink:href="#SVGID_32_"  style="overflow:visible;"/>
			</clipPath>
			
				<linearGradient id="SVGID_34_" gradientUnits="userSpaceOnUse" x1="60.8307" y1="715.7869" x2="62.8028" y2="715.7869" gradientTransform="matrix(430.3795 0 0 -430.3795 -25867.3398 308165.0938)">
				<stop  offset="0" style="stop-color:#B5862C"/>
				<stop  offset="0.1159" style="stop-color:#D9A428"/>
				<stop  offset="0.5754" style="stop-color:#EDC265"/>
				<stop  offset="0.8045" style="stop-color:#C3912C"/>
				<stop  offset="1" style="stop-color:#B5862C"/>
			</linearGradient>
			<rect x="312.94" y="51.18" class="st10" width="848.77" height="107.78"/>
		</g>
		<g>
			<defs>
				<rect id="SVGID_35_" x="313.53" y="197.46" width="847.61" height="4.16"/>
			</defs>
			<clipPath id="SVGID_36_">
				<use xlink:href="#SVGID_35_"  style="overflow:visible;"/>
			</clipPath>
			
				<linearGradient id="SVGID_37_" gradientUnits="userSpaceOnUse" x1="60.8312" y1="715.6783" x2="62.8033" y2="715.6783" gradientTransform="matrix(429.7959 0 0 -429.7959 -25831.4492 307795.1563)">
				<stop  offset="0" style="stop-color:#B5862C"/>
				<stop  offset="0.1159" style="stop-color:#D9A428"/>
				<stop  offset="0.5754" style="stop-color:#EDC265"/>
				<stop  offset="0.8045" style="stop-color:#C3912C"/>
				<stop  offset="1" style="stop-color:#B5862C"/>
			</linearGradient>
			<rect x="313.53" y="197.46" class="st11" width="847.61" height="4.16"/>
		</g>
	</g>
</g>
</svg>
