<?xml version="1.0" encoding="utf-8"?>
<!-- Generator: Adobe Illustrator 24.3.0, SVG Export Plug-In . SVG Version: 6.00 Build 0)  -->
<svg version="1.1" id="Layer_1" xmlns="http://www.w3.org/2000/svg" xmlns:xlink="http://www.w3.org/1999/xlink" x="0px" y="0px"
	 viewBox="0 0 195.6 84.7" style="enable-background:new 0 0 195.6 84.7;" xml:space="preserve">
<style type="text/css">
	.st0{display:none;}
	.st1{display:inline;}
	.st2{fill:#F6F0E9;}
	.st3{clip-path:url(#SVGID_4_);}
	.st4{fill:none;stroke:#008ED3;stroke-miterlimit:10;}
	.st5{opacity:0.88;}
	.st6{fill:url(#SVGID_7_);}
	.st7{fill:#008ED3;}
	.st8{fill:#ECECEC;}
	.st9{fill:#FFFFFF;}
	.st10{fill-rule:evenodd;clip-rule:evenodd;fill:#EC0C6E;}
	.st11{fill-rule:evenodd;clip-rule:evenodd;fill:#008ED3;}
	.st12{fill:#87735B;}
	.st13{fill:#EC0C6E;}
	.st14{fill-rule:evenodd;clip-rule:evenodd;fill:#FFFFFF;}
	.st15{opacity:0.1;clip-path:url(#SVGID_9_);}
	.st16{fill-rule:evenodd;clip-rule:evenodd;fill:#004867;}
</style>
<g>
	<path class="st10" d="M69.7,25l-1.5-5.1c0,0-5.8-2.5-11.9-2.2c8.8,2.3,5.5,17.8,18.2,20.9h0.1c-1.2-0.5-8-3.9-8.7-15.7
		C65.9,22.9,68.4,23.5,69.7,25"/>
	<path class="st10" d="M84.1,26l1.3-3.4c0,0-3.7-7.3-19.3-9.4c4.8,4.5,5.8,17,11.8,25.3H81c-2.8-4-5.2-9.9-6.2-18.8
		C74.8,19.9,78,20.1,84.1,26"/>
	<path class="st10" d="M125.9,25l1.5-5.1c0,0,5.8-2.5,11.9-2.2c-8.8,2.3-5.5,17.8-18.2,20.9h-0.1c1.2-0.5,8-3.9,8.7-15.7
		C129.8,22.9,127.3,23.5,125.9,25"/>
	<path class="st10" d="M111.6,26l-1.3-3.4c0,0,3.7-7.3,19.3-9.4c-4.5,4.5-5.6,16.9-11.7,25.3h-3.2c2.8-4,5.2-9.9,6.2-18.8
		C120.8,19.9,117.6,20.1,111.6,26"/>
	<path class="st10" d="M86.5,38.6c-0.7-2.1-1.1-4.6-0.8-7.5c0,0-0.7-3.6,6.4-13.8c0,0,3.9-5.1,5.7-13v13.9c0,0-8.8,7.4-8.9,14.3
		c0,0-0.6,2.5,0.1,6H86.5z"/>
	<path class="st10" d="M109.1,38.6c0.7-2.1,1.1-4.6,0.8-7.5c0,0,0.7-3.6-6.4-13.8c0,0-3.9-5.1-5.7-13v13.9c0,0,8.8,7.4,8.9,14.3
		c0,0,0.6,2.5-0.1,6H109.1z"/>
	<path class="st11" d="M181.6,44.1c0.5,1.4,1.8,5,2.4,7c0.1,0.1,0,0.3-0.1,0.3c-0.3,0-1.4,0-2.2,0c-1.2,0-2.3,0-2.6,0
		c-0.1,0-0.1-0.1-0.1-0.2c0.6-1.7,1.9-5.4,2.4-7C181.5,44,181.6,44.1,181.6,44.1 M171.4,59.9c-0.1,0.1-0.1,0.8,0,0.9
		c0.6,0,1.6-0.1,3.5-0.1c1.8,0,3.5,0.1,4.2,0.1c0.1-0.1,0.2-0.8,0.1-0.9c-0.6-0.1-1.2-0.2-1.6-0.3c-1-0.3-1.1-0.6-1-1.2
		c0.1-0.8,1.1-3.5,1.8-5.3c0-0.1,0.2-0.3,0.3-0.3h5.8c0.1,0,0.3,0.1,0.3,0.2c0.6,1.5,1.6,4.2,2,5.6c0.1,0.3,0.1,0.6-0.4,0.8
		c-0.5,0.2-1.1,0.3-1.8,0.4c-0.1,0.1-0.1,0.8,0,0.9c0.7,0,2.7-0.1,4.3-0.1c1.5,0,3.1,0.1,4,0.1c0.1-0.1,0.2-0.8,0.1-0.9
		c-2.3-0.3-2.6-0.5-3.5-2.6c-1.1-2.7-4.8-13-5.4-14.9c-0.2-0.6-0.4-1.2-0.5-1.7c-0.1,0-0.4,0-1.1,0c-0.6,0-0.9,0-1.1,0
		c-0.1,0.5-0.3,1.2-0.6,1.9c-0.7,2.1-3.8,10.4-5.4,14.3C174.2,59.3,173.8,59.6,171.4,59.9z M148.4,41.5c1.3,0.1,2,0.3,2.6,0.7
		c0.7,0.4,0.9,1.1,0.9,1.6c-0.1,6.8-0.2,12.1-0.3,13.8c-0.1,1.3-0.5,1.7-1.2,1.9c-0.5,0.1-1,0.2-1.7,0.3c-0.1,0.1-0.1,0.8,0,0.9
		c0.7,0,1.9-0.1,3.9-0.1c1.8,0,3.3,0.1,4.1,0.1c0.1-0.1,0.2-0.8,0.1-0.9c-0.8-0.1-1.5-0.2-2-0.3c-0.8-0.2-1.3-0.7-1.3-2
		c-0.1-1.8-0.1-9.4,0-12.8c0,0,0.1-0.1,0.1,0c2,2.4,10.9,13.6,12.6,16.1c0.4,0,1.9,0,2.2,0c0-1.1-0.1-3-0.1-4.5
		c0.1-6.2,0.1-10.3,0.3-12.8c0.1-0.9,0.3-1.5,1.1-1.8c0.4-0.1,0.8-0.2,1.4-0.3c0.1-0.1,0.1-0.8,0-0.9c-0.4,0-2.3,0.1-3.5,0.1
		c-2,0-3.5-0.1-4.3-0.1c-0.1,0.1-0.1,0.8,0,0.9c0.9,0.1,1.6,0.2,2.2,0.4c1,0.3,1.2,0.8,1.2,1.7c0.2,2.3,0.1,8.4,0.1,12.9
		c0,0-0.1,0.1-0.1,0c-1.6-1.8-8.2-10-11.6-14.1c-0.8-1.1-1-1.4-1.2-1.8c-0.3,0-0.8,0-1.5,0c-1.6,0-3.3-0.1-4.1-0.1
		C148.4,40.7,148.3,41.4,148.4,41.5z M124,41.5c0.9,0.1,1.5,0.2,2,0.4c0.7,0.2,0.8,0.5,0.9,1.4c0,0.6,0.1,4,0.1,7.2
		c0,2.8,0,5.6,0,6.7c-0.1,1.5-0.2,2.1-1.1,2.4c-0.5,0.1-1,0.2-1.8,0.3c-0.1,0.1-0.1,0.8,0,0.9c0.7,0,2.4-0.1,4.3-0.1
		c2.1,0,3.6,0.1,4.2,0.1c0.1-0.1,0.3-0.8,0.1-0.9c-1-0.1-1.5-0.3-2-0.4c-0.8-0.2-0.9-0.7-1-1.8c0-0.7,0-4.4,0-6.2c0,0,0-0.2,0.1-0.2
		c0.3,0,3,0,5.5,0c1.8,0,4.6,0,5.2,0c0.1,0,0.2,0.1,0.2,0.2c0,2.1,0,5.6,0,6.5c-0.1,1-0.3,1.3-0.8,1.5c-0.5,0.2-1,0.2-1.9,0.3
		c-0.1,0.2-0.1,0.8,0,0.9c0.8,0,2.5-0.1,4.1-0.1c1.7,0,3.4,0.1,4.4,0.1c0.2-0.1,0.2-0.8,0.1-0.9c-1-0.1-1.6-0.2-2.1-0.4
		c-0.6-0.2-0.8-0.6-0.9-1.5c-0.1-1.1-0.1-4.7-0.1-7.5c0-3.9,0-5.8,0.1-6.9c0.1-1.2,0.2-1.5,0.9-1.8c0.4-0.1,1-0.2,1.7-0.3
		c0.1-0.1,0.1-0.8,0-0.9c-0.5,0-2.4,0.1-4,0.1c-1.7,0-3.3-0.1-4.1-0.1c-0.2,0.2-0.2,0.8,0,0.9c0.8,0.1,1.4,0.2,1.9,0.4
		c0.5,0.2,0.6,0.6,0.7,1.1c0.1,1.2,0.1,4.9,0.1,6.5c0,0.1-0.1,0.2-0.2,0.2c-0.3,0-1.5,0-5.1,0.1c-4.7,0-5.3,0-5.5-0.1
		c-0.1,0-0.2-0.2-0.2-0.3c0-3.2,0-4.9,0-6.1c0-1,0.3-1.3,0.9-1.5c0.4-0.1,1-0.2,1.6-0.3c0.1-0.1,0.1-0.7,0-0.9
		c-0.9,0-1.9,0.1-4.1,0.1c-1.8,0-3.4-0.1-4.2-0.1C123.9,40.7,123.9,41.4,124,41.5z M109.6,55.1c-0.2-0.1-0.9,0.1-1,0.3
		c0.1,1.1,0.6,4.5,0.9,4.9c0.8,0.4,2.7,1,4.7,1c4.6,0,7.2-2.8,7.2-6c0-2.4-1.4-3.7-3.1-4.8c-1.1-0.7-2.7-1.4-4-2.3
		c-1.4-0.9-2.2-1.9-2.2-3.7c0-1.6,1.2-3.3,3.4-3.3c1,0,1.9,0.2,2.6,0.7c0.8,0.5,1.1,1.4,1.3,3.4c0.1,0.2,0.8,0.2,0.9,0
		c0.1-1.6,0.3-3.4,0.6-4.5c-1.4-0.2-2.7-0.6-4.9-0.6c-3.5,0-6.4,2-6.4,5.5c0,2.9,2,4.5,4.9,6.2c2.9,1.7,4.3,2.7,4.3,4.9
		c0,2.4-1.8,3.4-3.5,3.4c-1.2,0-2.4-0.3-3.2-0.9C110.8,58.4,110.2,57.1,109.6,55.1z M97.4,41.5c0.9,0.1,1.5,0.2,2,0.4
		c0.7,0.2,0.7,0.7,0.8,1.5c0.1,1.5,0.1,3.6,0.1,6.3c0,4.3,0,7.6-0.1,8.5c-0.1,0.7-0.2,1.2-1.1,1.4c-0.5,0.1-0.9,0.2-1.7,0.3
		c-0.1,0.1-0.1,0.8,0,0.9c1,0,2.7-0.1,4.5-0.1c1.6,0,3.4,0.1,4.2,0.1c0.1-0.1,0.2-0.8,0.1-0.9c-0.8-0.1-1.5-0.2-1.9-0.3
		c-1-0.2-1.1-0.8-1.1-1.7c-0.1-1.1-0.1-4.3-0.1-7.5c0-2.8,0-5.6,0.1-6.9c0.1-1,0.2-1.4,0.9-1.6c0.4-0.1,0.9-0.2,1.7-0.3
		c0.1-0.2,0.1-0.8,0-0.9c-0.8,0-2.3,0.1-4,0.1c-1.7,0-3.5-0.1-4.2-0.1C97.3,40.7,97.3,41.4,97.4,41.5z M84,41.7c3.5,0,5,1.8,5,4.9
		c0,2.1-1.1,3.3-2.1,3.8c-0.6,0.3-2,0.3-4.2,0.3c-0.1,0-0.2-0.1-0.2-0.2c0-2.5,0-7,0.1-8.1c0-0.2,0.1-0.4,0.2-0.5
		C83.2,41.8,83.7,41.7,84,41.7z M76.9,41.5c0.7,0.1,1.3,0.2,1.8,0.3c0.8,0.2,1,0.6,1.1,1.5c0,1,0,4.3,0,7.6c0,1.8,0,6.2-0.1,7
		c-0.1,1.2-0.3,1.6-1.1,1.8c-0.4,0.1-0.9,0.2-1.7,0.3c-0.2,0.1-0.2,0.8,0,0.9c0.6,0,2-0.1,4.1-0.1c2.1,0,3.7,0.1,4.3,0.1
		c0.2-0.1,0.2-0.8,0.1-0.9c-0.7-0.1-1.3-0.2-1.8-0.3c-0.7-0.2-1-0.5-1-1.6c-0.1-1.1-0.1-4.1-0.1-5.9c0,0,0.1-0.2,0.1-0.2
		c0.5,0,1.9,0,2.3,0c0.3,0,0.6,0.2,0.8,0.5c1.2,1.8,3.2,5,4.5,6.5c0.6,0.7,1.1,1.1,1.6,1.3c1.2,0.6,3.8,0.7,5.2,0.6
		c0.2-0.1,0.3-0.8,0.2-0.9c-2-0.3-2.4-0.4-3.7-1.8c-1.6-1.6-4.2-5.2-5.3-7c0-0.1,0-0.2,0.1-0.2c2-0.9,3.7-2.5,3.7-5.2
		c0-2.7-2-5-5.8-5c-1.3,0-3,0.1-5.4,0.1c-1,0-3-0.1-3.7-0.1C76.9,40.7,76.8,41.4,76.9,41.5z M66.9,41.5c0.7,0.1,1.3,0.2,1.7,0.4
		c0.4,0.1,0.6,0.3,0.6,0.6c0,0.4-0.2,0.7-0.7,1.4c-1.9,2.3-5.2,6.1-6.8,6.6c-0.1,0.1-0.1,0.4-0.1,0.5c0.2,0.1,0.6,0.4,0.6,0.5
		c1.8,2.2,5.8,6.9,7.3,8.2c0.5,0.4,0.9,0.7,1.3,0.8c0.8,0.3,4.2,0.4,5.4,0.2c0.2-0.1,0.2-0.8,0.1-0.9c-0.9,0-1.5-0.1-2.2-0.3
		c-0.4-0.1-0.8-0.3-1.3-0.7c-2.2-1.7-7-7-8.2-8.9c0-0.1,0-0.1,0-0.2c1.5-1.5,3.9-4,5.9-6.2c1.4-1.5,2.1-1.8,4-2.1
		c0.2-0.1,0.2-0.8,0-0.9c-0.9,0-1.8,0.1-3.9,0.1c-1.6,0-2.7-0.1-3.7-0.1C66.8,40.7,66.7,41.4,66.9,41.5z M61.3,50.2
		c0-2.2,0-5.2,0-6.6c0.1-1.1,0.2-1.5,0.9-1.7c0.4-0.1,1.1-0.2,1.6-0.3c0.1-0.2,0.1-0.8,0-0.9c-0.9,0-2.2,0.1-3.9,0.1
		c-2.1,0-3.4-0.1-4.1-0.1c-0.2,0.1-0.2,0.8,0,0.9c0.6,0.1,1.2,0.2,1.6,0.3c0.8,0.2,1,0.6,1,1.5c0.1,1.9,0,4.3,0,6.9
		c0,2.8,0,5.9,0,7.5c-0.1,1.2-0.2,1.7-1.1,1.9c-0.4,0.1-1,0.2-1.8,0.3c-0.1,0.1-0.1,0.8,0,0.9c0.5,0,2.5-0.1,4-0.1
		c1.7,0,3.5,0.1,4.6,0.1c0.1-0.1,0.2-0.8,0.1-0.9c-0.8-0.1-1.3-0.2-1.8-0.3c-0.8-0.2-1-0.6-1.1-2.1C61.3,55.2,61.3,52.9,61.3,50.2z
		 M38.7,41.5c0.9,0.1,1.5,0.2,2,0.4c0.7,0.2,0.7,0.7,0.8,1.5c0.1,1.5,0.1,3.6,0.1,6.3c0,4.3,0,7.6-0.1,8.5c-0.1,0.7-0.2,1.2-1.1,1.4
		c-0.5,0.1-0.9,0.2-1.7,0.3c-0.1,0.1-0.1,0.8,0,0.9c1,0,2.7-0.1,4.5-0.1c1.6,0,3.4,0.1,4.2,0.1c0.1-0.1,0.2-0.8,0.1-0.9
		c-0.8-0.1-1.5-0.2-1.9-0.3c-1-0.2-1.1-0.8-1.1-1.7c-0.1-1.1-0.1-4.3-0.1-7.5c0-2.8,0-5.6,0.1-6.9c0.1-1,0.2-1.4,0.9-1.6
		c0.4-0.1,0.9-0.2,1.7-0.3c0.1-0.2,0.1-0.8,0-0.9c-0.8,0-2.3,0.1-4,0.1c-1.7,0-3.5-0.1-4.2-0.1C38.6,40.7,38.5,41.4,38.7,41.5z
		 M25.2,41.7c3.5,0,5,1.8,5,4.9c0,2.1-1.1,3.3-2.1,3.8c-0.6,0.3-2,0.3-4.2,0.3c-0.1,0-0.2-0.1-0.2-0.2c0-2.5,0-7,0.1-8.1
		c0-0.2,0.1-0.4,0.2-0.5C24.4,41.8,25,41.7,25.2,41.7z M18.2,41.5c0.7,0.1,1.3,0.2,1.8,0.3c0.8,0.2,1,0.6,1.1,1.5c0,1,0,4.3,0,7.6
		c0,1.8,0,6.2-0.1,7c-0.1,1.2-0.3,1.6-1.1,1.8c-0.4,0.1-0.9,0.2-1.7,0.3c-0.2,0.1-0.2,0.8,0,0.9c0.6,0,2-0.1,4.1-0.1
		c2.1,0,3.7,0.1,4.3,0.1c0.2-0.1,0.2-0.8,0.1-0.9c-0.7-0.1-1.3-0.2-1.8-0.3c-0.7-0.2-1-0.5-1-1.6c-0.1-1.1-0.1-4.1-0.1-5.9
		c0,0,0.1-0.2,0.1-0.2c0.5,0,1.9,0,2.3,0c0.3,0,0.6,0.2,0.8,0.5c1.2,1.8,3.2,5,4.5,6.5c0.6,0.7,1.1,1.1,1.6,1.3
		c1.2,0.6,3.8,0.7,5.2,0.6c0.2-0.1,0.3-0.8,0.2-0.9c-2-0.3-2.4-0.4-3.7-1.8c-1.6-1.6-4.2-5.2-5.3-7c0-0.1,0-0.2,0.1-0.2
		c2-0.9,3.7-2.5,3.7-5.2c0-2.7-2-5-5.8-5c-1.3,0-3,0.1-5.4,0.1c-1,0-3-0.1-3.7-0.1C18.1,40.7,18,41.4,18.2,41.5z M3.7,55.1
		c-0.2-0.1-0.9,0.1-1,0.3c0.1,1.1,0.6,4.5,0.9,4.9c0.8,0.4,2.7,1,4.7,1c4.6,0,7.2-2.8,7.2-6c0-2.4-1.4-3.7-3.1-4.8
		c-1.1-0.7-2.7-1.4-4-2.3c-1.4-0.9-2.2-1.9-2.2-3.7c0-1.6,1.2-3.3,3.4-3.3c1,0,1.9,0.2,2.6,0.7c0.8,0.5,1.1,1.4,1.3,3.4
		c0.1,0.2,0.8,0.2,0.9,0c0.1-1.6,0.3-3.4,0.6-4.5c-1.4-0.2-2.7-0.6-4.9-0.6c-3.5,0-6.4,2-6.4,5.5c0,2.9,2,4.5,4.9,6.2
		c2.9,1.7,4.3,2.7,4.3,4.9c0,2.4-1.8,3.4-3.5,3.4c-1.2,0-2.4-0.3-3.2-0.9C5,58.4,4.3,57.1,3.7,55.1z"/>
	<path class="st11" d="M170.1,71.3c0-0.2,0-1.3,0-2.1c0-0.8,0-2.1,0-2.3c0-0.1,0.1-0.2,0.1-0.2c0.1,0,0.3,0,0.5,0
		c0.7,0,1.3,0.1,1.7,0.4c0.8,0.5,1.1,1.3,1.1,2.3c0,1.1-0.3,1.7-0.8,2.1c-0.4,0.4-0.9,0.5-1.4,0.5c-0.4,0-0.8-0.1-1-0.2
		C170.2,71.6,170.1,71.5,170.1,71.3 M168.4,66.6c0.2,0,0.4,0.1,0.5,0.1c0.2,0.1,0.3,0.1,0.3,0.5c0,0.3,0,1.5,0,2.1
		c0,0.9,0,1.7,0,2.3c0,0.3-0.1,0.4-0.3,0.5c-0.2,0-0.3,0.1-0.6,0.1c0,0,0,0.2,0,0.3h0.5c0.8,0,1.5,0,2.1,0c1,0,1.7-0.2,2.3-0.7
		c0.6-0.4,1.2-1.2,1.2-2.5c0-0.9-0.3-1.7-0.9-2.2c-0.5-0.4-1.2-0.7-2.1-0.7c-0.9,0-1.3,0-1.9,0c-0.3,0-1,0-1.2,0
		C168.4,66.3,168.4,66.5,168.4,66.6z M163.9,72c-0.3,0-0.5-0.1-0.7-0.1c-0.2-0.1-0.3-0.2-0.3-0.5c0-0.5,0-3.2,0-4.6c0,0,0-0.1,0-0.1
		c0.2,0,0.9,0,1.4,0c0.2,0,0.3,0.1,0.4,0.3c0.1,0.2,0.1,0.5,0.2,0.9c0,0,0.3,0,0.3,0c0-0.5,0.1-1.3,0.2-1.6c0,0-0.1,0-0.1,0
		c-0.3,0.1-0.5,0.1-0.9,0.1h-3.6c-0.4,0-0.6-0.1-0.8-0.1c0,0-0.1,0-0.1,0c0,0.4-0.1,1.2-0.2,1.6c0,0,0.3,0.1,0.3,0.1
		c0.1-0.4,0.3-0.7,0.4-0.9c0.1-0.2,0.2-0.3,0.4-0.3c0.4,0,1.1,0,1.2,0c0,0,0.1,0,0.1,0.1c0,1.6,0,3.7,0,4.4c0,0.4-0.1,0.6-0.4,0.7
		c-0.1,0-0.4,0.1-0.7,0.1c0,0,0,0.2,0,0.3c0.3,0,0.7,0,1.5,0c0.6,0,1.2,0,1.4,0C163.9,72.3,163.9,72.1,163.9,72z M152.5,66.6
		c0.2,0,0.4,0.1,0.5,0.1c0.3,0.1,0.3,0.2,0.3,0.6c0,0.3,0,0.8,0,1.9c0,1.3,0,2.2,0,2.5c0,0.2-0.1,0.3-0.3,0.4
		c-0.2,0-0.3,0.1-0.6,0.1c0,0,0,0.3,0,0.3c0.2,0,0.9,0,1.4,0c0.5,0,2.2,0,2.8,0c0.3,0,0.4,0,0.4-0.1c0.2-0.3,0.4-1.2,0.5-1.6
		c0-0.1-0.2-0.1-0.3-0.1c-0.2,0.4-0.4,0.8-0.6,1.1c-0.2,0.3-0.4,0.3-0.6,0.4c-0.4,0-1.4,0-1.6-0.1c-0.1,0-0.2-0.1-0.2-0.3
		c0-0.4,0-1.2,0-2.4c0-0.9,0-1.7,0-2.1c0-0.2,0-0.3,0.3-0.4c0.1,0,0.3-0.1,0.5-0.1c0,0,0-0.2,0-0.3c-0.2,0-0.6,0-1.2,0
		c-0.6,0-1,0-1.2,0C152.5,66.3,152.5,66.5,152.5,66.6z M148.8,71.2c-0.1,0-0.3,0.1-0.4,0.2c-0.1,0.1-0.2,0.3-0.2,0.4
		c0,0.2,0,0.3,0.2,0.4c0.1,0.1,0.2,0.1,0.3,0.1c0.2,0,0.3,0,0.4-0.2c0.1-0.1,0.2-0.3,0.2-0.4c0-0.1,0-0.3-0.2-0.4
		C149.1,71.3,148.9,71.2,148.8,71.2z M144.5,72c-0.3,0-0.5-0.1-0.7-0.1c-0.2-0.1-0.3-0.2-0.3-0.5c0-0.5,0-3.2,0-4.6c0,0,0-0.1,0-0.1
		c0.2,0,0.9,0,1.4,0c0.2,0,0.3,0.1,0.4,0.3c0.1,0.2,0.1,0.5,0.2,0.9c0,0,0.3,0,0.3,0c0-0.5,0.1-1.3,0.2-1.6c0,0-0.1,0-0.1,0
		c-0.3,0.1-0.5,0.1-0.9,0.1h-3.6c-0.4,0-0.6-0.1-0.8-0.1c0,0-0.1,0-0.1,0c0,0.4-0.1,1.2-0.2,1.6c0,0,0.3,0.1,0.3,0.1
		c0.1-0.4,0.3-0.7,0.4-0.9c0.1-0.2,0.2-0.3,0.4-0.3c0.4,0,1.1,0,1.2,0c0,0,0.1,0,0.1,0.1c0,1.6,0,3.7,0,4.4c0,0.4-0.1,0.6-0.4,0.7
		c-0.1,0-0.4,0.1-0.7,0.1c0,0,0,0.2,0,0.3c0.3,0,0.7,0,1.5,0c0.6,0,1.2,0,1.4,0C144.5,72.3,144.6,72.1,144.5,72z M130.9,66.6
		c0.2,0,0.3,0.1,0.5,0.1c0.3,0.1,0.4,0.2,0.6,0.8c0.3,0.7,0.9,2.3,1.4,3.6c0.2,0.5,0.3,0.9,0.4,1.3c0.1,0,0.4,0,0.6,0
		c0.1-0.3,0.3-0.8,0.5-1.4c0.5-1.2,1.1-2.8,1.4-3.5c0.2-0.5,0.3-0.7,0.6-0.8c0.1,0,0.3-0.1,0.4-0.1c0,0,0-0.2,0-0.3
		c-0.2,0-0.5,0-1,0c-0.6,0-1,0-1.1,0c0,0-0.1,0.2,0,0.3l0.5,0.1c0.3,0.1,0.3,0.2,0.2,0.6c-0.3,0.8-1.3,3.4-1.5,3.9c0,0,0,0,0,0
		c-0.2-0.4-1.3-3.4-1.6-4.2c0-0.1,0-0.3,0.1-0.3c0.1,0,0.3-0.1,0.5-0.1c0,0,0-0.3,0-0.3c-0.1,0-0.7,0-1.2,0c-0.4,0-0.9,0-1.2,0
		C130.9,66.3,130.9,66.5,130.9,66.6z M125.6,69.8c0.1,0,0.3,0,0.4,0c0.3,0,0.7-0.1,1-0.2c0.5-0.2,1-0.8,1-1.7c0-0.6-0.3-1.1-0.6-1.3
		c-0.4-0.3-1-0.4-1.3-0.4c-0.6,0-1,0-1.6,0c-0.5,0-1,0-1.1,0c0,0-0.1,0.2,0,0.3c0.2,0,0.3,0,0.5,0.1c0.3,0.1,0.3,0.2,0.3,0.5
		c0,0.3,0,1,0,2.1c0,1,0,1.8,0,2.2c0,0.4-0.1,0.5-0.3,0.6c-0.1,0-0.3,0-0.5,0.1c0,0,0,0.2,0,0.3c0.2,0,0.8,0,1.3,0
		c0.4,0,1.1,0,1.3,0c0,0,0-0.2,0-0.3c-0.2,0-0.4,0-0.6-0.1c-0.3-0.1-0.3-0.1-0.4-0.5c0-0.5,0-1.2,0-2.3c0-1.6,0-2.1,0-2.3
		c0-0.1,0-0.1,0.1-0.1c0.1,0,0.3,0,0.4,0c1.1,0,1.5,0.6,1.5,1.5c0,0.6-0.1,1-0.6,1.2c-0.2,0.1-0.4,0.1-0.7,0.1c-0.1,0-0.3,0-0.4,0
		c0,0,0,0,0,0.1C125.5,69.7,125.6,69.8,125.6,69.8z M115.9,66.6c0.3,0,0.4,0.1,0.6,0.1c0.2,0.1,0.2,0.2,0.2,0.4c0,0.5,0,1.1,0,1.9
		c0,1.3,0,2.3,0,2.5c0,0.2-0.1,0.4-0.3,0.4c-0.1,0-0.3,0.1-0.5,0.1c0,0,0,0.3,0,0.3c0.3,0,0.8,0,1.3,0c0.5,0,1,0,1.2,0
		c0,0,0.1-0.2,0-0.3c-0.2,0-0.4-0.1-0.6-0.1c-0.3-0.1-0.3-0.2-0.3-0.5c0-0.3,0-1.3,0-2.2c0-0.8,0-1.7,0-2.1c0-0.3,0.1-0.4,0.3-0.5
		c0.1,0,0.3,0,0.5-0.1c0,0,0-0.2,0-0.3c-0.2,0-0.7,0-1.2,0c-0.5,0-1.1,0-1.3,0C115.9,66.3,115.9,66.5,115.9,66.6z M109.9,67.3
		c0.2,0.4,0.5,1.5,0.7,2.1c0,0,0,0.1,0,0.1c-0.1,0-0.4,0-0.6,0c-0.4,0-0.7,0-0.8,0c0,0,0,0,0-0.1C109.3,68.9,109.7,67.8,109.9,67.3
		C109.9,67.3,109.9,67.3,109.9,67.3z M106.9,72c0,0,0,0.2,0,0.3c0.2,0,0.5,0,1,0c0.5,0,1,0,1.2,0c0,0,0-0.2,0-0.3
		c-0.2,0-0.3,0-0.5-0.1c-0.3-0.1-0.3-0.2-0.3-0.3c0-0.2,0.3-1,0.5-1.6c0,0,0.1-0.1,0.1-0.1h1.7c0,0,0.1,0,0.1,0.1
		c0.2,0.4,0.5,1.2,0.6,1.7c0,0.1,0,0.2-0.1,0.2c-0.1,0-0.3,0.1-0.5,0.1c0,0,0,0.2,0,0.3c0.2,0,0.8,0,1.3,0c0.4,0,0.9,0,1.2,0
		c0,0,0.1-0.3,0-0.3c-0.7-0.1-0.8-0.1-1-0.8c-0.3-0.8-1.4-3.9-1.6-4.4c-0.1-0.2-0.1-0.4-0.2-0.5c0,0-0.1,0-0.3,0c-0.2,0-0.3,0-0.3,0
		c0,0.1-0.1,0.3-0.2,0.5c-0.2,0.6-1.1,3.1-1.6,4.2C107.7,71.9,107.6,71.9,106.9,72z M103.7,71.9c-0.2-0.1-0.2-0.1-0.2-0.3
		c0-0.2,0-0.8,0-1.1c0-0.3,0.1-0.4,0.2-0.5c0.1,0,0.2,0,0.3-0.1c0,0,0-0.3,0-0.3c-0.2,0-0.5,0-1.1,0c-0.6,0-1.1,0-1.4,0
		c0,0-0.1,0.3,0,0.3c0.3,0,0.5,0.1,0.6,0.1c0.3,0.1,0.3,0.2,0.4,0.5c0,0.3,0,0.7,0,1c0,0.2-0.1,0.3-0.2,0.4
		c-0.1,0.1-0.4,0.1-0.6,0.1c-1.7,0-2.6-1.3-2.6-2.9c0-1.6,0.7-2.7,2.2-2.7c0.6,0,1,0.1,1.3,0.3c0.3,0.2,0.4,0.4,0.5,1.2
		c0,0,0.3,0,0.3,0c0-0.4,0.1-1.2,0.2-1.5c-0.6-0.1-1.1-0.2-1.9-0.2c-0.8,0-1.3,0.1-1.9,0.4c-1.1,0.5-1.7,1.5-1.7,2.7
		c0,2,1.2,3.2,3.4,3.2c0.8,0,1.8-0.3,2.1-0.4C103.7,72,103.7,71.9,103.7,71.9z M92.2,66.6c0.3,0,0.4,0.1,0.6,0.1
		c0.2,0.1,0.2,0.2,0.2,0.4c0,0.5,0,1.1,0,1.9c0,1.3,0,2.3,0,2.5c0,0.2-0.1,0.4-0.3,0.4c-0.1,0-0.3,0.1-0.5,0.1c0,0,0,0.3,0,0.3
		c0.3,0,0.8,0,1.3,0c0.5,0,1,0,1.2,0c0,0,0.1-0.2,0-0.3c-0.2,0-0.4-0.1-0.6-0.1c-0.3-0.1-0.3-0.2-0.3-0.5c0-0.3,0-1.3,0-2.2
		c0-0.8,0-1.7,0-2.1c0-0.3,0.1-0.4,0.3-0.5c0.1,0,0.3,0,0.5-0.1c0,0,0-0.2,0-0.3c-0.2,0-0.7,0-1.2,0c-0.5,0-1.1,0-1.3,0
		C92.2,66.3,92.2,66.5,92.2,66.6z M84.4,66.6c0.2,0,0.4,0.1,0.5,0.1c0.3,0.1,0.3,0.2,0.3,0.6c0,0.3,0,0.8,0,1.9c0,1.3,0,2.2,0,2.5
		c0,0.2-0.1,0.3-0.3,0.4c-0.2,0-0.3,0.1-0.6,0.1c0,0,0,0.3,0,0.3c0.2,0,0.9,0,1.4,0c0.5,0,2.2,0,2.8,0c0.3,0,0.4,0,0.4-0.1
		c0.2-0.3,0.4-1.2,0.5-1.6c0-0.1-0.2-0.1-0.3-0.1c-0.2,0.4-0.4,0.8-0.6,1.1c-0.2,0.3-0.4,0.3-0.6,0.4c-0.4,0-1.4,0-1.6-0.1
		c-0.1,0-0.2-0.1-0.2-0.3c0-0.4,0-1.2,0-2.4c0-0.9,0-1.7,0-2.1c0-0.2,0-0.3,0.3-0.4c0.1,0,0.3-0.1,0.5-0.1c0,0,0-0.2,0-0.3
		c-0.2,0-0.6,0-1.2,0c-0.6,0-1,0-1.2,0C84.4,66.3,84.3,66.5,84.4,66.6z M78.4,67.3c0.2,0.4,0.5,1.5,0.7,2.1c0,0,0,0.1,0,0.1
		c-0.1,0-0.4,0-0.6,0c-0.4,0-0.7,0-0.8,0c0,0,0,0,0-0.1C77.8,68.9,78.2,67.8,78.4,67.3C78.3,67.3,78.4,67.3,78.4,67.3z M75.3,72
		c0,0,0,0.2,0,0.3c0.2,0,0.5,0,1,0c0.5,0,1,0,1.2,0c0,0,0-0.2,0-0.3c-0.2,0-0.3,0-0.5-0.1c-0.3-0.1-0.3-0.2-0.3-0.3
		c0-0.2,0.3-1,0.5-1.6c0,0,0.1-0.1,0.1-0.1h1.7c0,0,0.1,0,0.1,0.1c0.2,0.4,0.5,1.2,0.6,1.7c0,0.1,0,0.2-0.1,0.2
		c-0.1,0-0.3,0.1-0.5,0.1c0,0,0,0.2,0,0.3c0.2,0,0.8,0,1.3,0c0.4,0,0.9,0,1.2,0c0,0,0.1-0.3,0-0.3c-0.7-0.1-0.8-0.1-1-0.8
		c-0.3-0.8-1.4-3.9-1.6-4.4c-0.1-0.2-0.1-0.4-0.2-0.5c0,0-0.1,0-0.3,0c-0.2,0-0.3,0-0.3,0c0,0.1-0.1,0.3-0.2,0.5
		c-0.2,0.6-1.1,3.1-1.6,4.2C76.2,71.9,76,71.9,75.3,72z M65,66.6c0.3,0,0.5,0.1,0.7,0.1c0.2,0.1,0.3,0.3,0.3,0.4
		c-0.1,0.9-0.3,3.4-0.3,4.1c-0.1,0.5-0.1,0.6-0.4,0.7c-0.1,0-0.3,0-0.5,0.1c0,0,0,0.2,0,0.3c0.2,0,0.6,0,1.2,0c0.5,0,1,0,1.1,0
		c0,0,0.1-0.2,0-0.3c-0.3,0-0.5-0.1-0.6-0.1c-0.3-0.1-0.3-0.3-0.3-0.6c0-0.8,0.1-3,0.2-3.8c0,0,0,0,0,0c0.3,0.8,1.8,4,2,4.8
		c0,0,0.3,0,0.3,0c0.3-0.9,1.9-4.2,2.2-4.8c0,0,0,0,0,0c0,0.9,0,3.4,0,4c0,0.2,0,0.4-0.3,0.4c-0.1,0-0.3,0.1-0.5,0.1
		c0,0,0,0.2,0,0.3c0.3,0,0.8,0,1.3,0c0.6,0,1,0,1.3,0c0-0.1,0-0.2,0-0.3c-0.2,0-0.4,0-0.5-0.1c-0.3-0.1-0.3-0.2-0.4-0.6
		c0-0.7-0.1-3.7-0.1-4.3c0-0.2,0.1-0.3,0.3-0.4c0.1,0,0.3-0.1,0.6-0.1c0,0,0-0.3,0-0.3c-0.4,0-0.8,0-1.7,0c0,0.2-0.1,0.3-0.2,0.5
		c-0.4,1-1.7,3.6-1.9,3.9c0,0,0,0,0,0c-0.2-0.3-1.3-2.6-1.8-3.9c-0.1-0.2-0.2-0.4-0.2-0.6c-1,0-1.4,0-1.8,0C65,66.3,65,66.5,65,66.6
		z M57.4,66.6c0.3,0,0.4,0.1,0.6,0.1c0.2,0.1,0.2,0.2,0.2,0.4c0,0.5,0,1.1,0,1.9c0,1.3,0,2.3,0,2.5c0,0.2-0.1,0.4-0.3,0.4
		c-0.1,0-0.3,0.1-0.5,0.1c0,0,0,0.3,0,0.3c0.3,0,0.8,0,1.3,0c0.5,0,1,0,1.2,0c0,0,0.1-0.2,0-0.3c-0.2,0-0.4-0.1-0.6-0.1
		c-0.3-0.1-0.3-0.2-0.3-0.5c0-0.3,0-1.3,0-2.2c0-0.8,0-1.7,0-2.1c0-0.3,0.1-0.4,0.3-0.5c0.1,0,0.3,0,0.5-0.1c0,0,0-0.2,0-0.3
		c-0.2,0-0.7,0-1.2,0c-0.5,0-1.1,0-1.3,0C57.4,66.3,57.4,66.5,57.4,66.6z M51.4,67.3c0.2,0.4,0.5,1.5,0.7,2.1c0,0,0,0.1,0,0.1
		c-0.1,0-0.4,0-0.6,0c-0.4,0-0.7,0-0.8,0c0,0,0,0,0-0.1C50.8,68.9,51.2,67.8,51.4,67.3C51.4,67.3,51.4,67.3,51.4,67.3z M48.4,72
		c0,0,0,0.2,0,0.3c0.2,0,0.5,0,1,0c0.5,0,1,0,1.2,0c0,0,0-0.2,0-0.3c-0.2,0-0.3,0-0.5-0.1c-0.3-0.1-0.3-0.2-0.3-0.3
		c0-0.2,0.3-1,0.5-1.6c0,0,0.1-0.1,0.1-0.1h1.7c0,0,0.1,0,0.1,0.1c0.2,0.4,0.5,1.2,0.6,1.7c0,0.1,0,0.2-0.1,0.2
		c-0.1,0-0.3,0.1-0.5,0.1c0,0,0,0.2,0,0.3c0.2,0,0.8,0,1.3,0c0.4,0,0.9,0,1.2,0c0,0,0.1-0.3,0-0.3c-0.7-0.1-0.8-0.1-1-0.8
		c-0.3-0.8-1.4-3.9-1.6-4.4C52,66.6,52,66.5,52,66.3c0,0-0.1,0-0.3,0c-0.2,0-0.3,0-0.3,0c0,0.1-0.1,0.3-0.2,0.5
		c-0.2,0.6-1.1,3.1-1.6,4.2C49.2,71.9,49.1,71.9,48.4,72z M45.2,71.9C45,71.8,45,71.7,45,71.6c0-0.2,0-0.8,0-1.1
		c0-0.3,0.1-0.4,0.2-0.5c0.1,0,0.2,0,0.3-0.1c0,0,0-0.3,0-0.3c-0.2,0-0.5,0-1.1,0c-0.6,0-1.1,0-1.4,0c0,0-0.1,0.3,0,0.3
		c0.3,0,0.5,0.1,0.6,0.1c0.3,0.1,0.3,0.2,0.4,0.5c0,0.3,0,0.7,0,1c0,0.2-0.1,0.3-0.2,0.4c-0.1,0.1-0.4,0.1-0.6,0.1
		c-1.7,0-2.6-1.3-2.6-2.9c0-1.6,0.7-2.7,2.2-2.7c0.6,0,1,0.1,1.3,0.3c0.3,0.2,0.4,0.4,0.5,1.2c0,0,0.3,0,0.3,0
		c0-0.4,0.1-1.2,0.2-1.5c-0.6-0.1-1.1-0.2-1.9-0.2c-0.8,0-1.3,0.1-1.9,0.4c-1.1,0.5-1.7,1.5-1.7,2.7c0,2,1.2,3.2,3.4,3.2
		c0.8,0,1.8-0.3,2.1-0.4C45.2,72,45.2,71.9,45.2,71.9z M33.5,67.3c0.2,0.4,0.5,1.5,0.7,2.1c0,0,0,0.1,0,0.1c-0.1,0-0.4,0-0.6,0
		c-0.4,0-0.7,0-0.8,0c0,0,0,0,0-0.1C32.9,68.9,33.3,67.8,33.5,67.3C33.5,67.3,33.5,67.3,33.5,67.3z M30.5,72c0,0,0,0.2,0,0.3
		c0.2,0,0.5,0,1,0c0.5,0,1,0,1.2,0c0,0,0-0.2,0-0.3c-0.2,0-0.3,0-0.5-0.1c-0.3-0.1-0.3-0.2-0.3-0.3c0-0.2,0.3-1,0.5-1.6
		c0,0,0.1-0.1,0.1-0.1h1.7c0,0,0.1,0,0.1,0.1c0.2,0.4,0.5,1.2,0.6,1.7c0,0.1,0,0.2-0.1,0.2c-0.1,0-0.3,0.1-0.5,0.1c0,0,0,0.2,0,0.3
		c0.2,0,0.8,0,1.3,0c0.4,0,0.9,0,1.2,0c0,0,0.1-0.3,0-0.3c-0.7-0.1-0.8-0.1-1-0.8c-0.3-0.8-1.4-3.9-1.6-4.4
		c-0.1-0.2-0.1-0.4-0.2-0.5c0,0-0.1,0-0.3,0c-0.2,0-0.3,0-0.3,0c0,0.1-0.1,0.3-0.2,0.5c-0.2,0.6-1.1,3.1-1.6,4.2
		C31.3,71.9,31.2,71.9,30.5,72z M21.2,66.6c0.4,0,0.6,0.1,0.8,0.2c0.2,0.1,0.3,0.3,0.3,0.5c0,2,0,3.6-0.1,4.1c0,0.4-0.1,0.5-0.4,0.6
		c-0.1,0-0.3,0.1-0.5,0.1c0,0,0,0.3,0,0.3c0.2,0,0.6,0,1.2,0c0.5,0,1,0,1.2,0c0,0,0.1-0.2,0-0.3c-0.2,0-0.4,0-0.6-0.1
		c-0.3-0.1-0.4-0.2-0.4-0.6c0-0.5,0-2.8,0-3.8c0,0,0,0,0,0c0.6,0.7,3.2,4,3.7,4.8c0.1,0,0.6,0,0.7,0c0-0.3,0-0.9,0-1.3
		c0-1.8,0-3.1,0.1-3.8c0-0.3,0.1-0.4,0.3-0.5c0.1,0,0.3-0.1,0.4-0.1c0,0,0-0.2,0-0.3c-0.1,0-0.7,0-1,0c-0.6,0-1,0-1.3,0
		c0,0,0,0.2,0,0.3c0.3,0,0.5,0.1,0.6,0.1c0.3,0.1,0.3,0.2,0.4,0.5c0,0.7,0,2.5,0,3.8c0,0,0,0,0,0c-0.5-0.5-2.4-3-3.4-4.2
		c-0.3-0.3-0.3-0.4-0.3-0.5c-0.1,0-0.2,0-0.4,0c-0.5,0-1,0-1.2,0C21.2,66.3,21.2,66.5,21.2,66.6z"/>
	<path class="st11" d="M108.8,78.3c0,0.4,0,0.7,0.1,1c0.1,0.2,0.2,0.4,0.3,0.5c0.1,0.1,0.3,0.2,0.5,0.2c0.2,0,0.3-0.1,0.5-0.2
		c0.1-0.1,0.3-0.3,0.3-0.5c0.1-0.3,0.1-0.6,0.1-1c0-0.4,0-0.7-0.1-0.9c-0.1-0.2-0.2-0.4-0.3-0.5c-0.1-0.1-0.3-0.2-0.5-0.2
		c-0.2,0-0.3,0.1-0.5,0.2c-0.1,0.1-0.3,0.3-0.3,0.5C108.8,77.5,108.8,77.9,108.8,78.3 M108.4,78.3c0-0.5,0.1-0.9,0.2-1.1
		c0.1-0.3,0.3-0.5,0.4-0.6c0.2-0.1,0.4-0.2,0.6-0.2c0.2,0,0.5,0.1,0.7,0.2c0.2,0.1,0.4,0.3,0.5,0.6c0.1,0.3,0.2,0.7,0.2,1.1
		c0,0.5-0.1,0.8-0.2,1.1c-0.1,0.3-0.3,0.5-0.5,0.6c-0.2,0.1-0.4,0.2-0.7,0.2c-0.2,0-0.5-0.1-0.6-0.2c-0.2-0.1-0.3-0.3-0.4-0.6
		C108.5,79.1,108.4,78.8,108.4,78.3z M106.8,78.2c0.2,0,0.4-0.1,0.6-0.2c0.2-0.2,0.2-0.3,0.2-0.6c0-0.2-0.1-0.4-0.2-0.6
		c-0.2-0.2-0.3-0.2-0.6-0.2c-0.2,0-0.4,0.1-0.6,0.2c-0.2,0.2-0.2,0.3-0.2,0.6c0,0.2,0.1,0.4,0.2,0.6
		C106.4,78.2,106.6,78.2,106.8,78.2z M106.4,80.2l-0.3-0.2l1-1.5c-0.1,0-0.3,0.1-0.4,0.1c-0.3,0-0.5-0.1-0.8-0.3
		c-0.2-0.2-0.3-0.5-0.3-0.8c0-0.2,0.1-0.4,0.2-0.6c0.1-0.2,0.2-0.3,0.4-0.4c0.2-0.1,0.4-0.2,0.6-0.2c0.2,0,0.4,0.1,0.6,0.2
		c0.2,0.1,0.3,0.2,0.4,0.4c0.1,0.2,0.2,0.4,0.2,0.6c0,0.2,0,0.3-0.1,0.5c-0.1,0.2-0.2,0.4-0.3,0.6L106.4,80.2z M103.9,78.2
		c0.2,0,0.4-0.1,0.6-0.2c0.2-0.2,0.2-0.3,0.2-0.6c0-0.2-0.1-0.4-0.2-0.6c-0.2-0.2-0.3-0.2-0.6-0.2c-0.2,0-0.4,0.1-0.6,0.2
		c-0.2,0.2-0.2,0.3-0.2,0.6c0,0.2,0.1,0.4,0.2,0.6C103.5,78.2,103.7,78.2,103.9,78.2z M103.5,80.2l-0.3-0.2l1-1.5
		c-0.1,0-0.3,0.1-0.4,0.1c-0.3,0-0.5-0.1-0.8-0.3c-0.2-0.2-0.3-0.5-0.3-0.8c0-0.2,0.1-0.4,0.2-0.6c0.1-0.2,0.2-0.3,0.4-0.4
		c0.2-0.1,0.4-0.2,0.6-0.2c0.2,0,0.4,0.1,0.6,0.2c0.2,0.1,0.3,0.2,0.4,0.4c0.1,0.2,0.2,0.4,0.2,0.6c0,0.2,0,0.3-0.1,0.5
		c-0.1,0.2-0.2,0.4-0.3,0.6L103.5,80.2z M100.6,76.4h0.7v3.7h-0.4v-3.4h-0.6L100.6,76.4z M97.5,78.5c0-0.2-0.1-0.3-0.2-0.5
		c-0.1-0.1-0.2-0.2-0.4-0.3c-0.2-0.1-0.3-0.1-0.5-0.1c-0.3,0-0.5,0.1-0.7,0.3c-0.1,0.1-0.3,0.3-0.3,0.6H97.5z M97.5,79.2l0.3,0.2
		c-0.1,0.2-0.2,0.3-0.3,0.5c-0.1,0.1-0.3,0.2-0.4,0.3c-0.2,0.1-0.3,0.1-0.5,0.1c-0.5,0-0.8-0.1-1.1-0.4c-0.3-0.3-0.4-0.6-0.4-1
		c0-0.4,0.1-0.7,0.3-0.9c0.3-0.3,0.6-0.5,1.1-0.5c0.5,0,0.9,0.2,1.1,0.5c0.2,0.3,0.3,0.6,0.3,0.9h-2.5c0,0.3,0.1,0.6,0.3,0.8
		c0.2,0.2,0.4,0.3,0.7,0.3c0.1,0,0.3,0,0.4-0.1c0.1,0,0.2-0.1,0.3-0.2C97.3,79.5,97.4,79.4,97.5,79.2z M94.5,77.9l-0.3,0.2
		c-0.2-0.3-0.6-0.5-1-0.5c-0.3,0-0.6,0.1-0.8,0.3c-0.2,0.2-0.3,0.5-0.3,0.8c0,0.2,0.1,0.4,0.2,0.6c0.1,0.2,0.2,0.3,0.4,0.4
		c0.2,0.1,0.4,0.1,0.6,0.1c0.4,0,0.7-0.2,1-0.5l0.3,0.2c-0.1,0.2-0.3,0.4-0.5,0.5c-0.2,0.1-0.5,0.2-0.8,0.2c-0.4,0-0.8-0.1-1.1-0.4
		c-0.3-0.3-0.4-0.6-0.4-1c0-0.3,0.1-0.5,0.2-0.7c0.1-0.2,0.3-0.4,0.6-0.5c0.2-0.1,0.5-0.2,0.8-0.2c0.2,0,0.4,0,0.5,0.1
		c0.2,0.1,0.3,0.1,0.4,0.2C94.3,77.7,94.4,77.8,94.5,77.9z M88.6,77.4H89v0.5c0.1-0.2,0.3-0.3,0.5-0.4c0.2-0.1,0.4-0.1,0.6-0.1
		c0.2,0,0.4,0.1,0.6,0.2c0.2,0.1,0.3,0.2,0.4,0.4c0.1,0.2,0.1,0.5,0.1,0.8v1.4h-0.4v-1.3c0-0.3,0-0.5,0-0.6c0-0.2-0.1-0.3-0.2-0.4
		c-0.1-0.1-0.3-0.1-0.5-0.1c-0.2,0-0.4,0.1-0.6,0.2c-0.2,0.1-0.3,0.3-0.3,0.5c0,0.1-0.1,0.4-0.1,0.8v1h-0.4V77.4z M87.5,77.4h0.4
		v2.8h-0.4V77.4z M87.7,76.2c0.1,0,0.1,0,0.2,0.1c0.1,0.1,0.1,0.1,0.1,0.2c0,0.1,0,0.1-0.1,0.2c-0.1,0.1-0.1,0.1-0.2,0.1
		c-0.1,0-0.1,0-0.2-0.1c-0.1-0.1-0.1-0.1-0.1-0.2c0-0.1,0-0.2,0.1-0.2C87.6,76.3,87.6,76.2,87.7,76.2z M84.7,79.4l0.3-0.2
		c0.2,0.4,0.5,0.6,0.8,0.6c0.1,0,0.2,0,0.4-0.1c0.1-0.1,0.2-0.1,0.3-0.2c0.1-0.1,0.1-0.2,0.1-0.3c0-0.1,0-0.2-0.1-0.4
		c-0.1-0.2-0.3-0.4-0.6-0.6c-0.3-0.2-0.5-0.4-0.6-0.5c-0.1-0.2-0.2-0.4-0.2-0.6c0-0.2,0-0.3,0.1-0.4c0.1-0.1,0.2-0.2,0.3-0.3
		c0.1-0.1,0.3-0.1,0.5-0.1c0.2,0,0.3,0,0.5,0.1c0.2,0.1,0.3,0.2,0.5,0.5l-0.3,0.2c-0.1-0.2-0.3-0.3-0.4-0.4
		c-0.1-0.1-0.2-0.1-0.3-0.1c-0.2,0-0.3,0-0.4,0.1c-0.1,0.1-0.1,0.2-0.1,0.3c0,0.1,0,0.2,0.1,0.2c0,0.1,0.1,0.2,0.2,0.2
		c0,0,0.2,0.2,0.5,0.4c0.3,0.2,0.5,0.5,0.7,0.6c0.1,0.2,0.2,0.4,0.2,0.6c0,0.3-0.1,0.5-0.3,0.7c-0.2,0.2-0.5,0.3-0.8,0.3
		c-0.2,0-0.4-0.1-0.6-0.2C85,79.9,84.8,79.7,84.7,79.4z"/>
</g>
</svg>
