<?xml version="1.0" encoding="utf-8"?>
<!-- Generator: Adobe Illustrator 24.3.0, SVG Export Plug-In . SVG Version: 6.00 Build 0)  -->
<svg version="1.1" id="Layer_1" xmlns="http://www.w3.org/2000/svg" xmlns:xlink="http://www.w3.org/1999/xlink" x="0px" y="0px"
	 viewBox="0 0 95.4 104" style="enable-background:new 0 0 95.4 104;" xml:space="preserve">
<style type="text/css">
	.st0{display:none;}
	.st1{display:inline;}
	.st2{fill:#F6F0E9;}
	.st3{clip-path:url(#SVGID_4_);}
	.st4{fill:none;stroke:#008ED3;stroke-miterlimit:10;}
	.st5{opacity:0.88;}
	.st6{fill:url(#SVGID_7_);}
	.st7{fill:#008ED3;}
	.st8{fill:#ECECEC;}
	.st9{fill:#FFFFFF;}
	.st10{fill-rule:evenodd;clip-rule:evenodd;fill:#EC0C6E;}
	.st11{fill-rule:evenodd;clip-rule:evenodd;fill:#008ED3;}
	.st12{fill:#87735B;}
	.st13{fill:#EC0C6E;}
	.st14{fill-rule:evenodd;clip-rule:evenodd;fill:#FFFFFF;}
	.st15{opacity:0.1;clip-path:url(#SVGID_9_);}
	.st16{fill-rule:evenodd;clip-rule:evenodd;fill:#004867;}
</style>
<g>
	<g>
		<path class="st10" d="M20.8,38.8l-1.4-4.7c0,0-5.4-2.3-11.1-2c8.2,2.2,5.1,16.7,17,19.6h0.1c-1.1-0.5-7.5-3.6-8.2-14.7
			C17.2,36.9,19.6,37.5,20.8,38.8"/>
		<path class="st10" d="M34.2,39.8l1.2-3.1c0,0-3.5-6.8-18-8.8c4.5,4.2,5.5,15.9,11,23.7h2.9c-2.6-3.7-4.9-9.3-5.8-17.6
			C25.6,34,28.6,34.3,34.2,39.8"/>
		<path class="st10" d="M73.4,38.8l1.4-4.7c0,0,5.4-2.3,11.1-2c-8.2,2.2-5.1,16.7-17,19.6h-0.1c1.1-0.5,7.5-3.6,8.2-14.7
			C77,36.9,74.7,37.5,73.4,38.8"/>
		<path class="st10" d="M60,39.8l-1.2-3.1c0,0,3.5-6.8,18-8.8c-4.2,4.2-5.2,15.8-10.9,23.7h-3c2.6-3.7,4.9-9.3,5.8-17.6
			C68.6,34,65.6,34.3,60,39.8"/>
		<path class="st10" d="M36.5,51.6c-0.7-1.9-1.1-4.3-0.7-7c0,0-0.7-3.4,6-12.9c0,0,3.7-4.7,5.3-12.1v13c0,0-8.2,6.9-8.3,13.4
			c0,0-0.5,2.4,0.1,5.6H36.5z"/>
		<path class="st10" d="M57.7,51.6c0.7-1.9,1.1-4.3,0.7-7c0,0,0.7-3.4-6-12.9c0,0-3.7-4.7-5.3-12.1v13c0,0,8.2,6.9,8.3,13.4
			c0,0,0.5,2.4-0.1,5.6H57.7z"/>
	</g>
	<g>
		<path class="st11" d="M57.9,53.5c2,0.2,3.1,0.5,4.1,1.1c1.1,0.6,1.4,1.7,1.4,2.5c-0.1,10.7-0.3,19-0.5,21.6c-0.1,2-0.8,2.6-1.9,3
			c-0.8,0.2-1.6,0.4-2.7,0.5c-0.2,0.2-0.2,1.3,0,1.5c1.1,0,3-0.2,6.1-0.2c2.9,0,5.1,0.2,6.4,0.2c0.2-0.2,0.3-1.3,0.1-1.5
			c-1.3-0.2-2.3-0.3-3.1-0.5c-1.3-0.3-2-1-2.1-3.1c-0.2-2.9-0.2-14.8-0.1-20c0-0.1,0.2-0.1,0.2-0.1c3.1,3.8,17.1,21.3,19.8,25.2
			c0.6-0.1,3-0.1,3.5,0c-0.1-1.7-0.1-4.6-0.1-7c0.2-9.6,0.1-16.1,0.4-20.1c0.1-1.4,0.4-2.3,1.7-2.7c0.7-0.2,1.3-0.4,2.2-0.5
			c0.2-0.2,0.2-1.3,0-1.4c-0.7,0-3.7,0.2-5.4,0.2c-3.1,0-5.4-0.2-6.8-0.2c-0.2,0.2-0.2,1.2,0,1.4c1.4,0.2,2.5,0.4,3.4,0.6
			c1.5,0.4,1.8,1.2,1.9,2.7c0.3,3.7,0.2,13.2,0.2,20.2c-0.1,0.1-0.1,0.1-0.2,0.1c-2.4-2.9-12.9-15.6-18.1-22.1
			c-1.3-1.7-1.6-2.2-1.8-2.7c-0.4,0.1-1.3,0.1-2.3,0.1c-2.5,0-5.1-0.2-6.4-0.2C57.8,52.2,57.7,53.3,57.9,53.5z"/>
		<g>
			<path class="st11" d="M41.2,53.5c1.1,0.2,2,0.4,2.6,0.6c0.7,0.2,1,0.5,1,0.9c0,0.6-0.3,1.2-1,2.1c-2.9,3.7-8.2,9.5-10.6,10.4
				c-0.1,0.1-0.2,0.6-0.1,0.8c0.4,0.2,0.9,0.7,1,0.8c2.7,3.5,9.1,10.7,11.4,12.9c0.7,0.6,1.4,1.1,2.1,1.3c1.3,0.5,6.6,0.6,8.4,0.4
				c0.3-0.2,0.4-1.3,0.2-1.5c-1.5-0.1-2.3-0.2-3.5-0.5c-0.7-0.2-1.3-0.5-2-1.1c-3.4-2.7-10.9-11-12.8-13.9c-0.1-0.1-0.1-0.2,0-0.3
				c2.3-2.4,6.1-6.3,9.2-9.7c2.1-2.4,3.4-2.7,6.2-3.2c0.3-0.2,0.3-1.3,0.1-1.4c-1.4,0.1-2.8,0.2-6.1,0.2c-2.5,0-4.2-0.2-5.9-0.2
				C41,52.3,41,53.3,41.2,53.5z"/>
			<path class="st11" d="M32.5,67c0-3.5,0-8.1,0.1-10.4c0.1-1.7,0.3-2.3,1.4-2.6c0.6-0.2,1.7-0.4,2.5-0.5c0.2-0.3,0.2-1.2,0-1.4
				c-1.4,0-3.5,0.2-6.2,0.2c-3.3,0-5.2-0.2-6.4-0.2c-0.3,0.2-0.3,1.2,0,1.4c0.9,0.1,1.9,0.3,2.5,0.4c1.3,0.4,1.5,0.9,1.6,2.4
				c0.1,3,0.1,6.8,0.1,10.8c0.1,4.4,0.1,9.2-0.1,11.7c-0.1,1.9-0.3,2.6-1.7,3c-0.7,0.2-1.6,0.3-2.8,0.4c-0.2,0.2-0.2,1.3,0,1.5
				c0.8,0,3.9-0.2,6.3-0.2c2.6,0,5.4,0.2,7.1,0.2c0.2-0.2,0.3-1.3,0.1-1.5c-1.2-0.2-2.1-0.3-2.9-0.5c-1.3-0.4-1.6-1-1.7-3.2
				C32.5,75,32.5,71.3,32.5,67z"/>
		</g>
		<path class="st11" d="M3.5,74.8c-0.3-0.2-1.5,0.2-1.6,0.5c0.2,1.7,1,7,1.4,7.6c1.2,0.6,4.3,1.6,7.3,1.6C17.8,84.4,22,80,22,75
			c0-3.7-2.2-5.9-4.9-7.5c-1.7-1-4.3-2.2-6.3-3.6c-2.1-1.5-3.5-3-3.5-5.8c0.1-2.5,1.8-5.2,5.3-5.2c1.5,0,3,0.3,4.1,1.1
			c1.2,0.8,1.7,2.2,2,5.2c0.2,0.3,1.3,0.3,1.5-0.1c0.2-2.5,0.5-5.3,0.9-7c-2.1-0.3-4.2-0.9-7.7-0.9c-5.5,0-10,3.2-10,8.6
			c0,4.6,3.1,7.1,7.6,9.7c4.6,2.7,6.7,4.3,6.7,7.6c0,3.8-2.9,5.3-5.4,5.3c-1.9,0-3.7-0.4-5-1.4C5.4,80,4.4,77.9,3.5,74.8z"/>
	</g>
</g>
</svg>
